<?xml version="1.0" standalone="no"?>
<!DOCTYPE svg PUBLIC "-//W3C//DTD SVG 1.1//EN" "http://www.w3.org/Graphics/SVG/1.1/DTD/svg11.dtd" >
<svg xmlns="http://www.w3.org/2000/svg" xmlns:xlink="http://www.w3.org/1999/xlink" version="1.1">
<metadata>
Created by FontForge 20170731 at Tue Nov 19 01:40:33 2013
 By Aleksey,,,
Copyright (c) 2013 by juliasys.com. All rights reserved.
</metadata>
<defs>
<font id="Mir-BoldItalic" horiz-adv-x="1004" >
  <font-face 
    font-family="Mir-BoldItalic"
    font-weight="400"
    font-style="italic"
    font-stretch="normal"
    units-per-em="2000"
    panose-1="2 0 8 4 6 1 1 2 1 4"
    ascent="1520"
    descent="-480"
    x-height="950"
    cap-height="1285"
    bbox="-223 -509 2294 1794"
    underline-thickness="100"
    underline-position="-400"
    unicode-range="U+000D-FB04"
  />
<missing-glyph horiz-adv-x="1036" 
d="M113 0v1420h810v-1420h-810zM275 1260v-1099h488v1099h-488z" />
    <glyph glyph-name="ff" unicode="ff" horiz-adv-x="1309" 
d="M473 950h364l14 169q26 314 298 314q95 0 185 -31q14 -5 14 -20l-12 -142q-2 -17 -16 -17q-79 17 -121 17q-62 0 -90 -35t-34 -115l-12 -140h204q28 0 28 -24l-12 -126q-1 -25 -29 -25h-207l-65 -745q-3 -30 -25 -30h-179q-22 0 -22 30l65 745h-364l-65 -745
q-3 -30 -26 -30h-179q-21 0 -21 30l65 745h-124q-25 0 -25 25l12 126q2 24 30 24h123l14 169q26 314 297 314q94 0 186 -31q13 -4 13 -24l-12 -138q-2 -17 -16 -17q-79 17 -121 17q-62 0 -89.5 -34.5t-33.5 -115.5z" />
    <glyph glyph-name="fi" unicode="fi" horiz-adv-x="1155" 
d="M473 949h566q11 0 19 -8t8 -21l-67 -761l113 -24q14 -3 14 -21l-7 -89q-3 -24 -27 -25l-305 -24q-11 0 -19 8t-8 20l67 770h-370l-65 -744q-3 -30 -26 -30h-179q-21 0 -21 26l65 748h-121q-28 0 -28 22l11 129q1 24 33 24h121l14 170q26 314 297 314q94 0 186 -31
q13 -4 13 -24l-12 -138q-2 -17 -16 -17q-79 17 -121 17q-35 0 -56 -10q-29 -12 -45 -43t-22 -97zM882 1120q-33 33 -33 90q0 58 33 89q33 33 94 33t94 -33q34 -31 34 -89q0 -57 -34 -90q-34 -32 -94 -32t-94 32z" />
    <glyph glyph-name="fl" unicode="fl" horiz-adv-x="1238" 
d="M231 775h-121q-28 0 -28 25l12 126q2 24 32 24h121l14 169q13 157 86.5 233.5t210.5 76.5h508q12 0 20 -8.5t8 -23.5l-96 -1091q-1 -5 -1 -22q0 -40 12.5 -66t36 -37t45.5 -15t53 -4h34q11 0 11 -16v-138q0 -21 -16 -24q-70 -10 -167 -10q-118 0 -178 67.5t-60 187.5
q0 35 3 73l83 947h-170q-59 0 -91 -4q-33 -4 -62 -27q-37 -27 -46 -128l-12 -140h203q28 0 28 -24l-12 -126q-1 -25 -32 -25h-203l-65 -745q-3 -30 -26 -30h-179q-21 0 -21 26z" />
    <glyph glyph-name="ffi" unicode="ffi" horiz-adv-x="1734" 
d="M1063 950h567q11 0 19 -8t8 -21v-4l-67 -758l112 -24q15 -3 15 -21l-7 -92q-2 -21 -27 -22l-305 -24q-11 0 -19 8t-8 20l67 771h-371l-65 -745q-3 -30 -25 -30h-179q-22 0 -22 26l65 749h-364l-65 -745q-3 -30 -26 -30h-179q-21 0 -21 26v4l65 745h-125q-24 0 -24 25
l12 126q2 24 28 24h125l14 169q26 314 297 314q94 0 186 -31q13 -4 13 -24l-12 -138q-2 -17 -16 -17q-79 17 -121 17q-66 0 -91 -33q-24 -32 -32 -117l-12 -140h364l14 169q26 314 298 314q95 0 185 -31q14 -5 14 -20l-12 -142q-2 -17 -16 -17q-79 17 -121 17q-65 0 -91 -33
t-33 -117zM1471 1120q-33 33 -33 90q0 58 33 89q33 33 94 33t94 -33q34 -31 34 -89q0 -57 -34 -90q-34 -32 -94 -32t-94 32z" />
    <glyph glyph-name="ffl" unicode="ffl" horiz-adv-x="1830" 
d="M1684 1397l-96 -1091q-1 -5 -1 -32q0 -88 67 -105q32 -7 81 -7h27q18 0 18 -16v-138q0 -21 -16 -24q-70 -10 -168 -10q-124 0 -183 62q-57 62 -57 159q0 2 0.5 12t0.5 13q3 68 87 1029h-169q-59 0 -91 -4q-35 -4 -63 -27q-37 -27 -46 -128l-12 -140h204q28 0 28 -24
l-12 -126q-1 -25 -32 -25h-204l-65 -745q-3 -30 -25 -30h-179q-22 0 -22 26l65 749h-364l-65 -745q-3 -30 -26 -30h-179q-21 0 -21 26l65 749h-121q-28 0 -28 25l12 126q2 24 32 24h121l14 169q26 314 297 314q94 0 186 -31q13 -4 13 -20l-12 -142q-2 -17 -16 -17
q-79 17 -121 17q-35 0 -56 -10q-29 -12 -45 -43t-22 -97l-12 -140h364l14 169q25 310 298 310h507q13 0 20.5 -9t7.5 -23z" />
    <glyph glyph-name="f_j" unicode="fj" horiz-adv-x="1105" 
d="M778 774h-321l-65 -744q-3 -30 -26 -30h-179q-21 0 -21 28l65 746h-121q-28 0 -28 25l11 126q1 24 33 24h121l14 170q26 314 297 314q94 0 186 -31q13 -4 13 -24l-12 -138q-2 -17 -16 -17q-79 17 -121 17q-35 0 -56 -10q-29 -12 -45 -43t-22 -97l-12 -141h517
q12 0 19.5 -9t7.5 -24l-86 -979q-12 -146 -58 -232q-30 -55 -71 -85q-95 -73 -281 -73h-4q-36 0 -36 23l12 144q3 21 18 23q76 4 122 27q59 29 67 118zM917 1332q60 0 94 -32.5t34 -89.5t-34 -89.5t-94 -32.5t-93.5 32.5t-33.5 89.5t33.5 89.5t93.5 32.5z" />
    <glyph glyph-name="f_f_j" unicode="ffj" horiz-adv-x="1654" 
d="M473 949h315l14 170q26 314 298 314q93 0 185 -31q13 -4 13 -24l-12 -138q-2 -17 -15 -17q-82 17 -121 17q-36 0 -57 -10q-18 -7 -29 -19t-22 -41q-11 -30 -16 -80l-12 -141h517q11 0 19.5 -8.5t8.5 -20.5l-86 -983q-12 -146 -58 -232q-29 -54 -72 -85q-95 -73 -280 -73
q-41 0 -41 23l12 144q3 22 19 23q74 6 120 28q61 29 68 117l78 892h-321l-65 -744q-3 -30 -25 -30h-180q-21 0 -21 30l65 744h-315l-65 -744q-3 -30 -26 -30h-179q-21 0 -21 30l65 744h-121q-28 0 -28 25l11 126q1 24 33 24h121l14 170q26 314 297 314q94 0 186 -31
q13 -4 13 -24l-12 -138q-2 -17 -16 -17q-79 17 -121 17q-35 0 -56 -10q-29 -12 -45 -43t-22 -97zM1466 1332q60 0 94 -32.5t34 -89.5t-34 -89.5t-94 -32.5t-93.5 32.5t-33.5 89.5t33.5 89.5t93.5 32.5z" />
    <glyph glyph-name=".notdef" horiz-adv-x="1036" 
d="M113 0v1420h810v-1420h-810zM275 1260v-1099h488v1099h-488z" />
    <glyph glyph-name="uni0000" horiz-adv-x="0" 
 />
    <glyph glyph-name="uni0000" horiz-adv-x="0" 
 />
    <glyph glyph-name="nonmarkingreturn" horiz-adv-x="666" 
 />
    <glyph glyph-name="CR.001" unicode="&#xd;" horiz-adv-x="428" 
 />
    <glyph glyph-name="space" unicode=" " horiz-adv-x="428" 
 />
    <glyph glyph-name="exclam" unicode="!" horiz-adv-x="537" 
d="M164 414l41 850q1 21 25 21h229q18 0 18 -17l-109 -852q-3 -24 -20 -24h-164q-20 0 -20 22zM239 -24q-66 0 -106 40t-40 106t41 110q42 44 105 44t106 -45q44 -44 44 -109q0 -66 -42 -106t-108 -40z" />
    <glyph glyph-name="quotedbl" unicode="&#x22;" horiz-adv-x="669" 
d="M314 1395l-90 -446q-5 -23 -31 -23h-89q-27 0 -27 23l-6 446q0 10 7 18t22 8h193q9 0 15 -7.5t6 -18.5zM630 1399l-88 -450q-5 -23 -33 -23h-90q-27 0 -27 23l-4 446q0 26 28 26h195q19 0 19 -22z" />
    <glyph glyph-name="numbersign" unicode="#" horiz-adv-x="1090" 
d="M943 360h-144l-72 -334q-5 -26 -34 -26h-120q-22 0 -22 23l73 337h-191l-72 -334q-5 -26 -33 -26h-120q-22 0 -22 23l73 337h-142q-19 0 -19 15l28 127q2 15 21 15h146l55 256h-140q-19 0 -19 15l28 128q2 14 20 14h145l72 329q5 26 26 26h119q30 0 30 -24l-71 -331h189
l72 329q3 12 10.5 19t14.5 7h121q29 0 29 -24l-71 -331h138q18 0 18 -14l-25 -131q-3 -12 -21 -12h-144l-56 -256h139q18 0 18 -13l-27 -131q-3 -13 -20 -13zM524 773l-57 -256h191l55 256h-189z" />
    <glyph glyph-name="dollar" unicode="$" horiz-adv-x="1020" 
d="M95 38q-23 11 -23 31l21 229q1 21 21 21h101q16 0 20 -18l33 -123q72 -18 134 -18q27 0 49 2l36 412q-334 121 -334 363q0 168 107 261q107 94 291 110l11 122q3 31 25 31h60q35 0 35 -26l-11 -128q210 -16 285 -50q23 -11 23 -32l-30 -229q-3 -21 -23 -21h-101
q-17 0 -20 18l-22 114q-78 21 -128 22l-32 -366q111 -44 179 -95q44 -32 76 -71q71 -85 71 -206q0 -185 -110 -289q-108 -102 -285 -125l-13 -149q-1 -18 -9.5 -24t-29.5 -6h-46q-35 0 -35 24l13 151q-189 9 -339 65zM392 949q-1 -3 -1 -13q0 -93 115 -138l29 326
q-129 -25 -143 -175zM699 365q0 2 0.5 9.5t0.5 9.5q0 97 -97 149l-31 -354q115 46 127 186z" />
    <glyph glyph-name="percent" unicode="%" horiz-adv-x="1589" 
d="M386 3l711 1267q7 15 28 15h160q16 0 16 -15q0 -8 -6 -20l-708 -1260q-7 -15 -28 -15h-156q-20 0 -20 17q0 5 3 11zM447 1140q-74 0 -115 -55.5t-41 -149.5q0 -69 32 -107.5t94 -38.5q72 0 112.5 55t40.5 146q0 69 -32 109.5t-91 40.5zM406 622q-132 0 -210 85t-78 229
q0 169 94 270q93 102 250 102q128 0 205 -89q76 -88 76 -226q0 -167 -93 -269q-92 -102 -244 -102zM1274 492q-74 0 -115 -55.5t-41 -149.5q0 -69 32 -107.5t94 -38.5q72 0 112.5 55t40.5 146q0 69 -32 109.5t-91 40.5zM1233 -26q-132 0 -210 85q-78 86 -78 229
q0 168 93 270q94 102 251 102q128 0 205 -89q76 -88 76 -226q0 -167 -93 -269q-91 -102 -244 -102z" />
    <glyph glyph-name="ampersand" unicode="&#x26;" horiz-adv-x="1231" 
d="M85 290q0 137 82 243q38 51 82 93q36 36 103 90q-77 97 -101 159q-24 63 -24 118q0 129 97 223q98 95 234 95q115 0 192 -76q78 -75 78 -190q0 -71 -27 -129q-11 -24 -36 -57q-21 -27 -46 -54q-13 -14 -63 -64q-5 -5 -21.5 -19.5t-20.5 -18.5l188 -229l129 130
q47 47 81 64q36 17 106 17h70q28 0 28 -23l-14 -137q-2 -16 -9 -22.5t-23 -6.5q-97 0 -140 -46l-111 -117l98 -115q34 -40 121 -40q26 0 26 -23l-12 -139q-2 -16 -8 -21.5t-22 -5.5h-40q-79 0 -119 13q-28 10 -47 31l-136 155l-9 -9q-203 -197 -396 -197q-128 0 -209 94
t-81 214zM437 188q48 0 96 31t115 99l12 12l-201 252q-80 -64 -119 -122.5t-39 -125.5q0 -63 37.5 -104.5t98.5 -41.5zM503 837l24 21q61 56 84 90q22 34 22 77q0 48 -24.5 76t-66.5 28q-51 0 -82 -31t-36 -87q0 -62 79 -174z" />
    <glyph glyph-name="quotesingle" unicode="'" horiz-adv-x="341" 
d="M303 1395l-90 -446q-5 -23 -31 -23h-89q-27 0 -27 23l-6 446q0 10 7 18t22 8h193q9 0 15 -7.5t6 -18.5z" />
    <glyph glyph-name="parenleft" unicode="(" horiz-adv-x="615" 
d="M655 1530q-369 -464 -369 -1008q0 -365 220 -756q3 -4 3 -9q0 -11 -17 -19l-100 -52q-8 -3 -13 -3q-10 0 -19 13q-261 395 -261 848q0 287 112 556q112 268 316 507q7 9 17 9q4 0 9 -3l92 -56q21 -12 10 -27z" />
    <glyph glyph-name="parenright" unicode=")" horiz-adv-x="652" 
d="M3 -231q368 466 368 1006q0 399 -219 758q-4 7 -4 12q0 7 11 12l106 56q7 4 15 4q9 0 18 -14q261 -399 261 -852q0 -550 -427 -1059q-8 -9 -17 -9q-7 0 -11 3l-91 57q-13 7 -13 17q0 4 3 9z" />
    <glyph glyph-name="asterisk" unicode="*" horiz-adv-x="659" 
d="M491 1104l-23 -6l15 -19l79 -127q6 -9 6 -17t-10 -15l-91 -69q-13 -8 -17 -8q-8 0 -18 18l-72 140l-6 19l-9 -18l-94 -141q-19 -29 -38 -10l-79 69q-6 4 -6 13q0 11 12 25l97 122l20 17q-11 0 -20 4l-130 46q-14 3 -14 21q0 6 40 111q9 20 23 20q8 0 15 -4l118 -59
l21 -14l-1 17v156q0 29 34 29h86q36 0 36 -23l-1 -7l-28 -172l24 14l127 59q12 5 18 5q13 0 18 -21l19 -98q1 -3 1 -13q-2 -17 -19 -21q-8 -3 -31 -10t-38 -12q-51 -17 -64 -21z" />
    <glyph glyph-name="plus" unicode="+" horiz-adv-x="979" 
d="M592 458v-245q0 -16 -4 -20.5t-19 -4.5h-161q-21 0 -21 23v247h-245q-16 0 -21 4t-5 18v150q0 21 24 21h247v246q0 15 4 20t16 5h164q14 0 17.5 -4.5t3.5 -17.5v-249h246q15 0 20 -4t5 -15v-154q0 -12 -5 -16t-18 -4h-248z" />
    <glyph glyph-name="comma" unicode="," horiz-adv-x="446" 
d="M396 245l-220 -472q-8 -17 -20 -17h-132q-14 0 -14 10q0 2 2 12l125 469q1 6 7 11t13 5h223q18 0 18 -11l-1 -2q-1 -3 -1 -5z" />
    <glyph glyph-name="hyphen" unicode="-" horiz-adv-x="680" 
d="M536 436h-407q-7 0 -11.5 1t-8 6t-3.5 15l14 165q2 21 25 21h407q22 0 22 -14l-15 -174q-1 -12 -5.5 -16t-17.5 -4z" />
    <glyph glyph-name="period" unicode="." horiz-adv-x="534" 
d="M265 -24q-66 0 -107 40t-41 106t43 109q44 45 106 45q64 0 107 -45q44 -44 44 -109t-42.5 -105.5t-109.5 -40.5z" />
    <glyph glyph-name="slash" unicode="/" horiz-adv-x="750" 
d="M725 1587h161q13 0 13 -10q0 -5 -4 -14l-719 -1833q-7 -16 -28 -16h-148q-18 0 -18 12q0 1 2 9l722 1836q7 16 19 16z" />
    <glyph glyph-name="zero" unicode="0" horiz-adv-x="1034" 
d="M55 497q0 159 29 310q31 166 109 289q136 213 392 213q108 0 187 -38t126.5 -109t70 -164.5t22.5 -211.5q0 -352 -125 -574q-64 -113 -169 -174.5t-240 -61.5q-207 0 -305 138q-97 137 -97 383zM556 1103q-148 0 -219 -205q-32 -91 -46 -273q-4 -60 -4 -145
q0 -152 44.5 -225t147.5 -73q276 0 276 627q0 149 -46 221.5t-153 72.5z" />
    <glyph glyph-name="one" unicode="1" horiz-adv-x="778" 
d="M519 187l126 -37q18 -6 18 -21l-9 -109q-2 -20 -27 -20h-480q-23 0 -23 20l9 104q2 21 22 26l130 37l75 847q-21 -8 -90 -27q-65 -17 -100 -24q-3 0 -8 -0.5t-8 -1.5l-4 -1q-13 0 -13 17l7 152q1 12 8 19.5t14 8.5q77 20 413 122q3 0 6 0.5t5 1t3 0.5q22 0 22 -22z" />
    <glyph glyph-name="two" unicode="2" horiz-adv-x="1003" 
d="M862 0h-797q-35 0 -35 36q0 134 82 263q33 52 88 110q50 53 94 92q42 36 96 78q79 61 107 84q27 21 81 70q42 37 65 70q49 71 49 140q0 78 -53 116t-124 38q-140 0 -203 -158q-10 -25 -20 -25q-2 0 -22 5l-153 42q-16 5 -1 45q44 131 154 217q112 86 271 86
q169 0 280 -90q112 -88 112 -242q0 -168 -106 -298q-51 -63 -112 -116q-55 -48 -144 -112q-117 -83 -180 -142t-77 -110h405l41 112q8 20 28 20h102q19 0 19 -23l-25 -283q-3 -25 -22 -25z" />
    <glyph glyph-name="three" unicode="3" horiz-adv-x="963" 
d="M880 490q0 -120 -50.5 -219.5t-140.5 -163.5q-181 -130 -443 -130q-126 0 -189 17q-19 6 -19 23l32 142q6 20 28 20q75 -5 118 -5q110 0 211 32q62 20 106 47q48 29 77.5 78t29.5 108q-5 122 -127 150q-61 15 -149 15q-4 0 -52 -2q-24 -1 -57 -1q-39 0 -39 22q0 14 17 37
l328 436h-285l-42 -115q-6 -17 -22 -17h-101q-18 0 -18 21v272q0 28 29 28h776q10 0 18 -5.5t8 -13.5q0 -12 -9 -22q-343 -450 -361 -466q79 -2 156 -37q49 -22 83 -52q39 -32 63 -84t24 -115z" />
    <glyph glyph-name="four" unicode="4" horiz-adv-x="969" 
d="M536 26l23 264h-488q-33 0 -33 31l12 141q0 12 12 34l3 8l414 763q0 1 2.5 5t11 8.5t19.5 4.5h195q17 0 17 -13l-6 -15l-422 -778h279l22 250q1 30 26 30h176q20 0 20 -25l-22 -255h90q28 0 28 -20l-13 -143q-2 -26 -31 -26h-90l-23 -260q-3 -30 -25 -30h-176
q-21 0 -21 26z" />
    <glyph glyph-name="five" unicode="5" horiz-adv-x="934" 
d="M867 490q0 -121 -47.5 -220t-133.5 -163q-173 -130 -433 -130q-126 0 -189 17q-2 1 -6.5 2.5t-6.5 2t-4.5 3t-2.5 5.5t1 9l32 143q5 20 28 20q96 -8 168.5 -3.5t151.5 30.5q117 40 164 129q27 53 27 118q0 104 -90 144q-44 22 -123 24q-38 2 -67 2q-80 0 -167 -10h-5
q-17 0 -17 27l92 620q4 25 34 25h593q28 0 28 -25l-14 -150q-2 -24 -31 -24h-414l-44 -274h36q235 2 350 -100q90 -77 90 -222z" />
    <glyph glyph-name="six" unicode="6" horiz-adv-x="989" 
d="M822 1300l27 -130q3 -15 3 -18q0 -13 -16 -17q-170 -45 -312 -160q-141 -113 -191 -269q109 99 245 99q154 0 247 -101q94 -100 94 -264q0 -198 -133 -331q-132 -133 -320 -133q-86 0 -154.5 25t-112.5 66t-73.5 97.5t-41.5 115t-12 122.5q0 336 189 578q190 243 523 328
q9 3 20 3q15 0 18 -11zM472 169q88 0 150 74q62 76 62 179q0 91 -42 138t-124 47q-96 0 -159 -67q-63 -68 -63 -181q0 -83 49 -136q49 -54 127 -54z" />
    <glyph glyph-name="seven" unicode="7" horiz-adv-x="895" 
d="M238 1086l-41 -115q-6 -17 -22 -17h-102q-18 0 -18 20l23 283q3 28 28 28h786q36 0 36 -32l-12 -137q-1 -15 -16 -40q-350 -581 -524 -1054q-8 -22 -30 -22h-195q-9 0 -15 6t-6 14q0 1 2 9q216 560 528 1057h-422z" />
    <glyph glyph-name="eight" unicode="8" horiz-adv-x="1008" 
d="M943 1032q0 -104 -55.5 -185t-165.5 -153q214 -139 214 -313q0 -123 -62 -217t-170 -142q-104 -46 -236 -46q-112 -2 -204.5 36.5t-148 115t-55.5 177.5q0 112 56 198q25 36 66 73q39 35 79 62q35 24 95 57q-87 53 -134 110q-47 58 -47 148q0 110 61 192q60 83 154 124
q93 41 195 41q203 0 304 -124q54 -64 54 -154zM711 362q0 76 -47 128q-45 50 -132 101q-62 -30 -88 -46q-30 -17 -75 -52q-81 -66 -81 -160q0 -79 52.5 -121.5t138.5 -42.5q91 0 161 49q71 50 71 144zM396 963q0 -63 49 -104q29 -22 46 -33q3 -2 22 -12.5t34 -18.5
q85 43 129.5 87.5t44.5 101.5q0 63 -44 99q-43 37 -105 37q-66 0 -121 -42q-55 -40 -55 -115z" />
    <glyph glyph-name="nine" unicode="9" horiz-adv-x="974" 
d="M932 840q0 -216 -69 -395.5t-207 -297.5q-94 -81 -229 -125.5t-297 -44.5h-23q-32 0 -32 21l22 140q1 19 22 21q217 19 351 97q144 85 191 283q6 26 8 40q-36 -35 -104 -68q-63 -31 -144 -31q-149 0 -244 101t-95 259q0 213 127 340q127 129 321 129q268 -3 353 -207
q49 -111 49 -262zM522 1109q-90 0 -152 -71q-60 -71 -60 -182q0 -90 42.5 -137.5t123.5 -47.5q95 0 158 67q64 67 64 180q0 84 -49 137q-49 54 -127 54z" />
    <glyph glyph-name="colon" unicode=":" horiz-adv-x="521" 
d="M278 621q-66 0 -106 40.5t-40 106.5t41 110q42 44 105 44t106 -45q44 -44 44 -109q0 -66 -42 -106.5t-108 -40.5zM217 -27q-65 0 -105.5 40.5t-40.5 106.5t41 110q42 44 105 44t106 -45q44 -44 44 -109q0 -66 -42 -106.5t-108 -40.5z" />
    <glyph glyph-name="semicolon" unicode=";" horiz-adv-x="553" 
d="M402 245l-220 -472q-8 -17 -20 -17h-132q-15 0 -15 9q0 3 3 13l125 469q1 6 7 11t13 5h223q18 0 18 -11q0 -1 -2 -7zM321 621q-65 0 -105.5 40.5t-40.5 106.5t41 110q42 44 105 44t106 -45q44 -44 44 -109q0 -66 -42 -106.5t-108 -40.5z" />
    <glyph glyph-name="less" unicode="&#x3c;" horiz-adv-x="955" 
d="M726 89l-605 350q-21 13 -21 38v155q0 24 21 38l605 345q7 4 13 4q12 0 19 -16l67 -138q3 -6 3 -10q0 -11 -15 -19l-476 -281l476 -287q15 -8 15 -19q0 -4 -3 -10l-67 -138q-8 -15 -20 -15q-6 0 -12 3z" />
    <glyph glyph-name="equal" unicode="=" horiz-adv-x="1002" 
d="M851 624h-698q-16 0 -21 4t-5 18v155q0 21 24 21h698q15 0 20 -4.5t5 -14.5v-159q0 -13 -4.5 -16.5t-18.5 -3.5zM851 278h-698q-16 0 -21 4t-5 18v155q0 21 24 21h698q15 0 20 -4.5t5 -14.5v-159q0 -13 -4.5 -16.5t-18.5 -3.5z" />
    <glyph glyph-name="greater" unicode="&#x3e;" horiz-adv-x="950" 
d="M823 439l-605 -350q-7 -4 -13 -4q-12 0 -19 16l-67 138q-3 6 -3 11q0 10 15 18l476 287l-476 281q-16 9 -16 18q0 4 4 11l67 138q7 16 19 16q6 0 13 -4l605 -345q21 -14 21 -38v-155q0 -25 -21 -38z" />
    <glyph glyph-name="question" unicode="?" horiz-adv-x="791" 
d="M221 407q14 182 180 353q57 57 88 108q30 50 30 116q0 135 -153 135q-71 0 -126 -13l-40 -118q-4 -16 -27 -16h-70q-10 0 -14.5 4t-4.5 15v237q0 24 19 28q168 49 296 49q184 0 277 -90q77 -74 77 -208q0 -109 -42 -182q-40 -70 -140 -176q-127 -134 -143 -237
q-2 -20 -19 -20h-173q-15 0 -15 15zM296 -24q-66 0 -106 40t-40 106t41 110q42 44 105 44q64 0 107 -45q44 -44 44 -109t-42 -105.5t-109 -40.5z" />
    <glyph glyph-name="at" unicode="@" horiz-adv-x="1662" 
d="M1218 840l-87 -512q-11 -66 -11 -100t13.5 -50t46.5 -16q70 0 137 66q69 69 112 177q44 112 44 227q0 194 -123 314q-128 131 -402 131q-161 0 -297 -61t-227 -169q-89 -105 -137.5 -244t-48.5 -292q0 -95 19 -175.5t61.5 -148.5t106 -115.5t157 -74t210.5 -26.5
q19 0 19 -17l-8 -96q-1 -21 -30 -21q-148 0 -267 33.5t-201.5 93.5t-138 144.5t-81 185t-25.5 216.5q0 196 67 364q69 172 184 292q116 122 285 193t363 71q316 0 501 -161q186 -161 186 -432q0 -118 -38 -232t-106 -205q-68 -89 -166 -144t-211 -55q-73 0 -121.5 38.5
t-60.5 112.5q-54 -63 -122 -97t-135 -34q-114 0 -172 73t-58 187q0 91 35 199q37 108 97 201q62 96 158 157q96 63 204 63q128 0 268 -61zM934 305l70 405q-24 11 -70 11q-58 0 -118.5 -55.5t-102.5 -150.5q-43 -95 -43 -202t75 -107q44 0 94.5 27.5t94.5 71.5z" />
    <glyph glyph-name="A" unicode="A" horiz-adv-x="1156" 
d="M630 1027l-166 -451l-25 -69h320l-5 33q-15 92 -86 487q-7 41 -9 69l-1 12h-4q-9 -38 -24 -81zM450 1098l-106 37q-18 7 -18 26l9 104q2 20 26 20h453q17 0 20 -14l262 -1249q1 -3 1 -9q0 -13 -14 -13h-207q-21 0 -24 19l-58 294h-423l-111 -294q-7 -19 -25 -19h-207
q-14 0 -14 13q0 3 3 9z" />
    <glyph glyph-name="B" unicode="B" horiz-adv-x="1076" 
d="M585 1107q-34 0 -67.5 -0.5t-54.5 -1t-23 -0.5h-2l-29 -334h132q85 0 153 53q67 52 67 141q0 76 -45 109t-131 33zM511 587h-118l-36 -410q18 -6 131 -6q116 0 192 64t76 182q0 170 -245 170zM134 0q-22 0 -22 30l94 1068l-106 37q-18 5 -18 26l9 104q2 20 27 20
q303 6 439 6q111 0 190 -11q90 -11 154 -49q104 -60 104 -211q0 -228 -240 -326q109 -24 171.5 -102.5t62.5 -197.5q0 -85 -28 -155t-77.5 -117.5t-117.5 -79.5t-145.5 -47t-165.5 -15q-63 0 -155 5q-59 3 -129 10z" />
    <glyph glyph-name="C" unicode="C" horiz-adv-x="1069" 
d="M880 988l-22 114q-64 21 -121 21q-108 0 -193 -42.5t-137 -118.5q-103 -150 -103 -368q0 -198 87 -313t258 -115q50 0 104 10q64 11 92 20l34 10q16 4 20 4q14 0 18 -19l29 -118q1 -3 1 -11q-1 -15 -21 -26q-17 -9 -43 -19q-29 -11 -106 -27q-74 -16 -160 -16
q-266 0 -412 158q-145 158 -145 441q0 338 178 537q178 201 489 201q155 0 304 -58q22 -7 22 -27l-30 -235q-3 -21 -23 -21h-102q-9 0 -12.5 4t-5.5 14z" />
    <glyph glyph-name="D" unicode="D" horiz-adv-x="1217" 
d="M437 1099l-81 -921q31 -4 96 -4q111 0 200 43.5t143 120.5q109 156 109 383q0 82 -19.5 148t-61 119t-114 82t-171.5 29h-101zM117 1285q97 0 173 1q154 2 155 2h72q213 0 330 -52q145 -63 222 -198.5t77 -327.5q0 -342 -180 -534q-178 -192 -500 -192q-184 0 -304 9
q-17 1 -26 3t-16.5 10.5t-7.5 23.5l94 1068l-107 37q-17 6 -17 26l9 104q2 20 26 20z" />
    <glyph glyph-name="E" unicode="E" horiz-adv-x="999" 
d="M747 595h-354l-35 -396h497q21 0 21 -16l-13 -153q-3 -30 -25 -30h-705q-21 0 -21 30l94 1068l-107 37q-17 5 -17 26l9 104q2 20 26 20h824q31 0 31 -28l-11 -139q-3 -32 -37 -32h-488l-26 -292h354q30 0 30 -35l-11 -130q-4 -34 -36 -34z" />
    <glyph glyph-name="F" unicode="F" horiz-adv-x="923" 
d="M318 0h-185q-21 0 -21 30l94 1068l-107 37q-17 5 -17 26l9 104q2 20 26 20h765q31 0 31 -29l-11 -138q-3 -32 -37 -32h-429l-29 -323h323q32 0 32 -26l-12 -144q-3 -29 -37 -29h-323l-47 -534q-1 -30 -25 -30z" />
    <glyph glyph-name="G" unicode="G" horiz-adv-x="1202" 
d="M681 656h368q16 0 16 -15l-49 -550q-1 -17 -10 -26.5t-31 -19.5q-5 -3 -49 -20q-34 -12 -129 -30q-92 -19 -193 -19q-257 0 -401 162q-143 163 -143 442q0 241 102.5 418.5t296.5 257.5q132 55 301 55q168 0 314 -58q23 -11 23 -32l-31 -230q-3 -21 -23 -21h-101
q-15 0 -19 18l-22 114q-72 23 -153 23q-110 0 -196 -41.5t-139 -114t-80.5 -166t-27.5 -202.5q0 -199 82 -317t248 -118q81 0 177 19l25 286h-172q-30 0 -30 31l9 119q1 15 11.5 25t25.5 10z" />
    <glyph glyph-name="H" unicode="H" horiz-adv-x="1244" 
d="M206 1098l-107 37q-17 5 -17 26l9 104q2 20 26 20h302q31 0 31 -35l-46 -527h467l47 532q2 30 27 30h185q21 0 21 -30l-107 -1225q-3 -30 -26 -30h-185q-22 0 -22 30l42 494h-467l-43 -494q-3 -30 -25 -30h-185q-21 0 -21 30z" />
    <glyph glyph-name="I" unicode="I" horiz-adv-x="792" 
d="M478 187l126 -37q17 -5 17 -26l-9 -104q-2 -20 -26 -20h-481q-23 0 -23 20l9 104q2 20 22 26l132 37l80 911l-126 37q-17 5 -17 26l9 104q2 20 26 20h481q23 0 23 -20l-9 -104q-2 -20 -22 -26l-132 -37z" />
    <glyph glyph-name="J" unicode="J" horiz-adv-x="747" 
d="M408 1088h-269q-32 0 -32 35l11 127q5 35 38 35h476q22 0 22 -30l-105 -1207q-30 -341 -327 -341q-62 0 -116 9q-51 7 -68 14q-12 4 -12 15q0 6 1 8l40 150q3 14 19 14q69 -11 110 -11q48 0 81 29t38 88z" />
    <glyph glyph-name="K" unicode="K" horiz-adv-x="1161" 
d="M407 753h33q80 0 119 54q27 36 59 108q34 73 60 135q27 63 73 124q47 62 102 87q66 30 226 30q19 0 25 -3t6 -11l-1 -7q-3 -31 -13 -151q-1 -17 -8.5 -22t-29.5 -5q-56 0 -90 -15q-16 -7 -31.5 -22t-26.5 -29t-26 -42.5t-21.5 -43t-22.5 -50.5t-21 -47
q-53 -117 -130 -155q108 -60 156 -286q9 -44 15 -66q4 -15 20 -56q15 -33 32 -50q45 -43 118 -43q28 0 28 -31l-12 -141q-2 -27 -68 -27q-126 0 -214 63q-96 74 -127 253q-17 94 -37 152q-12 38 -28 58q-34 50 -93 50h-89l-47 -534q-3 -30 -25 -30h-185q-21 0 -21 30
l94 1068l-107 37q-17 6 -17 26l9 104q2 20 26 20h302q14 0 22.5 -9.5t8.5 -25.5z" />
    <glyph glyph-name="L" unicode="L" horiz-adv-x="899" 
d="M441 1255l-89 -1015q0 -23 12 -32t40 -9h248l50 114q9 20 28 20h103q17 0 17 -25l-24 -283q-3 -25 -22 -25h-545q-75 0 -112 25.5t-37 86.5q0 14 1 18l98 1125q1 30 27 30h185q20 0 20 -30z" />
    <glyph glyph-name="M" unicode="M" horiz-adv-x="1445" 
d="M619 334l-162 515q-15 50 -26 109q-11 68 -11 87h-5l-101 -1015q-2 -30 -25 -30h-186q-21 0 -21 30l163 1214q6 41 40 41h226q16 0 28.5 -10t15.5 -21l3 -10l167 -590q9 -51 10 -68l1 -10q0 15 26 78l274 603q12 28 49 28h220q17 0 26.5 -12t9.5 -31l-64 -1212
q-1 -30 -27 -30h-184q-22 0 -22 30l29 331l60 684h-6q-28 -108 -73 -196l-252 -515q-1 -1 -3 -5l-2.5 -5t-2.5 -4t-3 -4t-2.5 -3.5t-3 -3t-3.5 -2t-4 -2l-4 -1t-5 -0.5h-120q-14 0 -19 6t-11 24z" />
    <glyph glyph-name="N" unicode="N" horiz-adv-x="1281" 
d="M877 0q-37 0 -57 42q-2 3 -86 181q-98 206 -145 307q-59 127 -110 249q-36 85 -51 159h-5l-80 -908q-3 -30 -25 -30h-185q-21 0 -21 30l94 1068l-107 37q-17 5 -17 26l9 104q2 20 26 20h315q28 0 38 -21l354 -765q34 -72 44 -128l5 -20h4l79 902q1 13 9 22.5t20 9.5h182
q21 0 21 -30l-106 -1215q-3 -40 -43 -40h-162z" />
    <glyph glyph-name="O" unicode="O" horiz-adv-x="1208" 
d="M639 1114q-326 0 -326 -572q0 -371 243 -371q142 0 234 147q92 148 92 441q0 355 -243 355zM539 -24q-148 0 -261 71q-62 41 -107 104q-100 142 -100 404q0 361 144 558q144 196 441 196q241 0 359 -162q111 -152 111 -402q0 -257 -69 -424q-61 -155 -172 -238
q-141 -107 -346 -107z" />
    <glyph glyph-name="P" unicode="P" horiz-adv-x="1021" 
d="M437 1099l-40 -449h53q303 0 303 248q0 205 -228 205q-20 0 -40.5 -1t-33 -2t-13.5 -1h-1zM381 461l-38 -431q-1 -30 -25 -30h-185q-21 0 -21 30l94 1068l-107 37q-17 6 -17 26l9 104q1 25 26 25h423q222 0 338 -95.5t116 -273.5q0 -151 -69.5 -257t-193.5 -155
q-121 -48 -287 -48h-63z" />
    <glyph glyph-name="Q" unicode="Q" horiz-adv-x="1197" 
d="M539 -24q-148 0 -261 71q-62 41 -107 104q-100 142 -100 404q0 361 144 558q144 196 441 196q241 0 359 -162q111 -152 111 -402q0 -378 -153 -573q-86 -109 -215 -159l277 -59q22 -4 22 -20q0 -4 -3 -13l-47 -126q-7 -21 -21 -21q-8 0 -117 27l-281 70q-15 5 -15 28
l11 78q-10 -1 -45 -1zM639 1114q-326 0 -326 -572q0 -371 243 -371q142 0 234 147q92 148 92 441q0 355 -243 355z" />
    <glyph glyph-name="R" unicode="R" horiz-adv-x="1115" 
d="M550 1105l-113 -3l-35 -404h98q111 -2 185 54.5t75 170.5q0 95 -59 139q-58 43 -151 43zM386 522l-43 -492q-1 -30 -25 -30h-185q-21 0 -21 30l94 1068l-107 37q-17 5 -17 26l9 104q1 18 26 23h474q207 0 312.5 -86.5t105.5 -248.5q0 -264 -271 -379q66 -50 92 -138
q55 -198 113 -235q29 -17 72 -17q40 0 40 -26l-17 -135q-2 -13 -5 -19.5t-15 -12t-34 -5.5q-157 0 -236 87q-66 77 -100 205q-26 98 -54 147q-19 33 -43 52q-52 45 -139 45h-26z" />
    <glyph glyph-name="S" unicode="S" horiz-adv-x="1022" 
d="M235 293l20 -105q105 -20 175 -20q109 0 183 31q93 39 93 157q0 74 -56.5 124t-168.5 92q-346 129 -346 370q0 369 459 369q198 0 335 -46q22 -7 22 -32l-31 -230q-3 -20 -21 -20h-102q-9 0 -13 3.5t-6 13.5l-22 114q-54 9 -114 9q-80 0 -135 -14q-37 -9 -62 -26
q-59 -39 -59 -122q0 -55 50 -96t152 -78q164 -59 254 -144q104 -95 104 -260q0 -186 -135 -295q-134 -110 -351 -110q-108 0 -199 13q-99 14 -137 26l-43 13q-21 8 -21 30l31 230q3 21 23 21h101q11 0 14.5 -3.5t5.5 -14.5z" />
    <glyph glyph-name="T" unicode="T" horiz-adv-x="1073" 
d="M875 1086h-200l-79 -899l133 -37q17 -5 17 -26l-9 -104q-2 -20 -26 -20h-488q-23 0 -23 20l9 104q2 20 23 26l132 37l79 899h-199l-41 -115q-6 -17 -23 -17h-101q-19 0 -19 20l25 287q1 24 30 24h923q25 0 25 -24l-25 -287q-2 -20 -23 -20h-100q-18 0 -21 17z" />
    <glyph glyph-name="U" unicode="U" horiz-adv-x="1258" 
d="M385 503q-3 -31 -3 -59q0 -126 59.5 -197.5t162.5 -71.5q111 0 181 86.5t83 241.5l65 752q1 30 27 30h182q23 0 23 -30l-64 -770q-21 -245 -162 -377t-365 -132q-202 0 -312 120t-110 343q0 4 2 38t2 40l50 581l-107 37q-17 5 -17 26l9 104q2 20 26 20h304q29 0 29 -35z
" />
    <glyph glyph-name="V" unicode="V" horiz-adv-x="1220" 
d="M1223 1242q-95 -286 -250 -650q-151 -353 -271 -560q-20 -32 -46 -32h-194q-34 0 -42 35l-248 1063l-105 37q-18 7 -18 26l9 101q2 23 27 23h278q35 0 43 -36l166 -914l12 -106q196 488 373 1020q6 17 21 26.5t29 9.5h187q13 0 22.5 -7t9.5 -19q0 -11 -3 -17z" />
    <glyph glyph-name="W" unicode="W" horiz-adv-x="1781" 
d="M1047 1260l114 -961q4 -32 4 -64v-8q62 151 113 292q65 180 88 250q71 216 85 260q18 57 71 220q6 17 21 26.5t29 9.5h186q12 0 20.5 -8.5t8.5 -20.5q0 -6 -3 -14q-113 -334 -249 -674q-137 -341 -248 -536q-20 -32 -50 -32h-190q-38 0 -43 35l-87 641q-1 -3 -6 -17
t-14.5 -42t-20.5 -58q-13 -36 -32.5 -90.5t-26.5 -74.5q-49 -133 -55 -150q-64 -173 -86 -212q-21 -32 -48 -32h-193q-35 0 -43 35l-220 1063l-105 37q-18 7 -18 26l9 104q2 20 27 20h277q14 0 27 -9.5t16 -26.5l139 -914q8 -50 8 -91l1 -15q29 70 141 379q107 294 169 482
l-19 160q-1 3 -1 18q1 11 8 14t28 3h128q34 0 40 -25z" />
    <glyph glyph-name="X" unicode="X" horiz-adv-x="1215" 
d="M828 24l-196 406q-13 -20 -55 -85q-44 -69 -67 -102q-29 -41 -64 -83q-44 -53 -90 -89q-45 -34 -109 -56q-63 -22 -147 -22h-9q-21 0 -32 6q-10 6 -10 23l26 155q3 16 24 17q50 5 111 49q53 39 115 116q58 75 187 256q-40 81 -132 256q-98 187 -116 222q-94 30 -124 42
q-18 5 -18 26l9 104q2 20 27 20h276q31 0 43 -29q126 -286 138 -314q10 -21 31 -68q20 -45 23 -50l272 434q17 27 48 27h206q26 0 26 -18q0 -9 -11 -26l-429 -604q38 -71 141 -247q113 -193 200 -353q6 -15 6 -16q0 -21 -32 -21h-224q-32 0 -44 24z" />
    <glyph glyph-name="Y" unicode="Y" horiz-adv-x="1101" 
d="M259 560q-24 77 -54 326q-17 138 -28 210l-111 39q-17 5 -17 26l9 104q2 20 26 20h281q31 0 33 -30l9 -113q11 -142 22 -252q13 -140 24 -192q16 -91 100 -91q70 0 112 2l186 648q7 28 36 28h190q31 0 31 -20q0 -3 -1 -5q-181 -578 -360 -1021q-59 -145 -147 -201
q-89 -56 -247 -56q-89 0 -151 14q-25 5 -30 7q-12 3 -12 15q0 5 37 156q5 15 19 15l4 -1h4q54 -8 104 -8q61 0 94.5 6.5t65.5 26.5q58 37 107 182l8 25h-137q-88 0 -136.5 34t-70.5 106z" />
    <glyph glyph-name="Z" unicode="Z" horiz-adv-x="1094" 
d="M334 1086l-53 -115q-8 -17 -21 -17h-102q-19 0 -19 20l24 283q1 12 6 20q8 8 23 8h818q14 0 24.5 -10.5t10.5 -26.5l-12 -132q-2 -24 -15 -40l-678 -877h350q54 0 84.5 34.5t37.5 91.5q1 11 8.5 20.5t20.5 9.5h156q18 0 18 -25q-21 -188 -92 -259t-216 -71h-601
q-46 0 -46 37l11 125q1 26 16 40l672 884h-425z" />
    <glyph glyph-name="bracketleft" unicode="[" horiz-adv-x="626" 
d="M313 -110h197q27 0 27 -24l-11 -128q-2 -24 -31 -24h-369q-33 0 -33 31l156 1800q3 41 41 41h369q27 0 27 -24l-11 -128q-1 -24 -32 -24h-197z" />
    <glyph glyph-name="backslash" unicode="\" horiz-adv-x="669" 
d="M106 1587h161q13 0 17 -16l399 -1832q1 -3 1 -8q0 -17 -19 -17h-149q-23 0 -26 16l-397 1833q0 3 -0.5 6t-1 4.5t-0.5 2.5q2 11 15 11z" />
    <glyph glyph-name="bracketright" unicode="]" horiz-adv-x="685" 
d="M41 -110h197l133 1520h-197q-26 0 -26 21l1 13q1 14 4 47.5t6 70.5q1 24 31 24h369q33 0 33 -31l-156 -1801q-3 -40 -41 -40h-369q-26 0 -26 21q0 8 10 131q2 24 31 24z" />
    <glyph glyph-name="asciicircum" unicode="^" horiz-adv-x="866" 
d="M387 1366h212q19 0 24 -12l184 -474l1 -2v-4q0 -9 -18 -9h-172q-14 0 -20 13l-122 307l-172 -307q-7 -13 -22 -13h-174q-13 0 -13 10q0 2 5 14l261 465q6 12 26 12z" />
    <glyph glyph-name="underscore" unicode="_" horiz-adv-x="939" 
d="M895 -286h-865q-30 0 -30 18l11 139q1 19 36 19h863q29 0 29 -15l-11 -141q-1 -12 -7.5 -16t-25.5 -4z" />
    <glyph glyph-name="grave" unicode="`" horiz-adv-x="525" 
d="M267 1107l-176 179q-33 34 -33 49q0 16 29 16h189q17 0 28 -7t25 -28l128 -189q10 -13 10 -21q0 -14 -26 -14h-140q-21 0 -34 15z" />
    <glyph glyph-name="a" unicode="a" horiz-adv-x="1023" 
d="M566 776q-95 0 -160.5 -49t-93.5 -130q-26 -78 -26 -177q0 -101 38 -180q21 -43 60 -67.5t92 -24.5q39 0 89.5 25t96.5 65l46 517q-74 21 -142 21zM674 10l-5 106q-68 -70 -143 -105t-140 -35q-177 0 -255 127q-71 116 -71 292q0 261 133 419q133 160 361 160
q168 0 356 -60q25 -8 25 -21l-65 -753l93 -23q11 -3 11 -21l-6 -69q-1 -23 -25 -25l-245 -12q-8 0 -14 2q-10 4 -10 18z" />
    <glyph glyph-name="b" unicode="b" horiz-adv-x="1064" 
d="M117 51l105 1198l-102 25q-16 3 -16 21l7 88q2 25 30 26l293 20q12 0 20 -9t8 -23l-43 -485q0 -4 -2 -16.5t-5 -27t-4 -18.5q142 124 282 124q72 0 128.5 -23.5t93 -63.5t60 -96t33.5 -116.5t10 -130.5q0 -259 -134 -414q-133 -154 -362 -154q-87 0 -185 19
q-102 18 -158 37zM512 167q93 0 158.5 48t92.5 126q27 77 27 174q0 49 -9 95t-28.5 91.5t-58.5 73t-92 27.5q-99 0 -201 -102l-45 -513l48 -11q52 -9 108 -9z" />
    <glyph glyph-name="c" unicode="c" horiz-adv-x="883" 
d="M696 667l-16 108q-46 13 -119 13q-132 0 -196 -94q-65 -95 -65 -238q0 -115 59 -206q59 -90 158 -90q102 0 228 39q17 5 21 5q13 0 15 -14l10 -142q0 -15 -14 -23q-6 -2 -40 -14q-27 -8 -98 -21q-75 -14 -139 -14q-208 0 -322 124q-113 125 -113 335q0 224 125 377
q63 76 161 118.5t218 42.5q137 0 256 -45q14 -6 14 -16l-1 -10l-30 -227q-2 -20 -22 -20h-69q-19 0 -21 12z" />
    <glyph glyph-name="d" unicode="d" horiz-adv-x="1077" 
d="M564 783q-281 0 -281 -367q0 -47 10.5 -92.5t31 -86t57.5 -65t84 -24.5q52 0 109 27.5t104 74.5l45 513q-63 20 -160 20zM746 1014l21 235l-102 25q-15 3 -15 21l7 88q2 24 28 26l296 20q25 0 25 -26l-111 -1267l83 -20q13 -4 13 -22l-6 -71q-2 -22 -26 -23l-251 -13
q-9 0 -13 2q-5 3 -8 20l-15 85q-139 -118 -295 -118q-67 0 -121 23.5t-90 63t-60.5 93.5t-35 112.5t-10.5 122.5q0 93 17 176t55.5 158.5t95.5 130t141.5 86.5t189.5 32q91 0 188 -17q0 3 -0.5 24.5t-0.5 32.5z" />
    <glyph glyph-name="e" unicode="e" horiz-adv-x="889" 
d="M840 708q0 -143 -156 -245q-155 -101 -403 -119q16 -92 77.5 -137t176.5 -45q93 0 224 45l8 2q17 0 18 -24l6 -132q0 -14 -17 -22q-137 -55 -301 -55q-200 0 -309 112t-109 314q0 154 56 293q56 138 176 212q106 67 246 67q130 0 218 -70q89 -71 89 -196zM522 801
q-63 0 -116.5 -43t-85.5 -112q-29 -66 -40 -147q145 29 234 70q112 51 112 143q0 43 -28 66t-76 23z" />
    <glyph glyph-name="f" unicode="f" horiz-adv-x="718" 
d="M473 950h203q28 0 28 -24l-12 -126q-2 -24 -32 -24h-203l-65 -746q-3 -30 -26 -30h-179q-21 0 -21 30l65 746h-121q-28 0 -28 24l12 126q2 24 32 24h121l14 169q26 314 297 314q94 0 186 -31q13 -6 13 -24l-12 -138q-2 -17 -16 -17q-79 17 -121 17q-35 0 -56 -10
q-18 -7 -29 -19t-22 -41q-11 -30 -16 -80z" />
    <glyph glyph-name="g" unicode="g" horiz-adv-x="988" 
d="M560 776q-95 0 -160.5 -49t-93.5 -130q-26 -78 -26 -177q0 -101 38 -180q21 -43 60 -67.5t92 -24.5q98 0 186 90l46 517q-74 21 -142 21zM928 881l-68 -767q-13 -153 -42 -254q-33 -116 -103 -189q-109 -120 -354 -120q-175 0 -285 49q-13 7 -13 20l14 161q1 15 17 15
q2 0 8 -2q108 -48 233 -48q167 0 229 68q33 35 49.5 81t22.5 119l5 61q-71 -54 -131 -76.5t-130 -22.5q-177 0 -255 125q-70 115 -70 290q0 262 133 422q134 161 360 161q150 0 354 -59q26 -9 26 -34z" />
    <glyph glyph-name="h" unicode="h" horiz-adv-x="1068" 
d="M987 3l-289 -12q-23 0 -23 26l52 596q1 7 1 32q0 138 -112 138q-55 0 -113.5 -30t-104.5 -85l-56 -638q-3 -30 -27 -30h-178q-22 0 -22 30l107 1219l-102 25q-16 3 -16 21l7 88q2 25 30 26l293 20q12 0 20 -9.5t8 -22.5l-43 -490q-3 -29 -15 -79q155 146 326 146
q111 0 172 -64t61 -179q0 -9 -2 -39l-48 -548l93 -25q13 -6 13 -22l-6 -71q-2 -22 -26 -23z" />
    <glyph glyph-name="i" unicode="i" horiz-adv-x="565" 
d="M383 165l113 -24q14 -3 14 -21l-8 -89q-2 -23 -28 -25l-303 -21q-28 0 -28 32l67 765l-102 25q-15 3 -15 21l8 88q2 24 28 26l293 20q28 0 28 -33zM340 1321q60 0 94 -32.5t34 -89.5t-34 -89.5t-94 -32.5t-93.5 32.5t-33.5 89.5t33.5 89.5t93.5 32.5z" />
    <glyph glyph-name="j" unicode="j" horiz-adv-x="565" 
d="M247 782l-101 25q-16 4 -16 21l8 88q2 24 28 26l293 20q28 0 28 -33l-87 -992q-12 -146 -58 -232q-30 -55 -71 -85q-95 -73 -281 -73h-4q-36 0 -36 23l12 144q1 21 19 23q74 4 120 28q60 29 67 117zM371 1321q60 0 94 -32.5t34 -89.5t-34 -89.5t-94 -32.5t-93.5 32.5
t-33.5 89.5t33.5 89.5t93.5 32.5z" />
    <glyph glyph-name="k" unicode="k" horiz-adv-x="1009" 
d="M385 609h52q43 6 78 53q4 6 8.5 12t8 11.5t5.5 7.5q1 1 22 35q10 17 19 32q32 50 36 56q23 30 35 45q21 26 43 40q85 56 210 51h49q20 0 20 -21l-13 -153q-1 -19 -28 -19h-28q-47 0 -91 -23.5t-70 -62.5q-5 -6 -32 -49q-2 -3 -15 -20q-27 -34 -62 -53l-13 -7
q47 -32 71 -72q24 -39 58 -129q11 -31 18 -49q1 -3 5 -10.5t7.5 -14.5l7.5 -15q14 -25 27 -35q38 -30 86 -35q17 -2 17 -29l-12 -142q-1 -15 -12.5 -20.5t-41.5 -5.5q-113 0 -177 49t-98 149q-10 30 -18 52q-1 2 -7 18t-10 28q-16 42 -35 78q-11 25 -40 52q-19 19 -49 19
h-39l-35 -402q-3 -30 -27 -30h-178q-22 0 -22 30l107 1219l-102 25q-16 4 -16 21l7 90q1 23 30 24l293 20q12 0 20 -9t8 -23l-62 -711q-2 -28 -15 -77z" />
    <glyph glyph-name="l" unicode="l" horiz-adv-x="587" 
d="M451 1397l-95 -1083q-1 -6 -1 -30q0 -117 146 -117h34q14 0 14 -16l-10 -142q-1 -21 -18 -24q-47 -6 -158 -6q-132 0 -185 66q-53 68 -53 190q0 35 3 73l83 941l-102 25q-16 3 -16 21l7 88q2 25 30 26l293 20q12 0 20 -9t8 -23z" />
    <glyph glyph-name="m" unicode="m" horiz-adv-x="1633" 
d="M1527 692l-48 -548l93 -25q12 -5 12 -22l-6 -71q-2 -22 -25 -23l-289 -12q-10 0 -16.5 7.5t-6.5 18.5l53 602q2 22 2 34q0 137 -110 137q-51 0 -106.5 -31.5t-103.5 -88.5l-56 -640q-3 -30 -26 -30h-179q-21 0 -21 30l52 589q0 3 1 16t1 18q0 137 -109 137
q-108 0 -211 -120l-56 -640q-3 -30 -27 -30h-178q-22 0 -22 30l66 750l-102 25q-16 4 -16 21l8 94q2 24 29 26l267 16q25 0 27 -33l7 -112q167 157 320 157q88 0 144.5 -41t75.5 -117q167 158 329 158q110 0 169.5 -63t59.5 -175q0 -20 -2 -44z" />
    <glyph glyph-name="n" unicode="n" horiz-adv-x="1093" 
d="M986 692l-48 -548l93 -25q13 -6 13 -22l-6 -71q-2 -22 -26 -23l-288 -12q-10 0 -17 7t-7 19l53 602q2 32 2 35q0 136 -109 136q-54 0 -112 -32t-106 -88l-56 -640q-3 -30 -27 -30h-178q-22 0 -22 30l66 750l-102 25q-16 4 -16 21l8 93q2 24 29 26l267 17q25 0 27 -33
l7 -112q167 157 328 157q110 0 169.5 -63t59.5 -175q0 -3 -0.5 -8.5t-1 -16t-0.5 -19.5z" />
    <glyph glyph-name="o" unicode="o" horiz-adv-x="1018" 
d="M65 432q0 118 28.5 215t85 171t149.5 115t215 41q124 0 221 -55q59 -33 98 -80q44 -51 70 -134.5t26 -187.5q0 -123 -28.5 -221t-86 -170t-150 -111t-213.5 -39q-205 0 -310 122t-105 334zM478 154q136 0 193 115q51 102 51 246q0 279 -181 279q-242 0 -242 -368
q0 -129 45.5 -200.5t133.5 -71.5z" />
    <glyph glyph-name="p" unicode="p" horiz-adv-x="1098" 
d="M536 164q73 0 128.5 31t87.5 84.5t47.5 116.5t15.5 135q0 153 -79 228q-43 43 -111 43q-96 0 -194 -98l-44 -520q63 -20 149 -20zM367 -1q0 -35 -3 -62l-29 -331q-3 -30 -28 -30h-178q-21 0 -21 30l103 1174l-102 25q-16 4 -16 21l8 94q2 24 29 26l269 16q27 0 30 -25
l11 -78q53 56 125 86t148 30q85 0 151 -34t105.5 -92.5t59.5 -132t20 -157.5q0 -172 -58.5 -302.5t-172.5 -205.5q-115 -76 -273 -76q-49 0 -178 24z" />
    <glyph glyph-name="q" unicode="q" horiz-adv-x="995" 
d="M667 247l43 517q-61 19 -153 19q-72 0 -127 -30.5t-86.5 -83t-47.5 -115t-16 -132.5q0 -104 39 -185q45 -89 150 -89q46 0 101 28q59 30 97 71zM606 -392l38 469q-68 -55 -126 -78t-138 -23q-72 0 -128.5 22.5t-93 60t-60 91t-33.5 112.5t-10 127q0 263 133 423
q134 162 362 162q133 0 349 -62q36 -10 36 -34l-99 -1270q-2 -30 -24 -30h-183q-23 0 -23 30z" />
    <glyph glyph-name="r" unicode="r" horiz-adv-x="738" 
d="M412 930l8 -114q48 82 106 120t133 38q35 0 82 -9q14 -3 14 -16l-43 -190q-3 -11 -12 -11q-4 0 -13 3q-40 13 -87 13q-64 0 -107.5 -36t-75.5 -119l-51 -579q-3 -30 -26 -30h-178q-23 0 -23 30l66 748l-107 26q-16 3 -16 21l8 93q2 24 29 26l266 18q22 0 27 -32z" />
    <glyph glyph-name="s" unicode="s" horiz-adv-x="838" 
d="M199 283l11 -106l4 -1q20 -14 141 -23q107 -4 158 19q56 26 56 91q0 23 -18 40q-17 17 -48 32q-27 13 -69 30q-11 5 -39 16q-122 52 -194 113q-78 70 -78 179q0 150 101 225q100 75 270 75q191 0 299 -49q18 -8 18 -28l-30 -201q-3 -18 -20 -18h-72q-16 0 -18 14l-14 98
l-1 1q-3 0 -22 4t-49.5 7.5t-59.5 3.5q-58 0 -118 -18q-33 -10 -52 -34t-19 -57q-1 -23 16.5 -43t51 -38t67 -32.5t81.5 -34.5t79 -35q66 -31 114 -88q47 -56 47 -129q0 -82 -31.5 -146t-88.5 -101q-110 -72 -266 -72q-75 0 -154 13q-73 11 -128 23q-44 10 -52 14
q-18 7 -18 24q0 7 1 11l31 213q3 19 23 19h75q15 0 15 -11z" />
    <glyph glyph-name="t" unicode="t" horiz-adv-x="681" 
d="M627 776h-203l-44 -506q0 -53 26 -77.5t84 -24.5q50 0 105 7q22 0 22 -21l-10 -148q-1 -16 -16 -18q-86 -14 -168 -14q-271 0 -271 250q0 4 1 22t1 24l44 506h-121q-28 0 -28 24l12 126q1 24 32 24h121l16 183q2 30 25 30h179q22 0 22 -30l-16 -183h203q28 0 28 -24
l-12 -126q-1 -24 -32 -24z" />
    <glyph glyph-name="u" unicode="u" horiz-adv-x="1070" 
d="M150 254l49 525l-101 25q-16 4 -16 21l8 92q2 24 28 26l293 20q12 0 19.5 -9.5t7.5 -23.5l-53 -603q-2 -32 -2 -35q0 -136 107 -136q109 0 215 112l57 651q1 31 26 31h179q21 0 21 -31l-68 -781l88 -22q13 -4 13 -22l-6 -71q-2 -22 -26 -23l-251 -13q-11 0 -15 4
q-6 6 -7 18l-14 113q-164 -150 -326 -150q-107 0 -167.5 67t-60.5 179q0 4 2 36z" />
    <glyph glyph-name="v" unicode="v" horiz-adv-x="1001" 
d="M741 919q6 31 27 31h202q23 0 23 -17q0 -6 -2 -14q-36 -166 -154 -426q-120 -269 -238 -463q-19 -30 -54 -30h-196q-32 0 -36 25l-167 746l-116 27q-14 5 -14 21l8 88q2 23 28 26l288 29q22 0 28 -32q50 -293 96 -646l14 -116q198 456 263 751z" />
    <glyph glyph-name="w" unicode="w" horiz-adv-x="1455" 
d="M666 786l-18 149q2 15 32 15h167q28 0 30 -25l65 -647q3 -31 3 -64q0 -4 -0.5 -18.5t-0.5 -17.5q201 464 251 741q6 31 27 31h201q24 0 24 -19q0 -2 -2 -12q-37 -165 -153 -430q-113 -256 -235 -459q-17 -30 -53 -30h-161q-33 0 -37 25q-66 435 -72 478
q-101 -318 -173 -473q-13 -30 -54 -30h-157q-32 0 -36 25l-168 749l-115 27q-15 3 -15 21l8 86q2 23 28 26l288 29q22 0 28 -32q35 -201 88 -673l3 -80q150 377 207 608z" />
    <glyph glyph-name="x" unicode="x" horiz-adv-x="998" 
d="M214 783l-106 25q-16 3 -16 21l8 88q2 24 28 26l233 19q23 0 39 -31l150 -277l190 279q14 18 36 18h209q23 0 23 -16q0 -5 -87 -116q-33 -41 -269 -344l255 -442q5 -8 5 -14q0 -8 -7 -13.5t-16 -5.5h-210q-23 0 -32 18l-141 282l-44 -58q-8 -11 -50 -64q-6 -8 -46 -54
q-24 -28 -49 -49q-26 -20 -50 -36q-74 -47 -210 -51q-13 0 -20 1t-13 7t-6 17l22 143q1 22 23 25q70 8 139 67.5t162 183.5l28 37z" />
    <glyph glyph-name="y" unicode="y" horiz-adv-x="1071" 
d="M390 921l23 -209q23 -207 82 -479q4 -19 21 -31.5t40 -13.5q54 106 135 324q81 219 132 417q5 21 29 21h202q23 0 23 -20q0 -6 -3 -13q-113 -316 -291 -699q-93 -202 -187 -360q-95 -162 -164 -221q-101 -86 -247 -86q-66 0 -124 8q-18 5 -18 22l25 149q3 18 22 18h58
q68 0 102.5 8t58.5 29q55 48 147 215q-56 4 -90 31t-58 83q-37 91 -61 210q-33 160 -82 446l-114 27q-16 3 -16 21l8 88q2 23 29 26l287 29q27 0 31 -40z" />
    <glyph glyph-name="z" unicode="z" horiz-adv-x="871" 
d="M833 291q0 -167 -85 -232q-75 -59 -209 -59h-460q-13 0 -21.5 7t-8.5 19l12 141q2 24 17 44l5 7l484 540h-312l-46 -104q-6 -15 -20 -15h-73q-18 0 -18 19l14 267q1 25 27 25h664q26 0 26 -27l-13 -149q-2 -17 -12 -30l-4 -5l-488 -548h234q52 0 73.5 22.5t25.5 73.5
q1 31 27 31h139q22 0 22 -27z" />
    <glyph glyph-name="braceleft" unicode="{" horiz-adv-x="822" 
d="M365 638l-1 -4q79 -33 115.5 -88t36.5 -142q0 -4 -2 -44q-29 -356 -29 -364q0 -70 29 -88q28 -18 111 -18h42q31 0 31 -21l-11 -132q-1 -24 -26 -24h-86q-156 0 -228 40q-78 44 -78 179q0 26 3 53q15 171 26 314q5 62 5 69q0 89 -47.5 131.5t-131.5 42.5q-31 0 -31 21
l12 142q1 14 6 18.5t23 5.5q113 7 163 57q49 49 58 157l31 353q13 166 105 220q47 27 103 37.5t143 10.5h86q21 0 21 -19l-11 -130q-1 -24 -37 -24h-28q-52 0 -78 -5t-49 -21q-41 -27 -51 -138l-28 -317q-10 -107 -56.5 -171t-140.5 -101z" />
    <glyph glyph-name="bar" unicode="|" horiz-adv-x="416" 
d="M437 1545l-156 -1790q-1 -14 -3 -21.5t-9.5 -13.5t-20.5 -6h-124q-24 0 -24 23q0 14 1 18l156 1790q1 16 3 23t8.5 12.5t19.5 5.5h124q15 0 20.5 -5.5t5.5 -18.5q0 -8 -1 -17z" />
    <glyph glyph-name="braceright" unicode="}" horiz-adv-x="816" 
d="M496 640v4q-79 33 -115.5 88t-36.5 142q0 18 30 360q1 11 1 44q0 65 -28 87q-28 23 -112 23h-40q-33 0 -33 24l11 129q1 24 26 24h86q161 0 234 -47q72 -46 72 -172q0 -27 -2 -51q-32 -357 -32 -385q0 -85 41.5 -126t136.5 -48q32 0 32 -19l-12 -144q-1 -23 -36 -24
q-109 -7 -157 -57q-48 -49 -57 -157l-31 -353q-13 -166 -106 -220q-46 -27 -101.5 -37.5t-142.5 -10.5h-86q-22 0 -22 19l11 130q1 24 37 24h28q52 0 78 5t49 21q41 27 51 138l28 317q10 107 57 171t141 101z" />
    <glyph glyph-name="asciitilde" unicode="~" horiz-adv-x="1115" 
d="M94 475q48 97 128.5 150t185.5 53q74 0 144 -36q26 -13 67 -37l9 -5q82 -50 129 -50q87 0 163 133q5 8 14 8q5 0 11 -3l141 -53q8 -3 8 -12q0 -4 -5 -17q-59 -120 -142.5 -178.5t-206.5 -58.5q-106 0 -227 72l-6 4q-52 30 -74 40q-21 10 -42 10q-74 0 -135 -100
q-8 -12 -13 -12q-4 0 -10 3l-135 56q-8 3 -8 16q0 8 4 17z" />
    <glyph glyph-name="exclamdown" unicode="&#xa1;" horiz-adv-x="487" 
d="M64 -370l107 854q4 22 24 22h164q12 0 15 -9q1 -1 1 -8l-39 -854q0 -22 -23 -22h-228q-21 0 -21 17zM293 921q70 0 112 -39.5t42 -106.5q0 -65 -42 -109q-41 -44 -104 -44q-65 0 -108 43q-42 43 -42 108t40 106.5t102 41.5z" />
    <glyph glyph-name="cent" unicode="&#xa2;" horiz-adv-x="1019" 
d="M688 1114l-13 -142q133 -9 234 -39q12 -5 12 -15q0 -1 -2 -19l-28 -201q-3 -25 -21 -25h-73q-17 0 -18 15l-14 93q-49 7 -105 12l-53 -604q107 3 194 27q23 6 26 6q9 0 10 -12q10 -131 10 -145q0 -16 -26 -24q-36 -12 -102 -23q-67 -10 -128 -15l-11 -133
q-2 -19 -8 -24.5t-26 -5.5h-60q-27 0 -27 21l12 145q-175 19 -280 127q-103 107 -103 298q-3 231 123 382t344 161l12 131q2 17 7 23t19 6h68q27 0 27 -20zM322 458q0 -107 42 -174.5t124 -87.5l51 593q-104 -21 -161 -111q-56 -91 -56 -220z" />
    <glyph glyph-name="sterling" unicode="&#xa3;" horiz-adv-x="1019" 
d="M106 431q-22 0 -22 23l9 99q1 25 26 25h96q1 6 6 44q1 9 3.5 23.5t4 24t2.5 17.5h-102q-23 0 -23 22l9 100q3 24 26 24h112q31 171 91 277q36 64 84 105q105 92 283 92q130 0 247 -51q22 -9 22 -28l-31 -233q-3 -21 -22 -21h-100q-9 0 -12.5 4t-5.5 14l-22 114
q-47 10 -80 10q-116 0 -172 -87q-48 -74 -68 -196h266q26 0 26 -24l-9 -100q-3 -22 -24 -22h-276q-1 -12 -4 -38t-5 -44.5t-3 -26.5h278q21 0 21 -25l-9 -99q-2 -23 -25 -23h-289q-12 -48 -19 -74q-30 -104 -65 -168h321q107 0 119 136q3 30 24 30h155q19 0 19 -21
q0 -2 -2 -20q-23 -180 -94 -247q-70 -67 -214 -67h-570q-44 0 -44 28l8 98q1 21 15 35q68 78 109 223q11 44 12 47h-82z" />
    <glyph glyph-name="currency" unicode="&#xa4;" horiz-adv-x="1102" 
d="M959 719q0 -177 -72 -307l134 -152q9 -10 9 -16t-11 -15l-119 -103q-7 -7 -13 -7q-7 0 -18 11l-129 148q-92 -50 -199 -50q-141 0 -220 49l-136 -121q-9 -9 -19 -9q-6 0 -13 7l-102 101q-9 7 -9 15q0 7 14 21l146 131q-27 71 -27 175q0 199 70 317l-132 150
q-12 14 -12 19q0 7 13 17l114 100q10 8 15 8q7 0 17 -10l128 -147q88 47 207 47q131 0 214 -51l143 137q13 11 19 11t12 -7l101 -111q7 -8 7 -13q0 -7 -11 -18l-150 -142q29 -70 29 -185zM586 940q-207 0 -207 -343q0 -130 52 -174q44 -37 113 -37q59 0 103 30t66 83
q42 100 42 226q0 54 -10.5 94t-26.5 62.5t-40 36.5t-45 18t-47 4z" />
    <glyph glyph-name="yen" unicode="&#xa5;" horiz-adv-x="1238" 
d="M235 271l10 101q1 24 26 24h257l-46 131h-200q-22 0 -22 20l9 102q3 24 25 24h133q-43 113 -170 423l-125 39q-19 6 -19 22l9 105q2 23 28 23h274q23 0 33 -25q34 -80 80 -207q32 -88 62 -183q23 -70 66 -213l4 -13l5 13q33 68 71 149q52 110 73 154q28 58 72 138
q38 70 88 150l14 22q9 15 29 15h202q31 0 31 -16q0 -7 -9 -24l-333 -572h143q27 0 27 -24l-9 -100q-1 -22 -27 -22h-212l-71 -131h275q21 0 21 -20l-9 -103q-2 -23 -25 -23h-276l-19 -220q-2 -30 -26 -30h-186q-19 0 -19 27l18 223h-260q-22 0 -22 21z" />
    <glyph glyph-name="brokenbar" unicode="&#xa6;" horiz-adv-x="416" 
d="M439 1562l-61 -690q-2 -22 -7.5 -31.5t-24.5 -9.5h-124q-25 0 -25 27l60 687q1 16 3 23t8.5 12.5t19.5 5.5h124q27 0 27 -24zM341 442l-60 -687q-1 -14 -3 -21.5t-9.5 -13.5t-20.5 -6h-124q-24 0 -24 27l60 687q2 23 8 32t22 9h124q27 0 27 -27z" />
    <glyph glyph-name="section" unicode="&#xa7;" horiz-adv-x="867" 
d="M385 738q-27 -22 -39 -36q-11 -11 -25 -39q-13 -25 -13 -56q-7 -75 116 -140q24 -12 65 -30q31 -13 56 -24q33 29 55.5 65.5t22.5 67.5q-3 39 -21 65t-56 49q-34 20 -104 51q-34 17 -57 27zM219 112l14 -97q48 -22 128 -22q84 0 143 31q61 31 61 99q0 35 -25 63t-64.5 49
t-87.5 42t-96.5 47t-88 58t-64.5 81.5t-25 111.5q0 69 34 134.5t90 112.5q-69 69 -69 175q0 85 32.5 147.5t90.5 96.5q110 65 263 65q107 0 259 -34q19 -4 19 -22l-31 -208q-3 -17 -22 -17h-71q-16 0 -17 13l-15 94q-1 0 -26 5t-39 6q-22 2 -44 2q-86 0 -144 -30
q-59 -30 -59 -94q0 -29 15.5 -52t46 -42t60.5 -33t76.5 -34.5t75.5 -35.5q179 -88 178 -248q0 -154 -122 -255q79 -85 79 -185q0 -81 -32 -143t-89 -98q-110 -69 -267 -69q-153 0 -291 51q-18 7 -18 27l30 204q3 18 22 18h71q17 0 19 -14z" />
    <glyph glyph-name="dieresis" unicode="&#xa8;" horiz-adv-x="715" 
d="M58 1195q0 51 29 78t83 27q53 0 82.5 -27.5t29.5 -77.5q0 -49 -30 -77.5t-82 -28.5q-54 0 -83 28t-29 78zM433 1195q0 50 29 77.5t84 27.5q53 0 82 -27.5t29 -77.5q0 -49 -29.5 -77.5t-81.5 -28.5q-54 0 -83.5 28.5t-29.5 77.5z" />
    <glyph glyph-name="copyright" unicode="&#xa9;" horiz-adv-x="1203" 
d="M778 591h-58q-9 0 -14 14l-22 60q-21 3 -58 3q-61 0 -95.5 -46.5t-34.5 -126.5q0 -169 139 -169q53 0 127 25q15 6 24 6q8 0 11 -13l16 -85q0 -7 -5 -12q-19 -16 -62 -30q-66 -22 -119 -22q-139 0 -213 78t-74 222q0 137 76 220q76 85 202 85q80 0 164 -28q8 0 15.5 -7
t7.5 -16l-15 -143q-2 -15 -12 -15zM601 -47q-231 0 -385 151q-153 152 -153 385q0 232 154 383q155 152 386 152q151 0 274 -69q122 -67 193 -191t71 -275q0 -234 -154 -385t-386 -151zM603 73q175 0 291 116q117 117 117 300q0 179 -117 298q-115 118 -293 118
q-175 0 -292 -118q-116 -119 -116 -298q0 -183 117 -300q118 -116 293 -116z" />
    <glyph glyph-name="ordfeminine" unicode="&#xaa;" horiz-adv-x="744" 
d="M414 1177q-89 0 -145 -68q-55 -67 -55 -163q0 -55 29 -99q30 -43 85 -43q48 0 112 51l27 310q-29 12 -53 12zM445 704l-2 56q-83 -78 -169 -78q-104 0 -156 70t-52 179q0 99 40.5 183t118.5 137q79 55 185 55q49 0 91 -8q41 -8 102 -30q17 -6 17 -19l-40 -459l58 -16
q7 -1 7 -14l-4 -43q-2 -17 -16 -18l-164 -9q-16 0 -16 14z" />
    <glyph glyph-name="guillemotleft" unicode="&#xab;" horiz-adv-x="989" 
d="M501 710l-199 -247l159 -253q9 -16 9 -18q0 -4 -5 -12l-86 -127q-6 -8 -13 -8q-5 0 -9 4l-268 315q-9 9 -9 24l13 143q2 19 17 32l317 313q6 6 12 6t10 -7l64 -126q3 -6 3 -12q-2 -9 -15 -27zM941 710l-199 -247l159 -253q8 -13 8 -19t-4 -11l-86 -127q-5 -8 -13 -8
q-5 0 -9 4l-268 315q-9 9 -9 24v6q3 18 13 137q2 19 17 32l317 313q8 8 13 8q4 0 9 -9l64 -126q2 -6 2 -12q0 -8 -14 -27z" />
    <glyph glyph-name="logicalnot" unicode="&#xac;" horiz-adv-x="1092" 
d="M930 277h-162q-18 0 -18 18l28 329h-610q-23 0 -23 18l14 159q1 21 24 21h793q21 0 21 -16l-44 -504q-1 -15 -5.5 -20t-17.5 -5z" />
    <glyph glyph-name="registered" unicode="&#xae;" horiz-adv-x="947" 
d="M464 1043h-30v-104h25q36 0 56.5 15.5t20.5 40.5q0 48 -72 48zM761 1188q116 -116 116 -286t-117 -286q-116 -116 -285 -116q-168 0 -286 116q-116 116 -116 286t116 286t286 116t286 -116zM418 679h-79q-9 0 -9 12v365l-28 9q-10 3 -10 12v41q0 13 11 13h170
q86 0 130.5 -34.5t44.5 -98.5q0 -76 -86 -112q28 -20 42 -48q22 -43 31 -53q12 -12 33 -19q10 -6 10 -15l-22 -62q-4 -9 -16 -9q-53 11 -78 31q-25 23 -44 69q-30 71 -87 71h-4v-160q0 -12 -9 -12zM782 902q0 131 -89 222q-89 90 -218 90q-131 0 -219 -90q-88 -89 -88 -222
q0 -131 88 -222q88 -90 219 -90q129 0 218 90q89 92 89 222z" />
    <glyph glyph-name="overscore" unicode="&#xaf;" horiz-adv-x="550" 
d="M60 1115l10 117q3 26 29 26h364q27 0 27 -24l-10 -116q-3 -26 -29 -26h-364q-27 0 -27 23z" />
    <glyph glyph-name="degree" unicode="&#xb0;" horiz-adv-x="686" 
d="M212 1019q0 -60 37 -99.5t94 -39.5q58 0 95 40q38 41 38 99t-38 99q-37 40 -95 40q-57 0 -94 -40t-37 -99zM636 1018q0 -120 -85 -205q-86 -84 -206 -84q-123 0 -209 83q-85 82 -85 206q0 122 86 206q85 85 208 85q119 0 204 -85q87 -84 87 -206z" />
    <glyph glyph-name="plusminus" unicode="&#xb1;" horiz-adv-x="1000" 
d="M812 115h-677q-24 0 -24 15l14 162q1 21 25 21h678q24 0 24 -17l-15 -161q-1 -13 -5.5 -16.5t-19.5 -3.5zM622 688l-21 -245q-1 -16 -6 -20.5t-19 -4.5h-157q-18 0 -18 23l22 247h-238q-24 0 -24 15v3l14 154q1 21 25 21h240l21 246q1 25 22 25h160q18 0 18 -15l-22 -256
h239q22 0 22 -18l-13 -155q-1 -20 -25 -20h-240z" />
    <glyph glyph-name="twosuperior" unicode="&#xb2;" horiz-adv-x="675" 
d="M483 794l14 44q4 13 8 17.5t14 4.5h62q11 0 14.5 -4t3.5 -16v-165q0 -29 -29 -29h-497q-23 0 -23 27q0 12 1 15q11 74 56 142t101 116q62 54 112 93q130 107 130 178q0 36 -25.5 56.5t-61.5 20.5q-32 0 -61 -23.5t-46 -69.5q-7 -19 -21 -19l-121 31q-12 5 -12 12
q0 16 11 44q30 78 99 129q68 52 164 52q107 0 178 -57t71 -154q0 -91 -55 -168.5t-164 -152.5q-108 -74 -137 -124h214z" />
    <glyph glyph-name="threesuperior" unicode="&#xb3;" horiz-adv-x="651" 
d="M339 1291h-201q-16 0 -16 19l9 104q3 19 19 19h425q32 0 32 -17q0 -11 -14 -30q-164 -218 -194 -254q83 -11 130.5 -66.5t47.5 -135.5q0 -130 -105 -213q-104 -82 -259 -82q-56 0 -113 9q-56 11 -56 28q0 1 2 9l27 99q4 13 16 13h4q85 -11 116 -11q44 0 79 10.5t55 26
t33.5 35t18 36t4.5 30.5q0 85 -149 85h-84q-23 0 -23 19q0 14 25 39z" />
    <glyph glyph-name="acute" unicode="&#xb4;" horiz-adv-x="542" 
d="M488 1308l-233 -201q-17 -15 -38 -15h-140q-19 0 -19 14q0 8 10 21l162 189q19 22 30.5 28.5t29.5 6.5h187q28 0 28 -12q0 -16 -17 -31z" />
    <glyph glyph-name="mu" unicode="&#xb5;" horiz-adv-x="1147" 
d="M459 932l-50 -589q2 -59 41 -100q40 -42 117 -42q51 0 104 42q55 44 74 98l51 577q1 31 28 31h178q20 0 20 -25l-50 -586q0 -66 31.5 -107.5t81.5 -48.5q17 -5 17 -16q0 -6 -1 -9l-35 -168q-3 -17 -21 -17q-77 0 -139 42q-62 44 -83 120q-55 -82 -120.5 -120t-155.5 -38
q-94 0 -167 59q-21 -178 -21 -362q0 -15 1.5 -43t1.5 -30q0 -21 -22 -21h-190q-14 0 -19 15q-3 10 -3 50q0 90 18 290l74 844l-101 25q-5 1 -10 9t-5 12l8 92q2 24 28 26l292 20q26 0 27 -30z" />
    <glyph glyph-name="paragraph" unicode="&#xb6;" horiz-adv-x="1435" 
d="M1269 1130l-130 -1485q-3 -31 -26 -31h-179q-11 0 -18.5 9t-7.5 22l130 1485h-168l-130 -1485q-3 -31 -26 -31h-176q-10 0 -16 7.5t-6 18.5l54 661q-3 0 -20.5 -0.5t-24.5 -0.5q-119 0 -214 49q-56 30 -99 77q-44 49 -70.5 131t-26.5 183q0 258 122 401q123 144 363 144
h795q29 0 29 -22l-8 -83q-1 -22 -18 -25zM544 454q22 0 44 2l59 674q-13 1 -57 1q-182 0 -243 -157q-34 -88 -34 -217q0 -85 22.5 -147.5t59.5 -94.5t74 -46.5t75 -14.5z" />
    <glyph glyph-name="middot" unicode="&#xb7;" horiz-adv-x="500" 
d="M142 445q-43 43 -43 107q0 63 43 106q44 44 108 44q63 0 107 -44t44 -106q0 -63 -44 -107q-43 -43 -107 -43q-65 0 -108 43z" />
    <glyph glyph-name="cedilla" unicode="&#xb8;" horiz-adv-x="482" 
d="M145 -163l67 193h145l-41 -116q63 -19 93.5 -49.5t30.5 -83.5q0 -100 -74 -154t-187 -54q-83 0 -122 13q-9 2 -9 9q0 3 2 9l39 91q7 13 12 13h2q50 -9 73 -9q37 0 61 16t24 49q0 23 -20 38t-59 15q-17 0 -26 -1q-14 0 -14 11z" />
    <glyph glyph-name="onesuperior" unicode="&#xb9;" horiz-adv-x="510" 
d="M402 646h-311q-16 0 -16 12l7 86q2 16 21 20l69 18l41 463q-97 -24 -111 -26q-20 0 -20 22l4 103q0 13 19 20l267 79q8 2 10 2q20 0 20 -26l-56 -637l66 -18q18 -6 18 -20l-7 -81q-1 -11 -5 -14t-16 -3z" />
    <glyph glyph-name="ordmasculine" unicode="&#xba;" horiz-adv-x="662" 
d="M60 953q0 159 76 257q76 99 235 99q35 0 68 -7t68.5 -26t61 -49t42 -81t16.5 -116q0 -166 -82.5 -258.5t-236.5 -92.5q-123 0 -185.5 72.5t-62.5 201.5zM324 811q79 0 110 76q26 64 26 145q0 86 -30 115q-28 30 -75 30q-129 0 -129 -231q0 -135 98 -135z" />
    <glyph glyph-name="guillemotright" unicode="&#xbb;" horiz-adv-x="989" 
d="M95 216l199 247l-159 253q-8 13 -8 19q0 7 4 11l86 127q6 9 13 9q4 0 9 -5l268 -315q9 -9 9 -24l-13 -141q-2 -21 -17 -34l-317 -313q-6 -6 -12 -6q-5 0 -10 8l-64 125q-3 6 -3 14q1 7 15 25zM535 216l199 247l-159 253q-8 13 -8 19t4 11l86 127q6 9 13 9q4 0 9 -5
l268 -315q9 -9 9 -24l-13 -143q-2 -19 -17 -32l-317 -313q-6 -6 -12 -6q-7 0 -10 8l-64 125q-3 6 -3 13q2 8 15 26z" />
    <glyph glyph-name="onequarter" unicode="&#xbc;" horiz-adv-x="1503" 
d="M1398 170l-13 -147q-2 -23 -27 -23h-122q-21 0 -21 23l13 147h-268q-37 0 -37 23l8 93l12 30l241 446q9 21 39 21h113q27 0 27 -21l-6 -19l-234 -432h117l12 141q2 24 25 24h122q23 0 23 -24l-12 -141h41q25 0 25 -19l-9 -101q-1 -21 -28 -21h-41zM320 -2l712 1272
q8 15 28 15h160q20 0 20 -13q0 -4 -3 -10l-715 -1272q-8 -15 -27 -15h-155q-22 0 -22 16zM440 493h-311q-16 0 -16 12l7 86q2 16 21 20l69 18l41 463q-99 -25 -111 -26q-20 0 -20 22l4 103q0 16 19 20l267 79q8 2 10 2q20 0 20 -26l-56 -637l66 -18q18 -6 18 -20l-7 -81
q-1 -11 -5 -14t-16 -3z" />
    <glyph glyph-name="onehalf" unicode="&#xbd;" horiz-adv-x="1568" 
d="M320 -2l712 1272q8 15 28 15h160q20 0 20 -14q0 -3 -3 -9l-715 -1272q-8 -15 -27 -15h-155q-22 0 -22 15zM441 494h-311q-16 0 -16 11l7 87q2 16 21 20l69 18l41 463l-86 -22q-22 -5 -27 -5q-18 0 -18 23l4 103q0 14 16 20h3l267 79q8 2 10 2q20 0 20 -26l-56 -637
l66 -18q18 -4 18 -20l-7 -81q-1 -11 -5 -14t-16 -3zM1399 148l14 44q4 13 8 17.5t14 4.5h62q11 0 14.5 -4t3.5 -16v-165q0 -29 -29 -29h-497q-23 0 -23 27q0 12 1 15q9 60 41.5 118.5t78.5 102.5q38 36 93 85q9 8 39.5 33t40 33.5t32.5 29.5t31.5 32.5t21 29.5t17 33.5
t4.5 31.5q0 36 -25.5 56.5t-61.5 20.5q-32 0 -61 -23.5t-46 -69.5q-7 -19 -21 -19l-121 31q-12 5 -12 12q0 16 11 44q30 78 99 129q68 52 164 52q108 0 178 -57q71 -57 71 -154q0 -91 -55 -168.5t-164 -152.5q-108 -74 -137 -124h214z" />
    <glyph glyph-name="threequarters" unicode="&#xbe;" horiz-adv-x="1619" 
d="M409 1139h-201q-16 0 -16 19l9 104q1 19 19 19h425q32 0 32 -17q0 -11 -14 -30q-164 -218 -194 -254q83 -11 130.5 -66.5t47.5 -135.5q0 -130 -105 -213q-104 -82 -259 -82q-56 0 -113 9q-56 11 -56 28q0 1 2 9l27 99q6 13 16 13h4q85 -11 116 -11q44 0 79 10.5t55 26
t33.5 35t18 36t4.5 30.5q0 85 -149 85h-84q-23 0 -23 19q0 14 25 39zM434 -2l712 1272q8 15 28 15h160q20 0 20 -14q0 -3 -3 -9l-715 -1272q-8 -15 -27 -15h-155q-22 0 -22 16zM1513 170l-13 -147q-2 -23 -27 -23h-122q-21 0 -21 23l13 147h-268q-37 0 -37 23l8 93l12 30
l241 446q9 21 39 21h113q27 0 27 -21l-6 -19l-234 -432h117l12 141q1 24 25 24h122q23 0 23 -24l-12 -141h41q25 0 25 -19l-9 -101q-2 -21 -28 -21h-41z" />
    <glyph glyph-name="questiondown" unicode="&#xbf;" horiz-adv-x="799" 
d="M615 542q-14 -182 -180 -353q-56 -56 -88 -109q-30 -49 -30 -115q0 -135 153 -135q71 0 126 13l40 118q4 16 27 16h70q10 0 14.5 -4t4.5 -15v-237q0 -24 -19 -28q-168 -49 -296 -49q-184 0 -277 90q-77 74 -77 208q0 107 42 181q41 72 140 177q127 134 143 237
q2 20 19 20h173q15 0 15 -15zM540 973q66 0 106 -40t40 -106q0 -67 -42 -110q-41 -44 -104 -44q-64 0 -108 44q-43 44 -43 110q0 65 42 105.5t109 40.5z" />
    <glyph glyph-name="Agrave" unicode="&#xc0;" horiz-adv-x="1156" 
d="M630 1027l-166 -451l-25 -69h320l-5 33q-15 92 -86 487q-7 41 -9 69l-1 12h-4q-9 -38 -24 -81zM450 1098l-106 37q-18 7 -18 26l9 104q2 20 26 20h453q17 0 20 -14l262 -1249q1 -3 1 -9q0 -13 -14 -13h-207q-21 0 -24 19l-58 294h-423l-111 -294q-7 -19 -25 -19h-207
q-14 0 -14 13q0 3 3 9zM563 1426l-176 179q-33 35 -33 49q0 16 29 16h189q17 0 28 -7t25 -28l128 -189q10 -13 10 -21q0 -14 -26 -14h-140q-21 0 -34 15z" />
    <glyph glyph-name="Aacute" unicode="&#xc1;" horiz-adv-x="1156" 
d="M630 1027l-166 -451l-25 -69h320l-5 33q-15 92 -86 487q-7 41 -9 69l-1 12h-4q-9 -38 -24 -81zM450 1098l-106 37q-18 7 -18 26l9 104q2 20 26 20h453q17 0 20 -14l262 -1249q1 -3 1 -9q0 -13 -14 -13h-207q-21 0 -24 19l-58 294h-423l-111 -294q-7 -19 -25 -19h-207
q-14 0 -14 13q0 3 3 9zM967 1627l-233 -201q-18 -15 -38 -15h-140q-19 0 -19 14q0 8 10 21l162 189q19 22 30.5 28.5t29.5 6.5h187q28 0 28 -12q0 -16 -17 -31z" />
    <glyph glyph-name="Acircumflex" unicode="&#xc2;" horiz-adv-x="1156" 
d="M630 1027l-166 -451l-25 -69h320l-5 33q-15 92 -86 487q-7 41 -9 69l-1 12h-4q-9 -38 -24 -81zM450 1098l-106 37q-18 7 -18 26l9 104q2 20 26 20h453q17 0 20 -14l262 -1249q1 -3 1 -9q0 -13 -14 -13h-207q-21 0 -24 19l-58 294h-423l-111 -294q-7 -19 -25 -19h-207
q-14 0 -14 13q0 3 3 9zM758 1407l-126 126l-147 -126q-19 -15 -36 -15q-3 0 -17 3l-94 21q-19 4 -19 15q0 9 10 20l169 188q32 36 55 36h182q24 0 51 -36l135 -188q9 -11 9 -19q0 -10 -24 -16l-97 -21q-15 -3 -18 -3q-18 0 -33 15z" />
    <glyph glyph-name="Atilde" unicode="&#xc3;" horiz-adv-x="1156" 
d="M630 1027l-166 -451l-25 -69h320l-5 33q-15 92 -86 487q-7 41 -9 69l-1 12h-4q-9 -38 -24 -81zM450 1098l-106 37q-18 7 -18 26l9 104q2 20 26 20h453q17 0 20 -14l262 -1249q1 -3 1 -9q0 -13 -14 -13h-207q-21 0 -24 19l-58 294h-423l-111 -294q-7 -19 -25 -19h-207
q-14 0 -14 13q0 3 3 9zM543 1657q45 0 95 -36q52 -35 79 -35q42 0 103 58q8 6 13 6q9 0 16 -9l61 -67q8 -11 8 -16q0 -4 -7 -15q-78 -132 -199 -132q-28 -1 -62.5 17.5t-64.5 36.5t-46 17q-21 0 -50.5 -16t-52.5 -42q-6 -6 -12 -6q-8 0 -16 9l-61 67q-7 7 -7 15q0 4 5 16
q35 63 86.5 97.5t111.5 34.5z" />
    <glyph glyph-name="Adieresis" unicode="&#xc4;" horiz-adv-x="1156" 
d="M630 1027l-166 -451l-25 -69h320l-5 33q-15 92 -86 487q-7 41 -9 69l-1 12h-4q-9 -38 -24 -81zM450 1098l-106 37q-18 7 -18 26l9 104q2 20 26 20h453q17 0 20 -14l262 -1249q1 -3 1 -9q0 -13 -14 -13h-207q-21 0 -24 19l-58 294h-423l-111 -294q-7 -19 -25 -19h-207
q-14 0 -14 13q0 3 3 9zM321 1517q0 51 29 78t83 27q53 0 82.5 -27.5t29.5 -77.5q0 -49 -30 -77.5t-82 -28.5q-54 0 -83 28t-29 78zM696 1517q0 50 29 77.5t84 27.5q53 0 82 -27.5t29 -77.5q0 -49 -29.5 -77.5t-81.5 -28.5q-54 0 -83.5 28.5t-29.5 77.5z" />
    <glyph glyph-name="Aring" unicode="&#xc5;" horiz-adv-x="1156" 
d="M630 1027l-166 -451l-25 -69h320l-5 33q-15 92 -86 487q-7 41 -9 69l-1 12h-4q-9 -38 -24 -81zM450 1098l-106 37q-18 7 -18 26l9 104q2 20 26 20h453q17 0 20 -14l262 -1249q1 -3 1 -9q0 -13 -14 -13h-207q-21 0 -24 19l-58 294h-423l-111 -294q-7 -19 -25 -19h-207
q-14 0 -14 13q0 3 3 9zM649 1636q-29 0 -45.5 -18t-16.5 -48q0 -26 17 -45t43 -19q29 0 46.5 18.5t17.5 46.5t-17.5 46.5t-44.5 18.5zM458 1569q0 78 53 128t142 50q87 0 138 -48.5t51 -127.5q0 -75 -54 -124q-52 -48 -137 -48q-86 0 -140 48q-53 50 -53 122z" />
    <glyph glyph-name="AE" unicode="&#xc6;" horiz-adv-x="1617" 
d="M797 1077q-44 -89 -143 -274q-84 -159 -153 -296h293q1 76 1 285q0 50 0.5 147t1.5 138zM1459 0h-638q-6 0 -10 5t-4 11q-4 163 -8 296h-398l-150 -292q-11 -20 -26 -20h-207q-13 0 -13 14q0 2 2 8l588 1076l-105 37q-19 7 -19 21l9 109q2 20 28 20h1028q32 0 32 -35
l-11 -129q-5 -35 -38 -35h-525q1 -59 3 -145q0 -26 0.5 -75t1.5 -72h428q32 0 32 -35l-11 -130q-4 -34 -38 -34h-408q2 -73 6 -194q5 -122 6 -202h462q20 0 20 -31l-12 -138q-3 -30 -25 -30z" />
    <glyph glyph-name="Ccedilla" unicode="&#xc7;" horiz-adv-x="1069" 
d="M879 988l-22 114q-65 21 -121 21q-108 0 -193 -42.5t-137 -118.5q-103 -150 -103 -368q0 -198 87 -313t258 -115q50 0 104 10q64 11 92 20l34 11q14 3 20 3q14 0 18 -19l29 -118q1 -3 1 -11q-1 -15 -21 -26q-15 -8 -40 -18q-30 -12 -100 -26q-72 -16 -150 -18l-22 -60
q63 -19 93.5 -49.5t30.5 -83.5q0 -100 -74 -154t-187 -54q-83 0 -122 13q-9 2 -9 10l2 8l39 91q4 13 14 13q72 -9 73 -9q37 0 61 16t24 49q0 23 -20 38t-59 15q-17 0 -26 -1q-14 0 -14 11l55 157q-211 35 -323 187q-112 154 -112 402q0 338 178 537q179 201 489 201
q155 0 304 -58q22 -7 22 -27l-30 -235q-3 -21 -23 -21h-102q-9 0 -12.5 4t-5.5 14z" />
    <glyph glyph-name="Egrave" unicode="&#xc8;" horiz-adv-x="999" 
d="M747 595h-354l-35 -396h497q21 0 21 -16l-13 -153q-3 -30 -25 -30h-705q-21 0 -21 30l94 1068l-107 37q-17 5 -17 26l9 104q2 20 26 20h824q31 0 31 -28l-11 -139q-3 -32 -37 -32h-488l-26 -292h354q30 0 30 -35l-11 -130q-4 -34 -36 -34zM512 1426l-176 179
q-33 35 -33 49q0 16 29 16h189q17 0 28 -7t25 -28l128 -189q10 -13 10 -21q0 -14 -26 -14h-140q-22 0 -34 15z" />
    <glyph glyph-name="Eacute" unicode="&#xc9;" horiz-adv-x="999" 
d="M747 595h-354l-35 -396h497q21 0 21 -16l-13 -153q-3 -30 -25 -30h-705q-21 0 -21 30l94 1068l-107 37q-17 5 -17 26l9 104q2 20 26 20h824q31 0 31 -28l-11 -139q-3 -32 -37 -32h-488l-26 -292h354q30 0 30 -35l-11 -130q-4 -34 -36 -34zM859 1627l-233 -201
q-18 -15 -38 -15h-140q-19 0 -19 14q0 8 10 21l162 189q19 22 30.5 28.5t29.5 6.5h187q28 0 28 -12q0 -16 -17 -31z" />
    <glyph glyph-name="Ecircumflex" unicode="&#xca;" horiz-adv-x="999" 
d="M747 595h-354l-35 -396h497q21 0 21 -16l-13 -153q-3 -30 -25 -30h-705q-21 0 -21 30l94 1068l-107 37q-17 5 -17 26l9 104q2 20 26 20h824q31 0 31 -28l-11 -139q-3 -32 -37 -32h-488l-26 -292h354q30 0 30 -35l-11 -130q-4 -34 -36 -34zM693 1406l-126 126l-147 -126
q-20 -15 -36 -15q-4 0 -17 3l-94 21q-19 4 -19 15q0 9 10 20l169 188q32 36 55 36h182q24 0 51 -36l135 -188q9 -10 9 -19q0 -10 -24 -16l-97 -21q-15 -3 -18 -3q-18 0 -33 15z" />
    <glyph glyph-name="Edieresis" unicode="&#xcb;" horiz-adv-x="999" 
d="M747 595h-354l-35 -396h497q21 0 21 -16l-13 -153q-3 -30 -25 -30h-705q-21 0 -21 30l94 1068l-107 37q-17 5 -17 26l9 104q2 20 26 20h824q31 0 31 -28l-11 -139q-3 -32 -37 -32h-488l-26 -292h354q30 0 30 -35l-11 -130q-4 -34 -36 -34zM250 1517q0 51 29 78t83 27
q53 0 82.5 -27.5t29.5 -77.5q0 -49 -30 -77.5t-82 -28.5q-54 0 -83 28t-29 78zM625 1517q0 50 29 77.5t84 27.5q53 0 82 -27.5t29 -77.5q0 -49 -29.5 -77.5t-81.5 -28.5q-54 0 -83.5 28.5t-29.5 77.5z" />
    <glyph glyph-name="Igrave" unicode="&#xcc;" horiz-adv-x="833" 
d="M519 187l126 -37q17 -5 17 -26l-9 -104q-2 -20 -26 -20h-481q-23 0 -23 20l9 104q2 20 22 26l132 37l80 911l-126 37q-17 5 -17 26l9 104q2 20 26 20h481q23 0 23 -20l-9 -104q-2 -20 -22 -26l-132 -37zM419 1426l-176 179q-33 35 -33 49q0 16 29 16h189q17 0 28 -7
t25 -28l128 -189q10 -13 10 -21q0 -14 -26 -14h-140q-21 0 -34 15z" />
    <glyph glyph-name="Iacute" unicode="&#xcd;" horiz-adv-x="708" 
d="M478 187l126 -37q17 -5 17 -26l-9 -104q-2 -20 -26 -20h-481q-23 0 -23 20l9 104q2 20 22 26l132 37l80 911l-126 37q-17 5 -17 26l9 104q2 20 26 20h481q23 0 23 -20l-9 -104q-2 -20 -22 -26l-132 -37zM769 1627l-233 -201q-18 -15 -38 -15h-140q-19 0 -19 14q0 8 10 21
l162 189q19 22 30.5 28.5t29.5 6.5h187q28 0 28 -12q0 -16 -17 -31z" />
    <glyph glyph-name="Icircumflex" unicode="&#xce;" horiz-adv-x="744" 
d="M478 187l126 -37q17 -5 17 -26l-9 -104q-2 -20 -26 -20h-481q-23 0 -23 20l9 104q2 20 22 26l132 37l80 911l-126 37q-17 5 -17 26l9 104q2 20 26 20h481q23 0 23 -20l-9 -104q-2 -20 -22 -26l-132 -37zM599 1405l-126 126l-147 -126q-20 -15 -36 -15q-4 0 -17 3l-94 21
q-19 4 -19 15q0 9 10 20l169 188q31 36 55 36h182q24 0 51 -36l135 -188q9 -11 9 -19q0 -10 -24 -16l-97 -21q-15 -3 -18 -3q-18 0 -33 15z" />
    <glyph glyph-name="Idieresis" unicode="&#xcf;" horiz-adv-x="752" 
d="M478 187l126 -37q17 -5 17 -26l-9 -104q-2 -20 -26 -20h-481q-23 0 -23 20l9 104q2 20 22 26l132 37l80 911l-126 37q-17 5 -17 26l9 104q2 20 26 20h481q23 0 23 -20l-9 -104q-2 -20 -22 -26l-132 -37zM178 1517q0 51 29 78t83 27q53 0 82.5 -27.5t29.5 -77.5
q0 -49 -30 -77.5t-82 -28.5q-54 0 -83 28t-29 78zM553 1517q0 50 29 77.5t84 27.5q53 0 82 -27.5t29 -77.5q0 -49 -29.5 -77.5t-81.5 -28.5q-54 0 -83.5 28.5t-29.5 77.5z" />
    <glyph glyph-name="Eth" unicode="&#xd0;" horiz-adv-x="1267" 
d="M167 1285q97 0 173 1q154 2 155 2h72q213 0 330 -52q145 -63 222 -198.5t77 -327.5q0 -342 -180 -534q-178 -192 -500 -192q-184 0 -304 9q-17 1 -26 3t-16.5 10.5t-7.5 23.5l47 541h-105q-22 0 -22 21l12 130q2 20 23 20h107l32 356l-107 37q-17 8 -17 26l9 104
q2 20 26 20zM487 1099l-32 -357h160q15 0 19 -3.5t4 -14.5l-12 -132q-1 -14 -5.5 -17.5t-18.5 -3.5h-162l-34 -393q31 -4 96 -4q111 0 200 43.5t143 120.5q109 156 109 383q0 82 -19.5 148t-61 119t-114 82t-171.5 29h-101z" />
    <glyph glyph-name="Ntilde" unicode="&#xd1;" horiz-adv-x="1281" 
d="M877 0q-37 0 -57 42q-2 3 -86 181q-98 206 -145 307q-59 127 -110 249q-36 85 -51 159h-5l-80 -908q-3 -30 -25 -30h-185q-21 0 -21 30l94 1068l-107 37q-17 5 -17 26l9 104q2 20 26 20h315q28 0 38 -21l354 -765q34 -72 44 -128l5 -20h4l79 902q1 13 9 22.5t20 9.5h182
q21 0 21 -30l-106 -1215q-3 -40 -43 -40h-162zM633 1654q45 0 95 -36q52 -35 79 -35q42 0 103 58q8 6 13 6q9 0 16 -9l61 -67q8 -11 8 -16q0 -4 -7 -15q-78 -132 -199 -132q-28 -1 -62.5 17.5t-64.5 36.5t-46 17q-21 0 -50.5 -16t-52.5 -42q-6 -6 -12 -6q-8 0 -16 9l-61 67
q-7 7 -7 15q0 4 5 16q35 63 86.5 97.5t111.5 34.5z" />
    <glyph glyph-name="Ograve" unicode="&#xd2;" horiz-adv-x="1208" 
d="M639 1114q-326 0 -326 -572q0 -371 243 -371q142 0 234 147q92 148 92 441q0 355 -243 355zM539 -24q-148 0 -261 71q-62 41 -107 104q-100 142 -100 404q0 361 144 558q144 196 441 196q241 0 359 -162q111 -152 111 -402q0 -257 -69 -424q-61 -155 -172 -238
q-141 -107 -346 -107zM594 1425l-176 179q-33 34 -33 49q0 16 29 16h189q17 0 28 -7t25 -28l128 -189q10 -13 10 -21q0 -14 -26 -14h-140q-22 0 -34 15z" />
    <glyph glyph-name="Oacute" unicode="&#xd3;" horiz-adv-x="1208" 
d="M639 1114q-326 0 -326 -572q0 -371 243 -371q142 0 234 147q92 148 92 441q0 355 -243 355zM539 -24q-148 0 -261 71q-62 41 -107 104q-100 142 -100 404q0 361 144 558q144 196 441 196q241 0 359 -162q111 -152 111 -402q0 -257 -69 -424q-61 -155 -172 -238
q-141 -107 -346 -107zM949 1627l-233 -201q-18 -15 -38 -15h-140q-19 0 -19 14q0 8 10 21l162 189q19 22 30.5 28.5t29.5 6.5h187q28 0 28 -12q0 -16 -17 -31z" />
    <glyph glyph-name="Ocircumflex" unicode="&#xd4;" horiz-adv-x="1208" 
d="M639 1114q-326 0 -326 -572q0 -371 243 -371q142 0 234 147q92 148 92 441q0 355 -243 355zM539 -24q-148 0 -261 71q-62 41 -107 104q-100 142 -100 404q0 361 144 558q144 196 441 196q241 0 359 -162q111 -152 111 -402q0 -257 -69 -424q-61 -155 -172 -238
q-141 -107 -346 -107zM777 1405l-126 126l-147 -126q-19 -15 -36 -15q-3 0 -17 3l-94 21q-19 4 -19 15q0 9 10 20l169 188q32 36 55 36h182q24 0 51 -36l135 -188q9 -11 9 -19q0 -10 -24 -16l-97 -21q-15 -3 -18 -3q-18 0 -33 15z" />
    <glyph glyph-name="Otilde" unicode="&#xd5;" horiz-adv-x="1208" 
d="M639 1114q-326 0 -326 -572q0 -371 243 -371q142 0 234 147q92 148 92 441q0 355 -243 355zM539 -24q-148 0 -261 71q-62 41 -107 104q-100 142 -100 404q0 361 144 558q144 196 441 196q241 0 359 -162q111 -152 111 -402q0 -257 -69 -424q-61 -155 -172 -238
q-141 -107 -346 -107zM578 1656q46 0 95 -36q52 -35 79 -35q42 0 103 58q7 6 13 6q8 0 16 -9l61 -67q8 -11 8 -16q0 -4 -7 -15q-78 -132 -199 -132q-40 0 -95 35q-54 36 -78 36q-21 0 -50.5 -16t-52.5 -42q-6 -6 -12 -6q-8 0 -16 9l-61 67q-7 7 -7 15q0 4 5 16
q35 63 86.5 97.5t111.5 34.5z" />
    <glyph glyph-name="Odieresis" unicode="&#xd6;" horiz-adv-x="1208" 
d="M639 1114q-326 0 -326 -572q0 -371 243 -371q142 0 234 147q92 148 92 441q0 355 -243 355zM539 -24q-148 0 -261 71q-62 41 -107 104q-100 142 -100 404q0 361 144 558q144 196 441 196q241 0 359 -162q111 -152 111 -402q0 -257 -69 -424q-61 -155 -172 -238
q-141 -107 -346 -107zM350 1517q0 51 29 78t83 27q53 0 82.5 -27.5t29.5 -77.5q0 -49 -30 -77.5t-82 -28.5q-54 0 -83 28t-29 78zM725 1517q0 50 29 77.5t84 27.5q53 0 82 -27.5t29 -77.5q0 -49 -29.5 -77.5t-81.5 -28.5q-54 0 -83.5 28.5t-29.5 77.5z" />
    <glyph glyph-name="multiply" unicode="&#xd7;" horiz-adv-x="948" 
d="M611 559l212 -211q12 -12 12 -16q0 -7 -10 -17l-113 -114q-8 -8 -16 -8q-7 0 -15 8l-213 213l-213 -213q-11 -11 -18 -11q-6 0 -12 6l-115 115q-13 13 4 30l214 213l-211 211q-17 17 -3 31l117 117q13 13 28 -2l212 -212l213 212q10 10 17 12q6 0 12 -6l115 -115
q6 -6 6 -13q0 -8 -10 -17z" />
    <glyph glyph-name="Oslash" unicode="&#xd8;" horiz-adv-x="1286" 
d="M573 -24q-149 0 -256 68l-98 -149q-11 -14 -30 -14h-105q-13 0 -13 12q0 7 3 11l148 225q-117 147 -117 426q0 361 144 558q144 196 441 196q151 0 261 -71l95 145q19 28 40 28h107q11 0 11 -11q0 -4 -4 -11l-156 -237q116 -149 116 -407q0 -257 -69 -424
q-61 -155 -172 -238q-141 -107 -346 -107zM673 1114q-326 0 -326 -572q0 -112 22 -190l462 703q-59 59 -158 59zM916 759q0 97 -19 169l-460 -701q58 -56 153 -56q142 0 234 147q92 148 92 441z" />
    <glyph glyph-name="Ugrave" unicode="&#xd9;" horiz-adv-x="1258" 
d="M385 503q-3 -31 -3 -59q0 -126 59.5 -197.5t162.5 -71.5q111 0 181 86.5t83 241.5l65 752q1 30 27 30h182q23 0 23 -30l-64 -770q-21 -245 -162 -377t-365 -132q-202 0 -312 120t-110 343q0 4 2 38t2 40l50 581l-107 37q-17 5 -17 26l9 104q2 20 26 20h304q29 0 29 -35z
M642 1426l-176 179q-33 35 -33 49q0 16 29 16h189q17 0 28 -7t25 -28l128 -189q10 -13 10 -21q0 -14 -26 -14h-140q-22 0 -34 15z" />
    <glyph glyph-name="Uacute" unicode="&#xda;" horiz-adv-x="1258" 
d="M385 503q-3 -31 -3 -59q0 -126 59.5 -197.5t162.5 -71.5q111 0 181 86.5t83 241.5l65 752q1 30 27 30h182q23 0 23 -30l-64 -770q-21 -245 -162 -377t-365 -132q-202 0 -312 120t-110 343q0 4 2 38t2 40l50 581l-107 37q-17 5 -17 26l9 104q2 20 26 20h304q29 0 29 -35z
M1007 1627l-233 -201q-17 -15 -38 -15h-140q-19 0 -19 14q0 8 10 21l162 189q19 22 30.5 28.5t29.5 6.5h187q28 0 28 -12q0 -16 -17 -31z" />
    <glyph glyph-name="Ucircumflex" unicode="&#xdb;" horiz-adv-x="1258" 
d="M385 503q-3 -31 -3 -59q0 -126 59.5 -197.5t162.5 -71.5q111 0 181 86.5t83 241.5l65 752q1 30 27 30h182q23 0 23 -30l-64 -770q-21 -245 -162 -377t-365 -132q-202 0 -312 120t-110 343q0 4 2 38t2 40l50 581l-107 37q-17 5 -17 26l9 104q2 20 26 20h304q29 0 29 -35z
M823 1406l-126 126l-147 -126q-20 -15 -36 -15q-4 0 -17 3l-94 21q-19 4 -19 15q0 9 10 20l169 188q31 36 55 36h182q24 0 51 -36l135 -188q9 -10 9 -19q0 -10 -24 -16l-97 -21q-15 -3 -18 -3q-18 0 -33 15z" />
    <glyph glyph-name="Udieresis" unicode="&#xdc;" horiz-adv-x="1258" 
d="M385 503q-3 -31 -3 -59q0 -126 59.5 -197.5t162.5 -71.5q111 0 181 86.5t83 241.5l65 752q1 30 27 30h182q23 0 23 -30l-64 -770q-21 -245 -162 -377t-365 -132q-202 0 -312 120t-110 343q0 4 2 38t2 40l50 581l-107 37q-17 5 -17 26l9 104q2 20 26 20h304q29 0 29 -35z
M401 1517q0 51 29 78t83 27q53 0 82.5 -27.5t29.5 -77.5q0 -49 -30 -77.5t-82 -28.5q-54 0 -83 28t-29 78zM776 1517q0 50 29 77.5t84 27.5q53 0 82 -27.5t29 -77.5q0 -49 -29.5 -77.5t-81.5 -28.5q-54 0 -83.5 28.5t-29.5 77.5z" />
    <glyph glyph-name="Yacute" unicode="&#xdd;" horiz-adv-x="1101" 
d="M259 560q-24 77 -54 326q-17 138 -28 210l-111 39q-17 5 -17 26l9 104q2 20 26 20h281q31 0 33 -30l9 -113q11 -142 22 -252q13 -140 24 -192q16 -91 100 -91q70 0 112 2l186 648q7 28 36 28h190q31 0 31 -20q0 -3 -1 -5q-181 -578 -360 -1021q-59 -145 -147 -201
q-89 -56 -247 -56q-89 0 -151 14q-25 5 -30 7q-12 3 -12 15q0 5 37 156q5 15 19 15l4 -1h4q54 -8 104 -8q61 0 94.5 6.5t65.5 26.5q58 37 107 182l8 25h-137q-88 0 -136.5 34t-70.5 106zM941 1627l-233 -201q-18 -15 -38 -15h-140q-19 0 -19 14q0 8 10 21l162 189
q19 22 30.5 28.5t29.5 6.5h187q28 0 28 -12q0 -16 -17 -31z" />
    <glyph glyph-name="Thorn" unicode="&#xde;" horiz-adv-x="1001" 
d="M417 875l-39 -449h53q145 0 224 56q78 57 78 194q0 201 -231 201zM450 1255l-17 -193h129q203 0 307.5 -88.5t104.5 -259.5q0 -476 -540 -476h-73l-18 -208q-1 -30 -25 -30h-185q-21 0 -21 25l94 1073l-107 37q-17 6 -17 21l9 109q2 20 26 20h302q31 0 31 -30z" />
    <glyph glyph-name="germandbls" unicode="&#xdf;" horiz-adv-x="1060" 
d="M222 766l-106 26q-16 3 -16 21l7 88q2 24 29 26l101 7l12 136q13 162 125 262q111 99 315 99q144 0 242 -89q99 -88 99 -223q0 -119 -39 -208q-73 -33 -102.5 -70.5t-29.5 -89.5q0 -29 14 -60.5t28 -49.5t46 -54t42 -48q72 -85 72 -195q0 -153 -95 -257
q-94 -103 -238 -103q-121 0 -223 29q-12 5 -12 18l27 152q1 6 6 11t12 5l2 -1h2q58 -19 124 -19q75 0 118 42t43 120q0 16 -3.5 32t-12 33.5t-14.5 29t-22 30.5t-22 26.5t-25 29t-23 25.5q-66 81 -66 170q0 77 42.5 151t121.5 126q13 33 13 89q0 65 -38 108t-102 43
q-185 0 -206 -235l-85 -969q-3 -30 -26 -30h-178q-24 0 -24 30z" />
    <glyph glyph-name="agrave" unicode="&#xe0;" horiz-adv-x="1023" 
d="M566 776q-95 0 -160.5 -49t-93.5 -130q-26 -78 -26 -177q0 -101 38 -180q21 -43 60 -67.5t92 -24.5q39 0 89.5 25t96.5 65l46 517q-74 21 -142 21zM674 10l-5 106q-68 -70 -143 -105t-140 -35q-177 0 -255 127q-71 116 -71 292q0 261 133 419q133 160 361 160
q168 0 356 -60q25 -8 25 -21l-65 -753l93 -23q11 -3 11 -21l-6 -69q-1 -23 -25 -25l-245 -12q-8 0 -14 2q-10 4 -10 18zM531 1107l-176 179q-33 34 -33 49q0 16 29 16h189q17 0 28 -7t25 -28l128 -189q10 -13 10 -21q0 -14 -26 -14h-140q-21 0 -34 15z" />
    <glyph glyph-name="aacute" unicode="&#xe1;" horiz-adv-x="1023" 
d="M566 776q-95 0 -160.5 -49t-93.5 -130q-26 -78 -26 -177q0 -101 38 -180q21 -43 60 -67.5t92 -24.5q39 0 89.5 25t96.5 65l46 517q-74 21 -142 21zM674 10l-5 106q-68 -70 -143 -105t-140 -35q-177 0 -255 127q-71 116 -71 292q0 261 133 419q133 160 361 160
q168 0 356 -60q25 -8 25 -21l-65 -753l93 -23q11 -3 11 -21l-6 -69q-1 -23 -25 -25l-245 -12q-8 0 -14 2q-10 4 -10 18zM885 1308l-233 -201q-18 -15 -38 -15h-140q-19 0 -19 14q0 8 10 21l162 189q19 22 30.5 28.5t29.5 6.5h187q28 0 28 -12q0 -16 -17 -31z" />
    <glyph glyph-name="acircumflex" unicode="&#xe2;" horiz-adv-x="1023" 
d="M566 776q-95 0 -160.5 -49t-93.5 -130q-26 -78 -26 -177q0 -101 38 -180q21 -43 60 -67.5t92 -24.5q39 0 89.5 25t96.5 65l46 517q-74 21 -142 21zM674 10l-5 106q-68 -70 -143 -105t-140 -35q-177 0 -255 127q-71 116 -71 292q0 261 133 419q133 160 361 160
q168 0 356 -60q25 -8 25 -21l-65 -753l93 -23q11 -3 11 -21l-6 -69q-1 -23 -25 -25l-245 -12q-8 0 -14 2q-10 4 -10 18zM713 1083l-126 126l-147 -126q-20 -15 -36 -15q-4 0 -17 3l-94 21q-19 4 -19 15q0 9 10 20l169 188q31 36 55 36h182q24 0 51 -36l135 -188q9 -11 9 -19
q0 -10 -24 -16l-97 -21q-15 -3 -18 -3q-18 0 -33 15z" />
    <glyph glyph-name="atilde" unicode="&#xe3;" horiz-adv-x="1023" 
d="M566 776q-95 0 -160.5 -49t-93.5 -130q-26 -78 -26 -177q0 -101 38 -180q21 -43 60 -67.5t92 -24.5q39 0 89.5 25t96.5 65l46 517q-74 21 -142 21zM674 10l-5 106q-68 -70 -143 -105t-140 -35q-177 0 -255 127q-71 116 -71 292q0 261 133 419q133 160 361 160
q168 0 356 -60q25 -8 25 -21l-65 -753l93 -23q11 -3 11 -21l-6 -69q-1 -23 -25 -25l-245 -12q-8 0 -14 2q-10 4 -10 18zM514 1337q46 0 95 -36q52 -35 79 -35q42 0 103 58q7 6 13 6q8 0 16 -9l61 -67q8 -11 8 -16q0 -4 -7 -15q-78 -132 -199 -132q-40 0 -95 35
q-54 36 -78 36q-21 0 -50.5 -16t-52.5 -42q-6 -6 -12 -6q-9 0 -16 9l-61 67q-7 7 -7 15q0 4 5 16q35 63 86.5 97.5t111.5 34.5z" />
    <glyph glyph-name="adieresis" unicode="&#xe4;" horiz-adv-x="1023" 
d="M566 776q-95 0 -160.5 -49t-93.5 -130q-26 -78 -26 -177q0 -101 38 -180q21 -43 60 -67.5t92 -24.5q39 0 89.5 25t96.5 65l46 517q-74 21 -142 21zM674 10l-5 106q-68 -70 -143 -105t-140 -35q-177 0 -255 127q-71 116 -71 292q0 261 133 419q133 160 361 160
q168 0 356 -60q25 -8 25 -21l-65 -753l93 -23q11 -3 11 -21l-6 -69q-1 -23 -25 -25l-245 -12q-8 0 -14 2q-10 4 -10 18zM298 1195q0 51 29 78t83 27q53 0 82.5 -27.5t29.5 -77.5q0 -49 -30 -77.5t-82 -28.5q-54 0 -83 28t-29 78zM673 1195q0 50 29 77.5t84 27.5
q53 0 82 -27.5t29 -77.5q0 -49 -29.5 -77.5t-81.5 -28.5q-54 0 -83.5 28.5t-29.5 77.5z" />
    <glyph glyph-name="aring" unicode="&#xe5;" horiz-adv-x="1023" 
d="M566 776q-95 0 -160.5 -49t-93.5 -130q-26 -78 -26 -177q0 -101 38 -180q21 -43 60 -67.5t92 -24.5q39 0 89.5 25t96.5 65l46 517q-74 21 -142 21zM674 10l-5 106q-68 -70 -143 -105t-140 -35q-177 0 -255 127q-71 116 -71 292q0 261 133 419q133 160 361 160
q168 0 356 -60q25 -8 25 -21l-65 -753l93 -23q11 -3 11 -21l-6 -69q-1 -23 -25 -25l-245 -12q-8 0 -14 2q-10 4 -10 18zM606 1302q-29 0 -45.5 -18t-16.5 -48q0 -26 17 -45t43 -19q29 0 46.5 18.5t17.5 46.5t-17.5 46.5t-44.5 18.5zM415 1235q0 78 53 128t142 50
q87 0 138 -48.5t51 -127.5q0 -75 -54 -124q-53 -48 -137 -48q-86 0 -140 48q-53 50 -53 122z" />
    <glyph glyph-name="ae" unicode="&#xe6;" horiz-adv-x="1450" 
d="M566 306l9 104h-31q-33 0 -73 -2q-31 -2 -71 -9q-38 -7 -66 -22q-27 -14 -46.5 -41.5t-22.5 -62.5q0 -2 -0.5 -7.5t-0.5 -6.5q0 -50 32 -78.5t82 -28.5q47 0 97 25q50 24 85 67zM1048 800q-86 0 -141 -64q-55 -62 -70 -149h356l1 11q2 32 2 35q0 167 -148 167zM1363 412
h-547v-11q0 -118 66 -180.5t194 -62.5q94 0 224 45l8 2q18 0 18 -24l7 -132q0 -14 -17 -22q-137 -55 -301 -55q-125 0 -214.5 48.5t-130.5 137.5q-69 -98 -158 -143q-32 -17 -80 -28q-38 -9 -71 -11q-34 -2 -65 -2q-103 0 -176 65q-72 66 -72 183q0 24 1 31q10 117 68 188
q50 62 140 93q73 24 179 30q54 2 93 2h60l4 47q1 7 1 28q0 76 -44 113.5t-139 37.5q-51 0 -234 -49q-4 -1 -9 -2h-3q-10 0 -10 11l19 145q2 12 17 18q141 59 268 59q101 0 170 -31q71 -32 129 -115q117 146 297 146q187 0 266 -97q80 -97 80 -300q0 -57 -7 -137
q-1 -28 -31 -28z" />
    <glyph glyph-name="ccedilla" unicode="&#xe7;" horiz-adv-x="877" 
d="M699 669l-16 106q-46 13 -119 13q-132 0 -196 -94q-65 -95 -65 -238q0 -115 59 -206q58 -90 158 -90q102 0 228 39q17 5 21 5q13 0 15 -14l10 -142q0 -15 -14 -23q-110 -41 -243 -48l-23 -63q63 -19 93.5 -49.5t30.5 -83.5q0 -100 -74 -154t-187 -54q-83 0 -122 13
q-9 2 -9 10l2 8l39 93q5 11 13 11q7 0 31 -4q30 -5 43 -5q37 0 61 16t24 49q0 23 -20 38t-59 15q-17 0 -26 -1q-14 0 -14 11l56 159q-157 30 -243 149q-85 118 -85 300q0 224 125 377q63 76 161 118.5t218 42.5q138 0 256 -45q14 -6 14 -16l-1 -10l-30 -227q-3 -20 -22 -20
h-72q-16 0 -18 14z" />
    <glyph glyph-name="egrave" unicode="&#xe8;" horiz-adv-x="889" 
d="M840 708q0 -143 -156 -245q-155 -101 -403 -119q16 -92 77.5 -137t176.5 -45q93 0 224 45l8 2q17 0 18 -24l6 -132q0 -14 -17 -22q-137 -55 -301 -55q-200 0 -309 112t-109 314q0 154 56 293q56 138 176 212q106 67 246 67q130 0 218 -70q89 -71 89 -196zM522 801
q-63 0 -116.5 -43t-85.5 -112q-29 -66 -40 -147q145 29 234 70q112 51 112 143q0 43 -28 66t-76 23zM463 1107l-176 179q-33 34 -33 49q0 16 29 16h189q17 0 28 -7t25 -28l128 -189q10 -13 10 -21q0 -14 -26 -14h-140q-21 0 -34 15z" />
    <glyph glyph-name="eacute" unicode="&#xe9;" horiz-adv-x="889" 
d="M840 708q0 -143 -156 -245q-155 -101 -403 -119q16 -92 77.5 -137t176.5 -45q93 0 224 45l8 2q17 0 18 -24l6 -132q0 -14 -17 -22q-137 -55 -301 -55q-200 0 -309 112t-109 314q0 154 56 293q56 138 176 212q106 67 246 67q130 0 218 -70q89 -71 89 -196zM522 801
q-63 0 -116.5 -43t-85.5 -112q-29 -66 -40 -147q145 29 234 70q112 51 112 143q0 43 -28 66t-76 23zM821 1308l-233 -201q-18 -15 -38 -15h-140q-19 0 -19 14q0 8 10 21l162 189q19 22 30.5 28.5t29.5 6.5h187q28 0 28 -12q0 -16 -17 -31z" />
    <glyph glyph-name="ecircumflex" unicode="&#xea;" horiz-adv-x="889" 
d="M840 708q0 -143 -156 -245q-155 -101 -403 -119q16 -92 77.5 -137t176.5 -45q93 0 224 45l8 2q17 0 18 -24l6 -132q0 -14 -17 -22q-137 -55 -301 -55q-200 0 -309 112t-109 314q0 154 56 293q56 138 176 212q106 67 246 67q130 0 218 -70q89 -71 89 -196zM522 801
q-63 0 -116.5 -43t-85.5 -112q-29 -66 -40 -147q145 29 234 70q112 51 112 143q0 43 -28 66t-76 23zM653 1083l-126 126l-147 -126q-20 -15 -36 -15q-4 0 -17 3l-94 21q-19 4 -19 15q0 9 10 20l169 188q31 36 55 36h182q24 0 51 -36l135 -188q9 -11 9 -19q0 -10 -24 -16
l-97 -21q-15 -3 -18 -3q-18 0 -33 15z" />
    <glyph glyph-name="edieresis" unicode="&#xeb;" horiz-adv-x="889" 
d="M840 708q0 -143 -156 -245q-155 -101 -403 -119q16 -92 77.5 -137t176.5 -45q93 0 224 45l8 2q17 0 18 -24l6 -132q0 -14 -17 -22q-137 -55 -301 -55q-200 0 -309 112t-109 314q0 154 56 293q56 138 176 212q106 67 246 67q130 0 218 -70q89 -71 89 -196zM522 801
q-63 0 -116.5 -43t-85.5 -112q-29 -66 -40 -147q145 29 234 70q112 51 112 143q0 43 -28 66t-76 23zM224 1195q0 51 29 78t83 27q53 0 82.5 -27.5t29.5 -77.5q0 -49 -30 -77.5t-82 -28.5q-54 0 -83 28t-29 78zM599 1195q0 50 29 77.5t84 27.5q53 0 82 -27.5t29 -77.5
q0 -49 -29.5 -77.5t-81.5 -28.5q-54 0 -83.5 28.5t-29.5 77.5z" />
    <glyph glyph-name="igrave" unicode="&#xec;" horiz-adv-x="556" 
d="M374 159l113 -24q14 -3 14 -21l-7 -89q-3 -24 -28 -25l-304 -24q-12 0 -20 9t-8 23l68 774l-102 25q-15 3 -15 21l8 88q2 24 28 26l293 20q28 0 28 -33zM231 1107l-176 179q-33 34 -33 49q0 16 29 16h189q17 0 28 -7t25 -28l128 -189q10 -13 10 -21q0 -14 -26 -14h-140
q-21 0 -34 15z" />
    <glyph glyph-name="iacute" unicode="&#xed;" horiz-adv-x="646" 
d="M382 159l113 -24q14 -3 14 -21l-7 -89q-3 -24 -28 -25l-304 -24q-12 0 -20 9t-8 23l68 774l-102 25q-15 3 -15 21l8 88q2 24 28 26l293 20q28 0 28 -33zM624 1308l-233 -201q-16 -15 -38 -15h-140q-19 0 -19 14q0 8 10 21l162 189q19 22 30.5 28.5t29.5 6.5h187
q28 0 28 -12q0 -16 -17 -31z" />
    <glyph glyph-name="icircumflex" unicode="&#xee;" horiz-adv-x="678" 
d="M432 159l113 -24q14 -3 14 -21l-7 -89q-3 -24 -28 -25l-304 -24q-12 0 -20 9t-8 23l68 774l-102 25q-15 3 -15 21l8 88q2 24 28 26l293 20q28 0 28 -33zM503 1083l-126 126l-147 -126q-20 -15 -36 -15q-4 0 -17 3l-94 21q-19 4 -19 15q0 9 10 20l169 188q32 36 55 36h182
q24 0 51 -36l135 -188q9 -11 9 -19q0 -10 -24 -16l-97 -21q-15 -3 -18 -3q-18 0 -33 15z" />
    <glyph glyph-name="idieresis" unicode="&#xef;" horiz-adv-x="666" 
d="M425 159l113 -24q14 -3 14 -21l-7 -89q-3 -24 -28 -25l-304 -24q-12 0 -20 9t-8 23l68 774l-102 25q-15 3 -15 21l8 88q2 24 28 26l293 20q28 0 28 -33zM62 1195q0 51 29 78t83 27q53 0 82.5 -27.5t29.5 -77.5q0 -49 -30 -77.5t-82 -28.5q-54 0 -83 28t-29 78zM437 1195
q0 50 29 77.5t84 27.5q53 0 82 -27.5t29 -77.5q0 -49 -29.5 -77.5t-81.5 -28.5q-54 0 -83.5 28.5t-29.5 77.5z" />
    <glyph glyph-name="eth" unicode="&#xf0;" horiz-adv-x="1005" 
d="M827 1315l-133 -74q113 -134 176 -299q64 -162 64 -335q0 -254 -118 -438q-58 -91 -153 -143t-213 -52q-198 0 -296.5 120t-98.5 319q0 139 34.5 251t93.5 179q119 131 269 131q123 0 224 -83q-54 137 -156 254l-195 -108q-12 -6 -17 -6q-8 0 -16 14l-62 112q-3 6 -3 11
q0 8 13 17l148 82q-66 52 -139 86q-14 8 -14 19q0 10 4 17l71 114q13 21 26 21q4 0 10 -2q113 -57 223 -155l173 96q13 7 18 7q6 0 12 -11l64 -115q5 -12 5 -15q0 -6 -14 -14zM470 152q65 0 118.5 46.5t82.5 121.5q58 144 58 281q0 37 -4 86q-43 59 -101.5 88.5t-121.5 29.5
q-58 0 -101.5 -36t-67.5 -97q-43 -117 -43 -237q0 -123 49 -203q50 -80 131 -80z" />
    <glyph glyph-name="ntilde" unicode="&#xf1;" horiz-adv-x="1093" 
d="M986 692l-48 -548l93 -25q13 -6 13 -22l-6 -71q-2 -22 -26 -23l-288 -12q-10 0 -17 7t-7 19l53 602q2 32 2 35q0 136 -109 136q-54 0 -112 -32t-106 -88l-56 -640q-3 -30 -27 -30h-178q-22 0 -22 30l66 750l-102 25q-16 4 -16 21l8 93q2 24 29 26l267 17q25 0 27 -33
l7 -112q167 157 328 157q110 0 169.5 -63t59.5 -175q0 -3 -0.5 -8.5t-1 -16t-0.5 -19.5zM525 1337q45 0 95 -36q52 -35 79 -35q42 0 103 58q8 6 13 6q9 0 16 -9l61 -67q8 -11 8 -16q0 -4 -7 -15q-78 -132 -199 -132q-28 -1 -62.5 17.5t-64.5 36.5t-46 17q-21 0 -50.5 -16
t-52.5 -42q-6 -6 -12 -6q-8 0 -16 9l-61 67q-7 7 -7 15q0 4 5 16q35 63 86.5 97.5t111.5 34.5z" />
    <glyph glyph-name="ograve" unicode="&#xf2;" horiz-adv-x="1018" 
d="M65 432q0 118 28.5 215t85 171t149.5 115t215 41q124 0 221 -55q59 -33 98 -80q44 -51 70 -134.5t26 -187.5q0 -123 -28.5 -221t-86 -170t-150 -111t-213.5 -39q-205 0 -310 122t-105 334zM478 154q136 0 193 115q51 102 51 246q0 279 -181 279q-242 0 -242 -368
q0 -129 45.5 -200.5t133.5 -71.5zM490 1107l-176 179q-33 34 -33 49q0 16 29 16h189q17 0 28 -7t25 -28l128 -189q10 -13 10 -21q0 -14 -26 -14h-140q-22 0 -34 15z" />
    <glyph glyph-name="oacute" unicode="&#xf3;" horiz-adv-x="1018" 
d="M65 432q0 118 28.5 215t85 171t149.5 115t215 41q124 0 221 -55q59 -33 98 -80q44 -51 70 -134.5t26 -187.5q0 -123 -28.5 -221t-86 -170t-150 -111t-213.5 -39q-205 0 -310 122t-105 334zM478 154q136 0 193 115q51 102 51 246q0 279 -181 279q-242 0 -242 -368
q0 -129 45.5 -200.5t133.5 -71.5zM871 1308l-233 -201q-18 -15 -38 -15h-140q-19 0 -19 14q0 8 10 21l162 189q19 22 30.5 28.5t29.5 6.5h187q28 0 28 -12q0 -16 -17 -31z" />
    <glyph glyph-name="ocircumflex" unicode="&#xf4;" horiz-adv-x="1018" 
d="M65 432q0 118 28.5 215t85 171t149.5 115t215 41q124 0 221 -55q59 -33 98 -80q44 -51 70 -134.5t26 -187.5q0 -123 -28.5 -221t-86 -170t-150 -111t-213.5 -39q-205 0 -310 122t-105 334zM478 154q136 0 193 115q51 102 51 246q0 279 -181 279q-242 0 -242 -368
q0 -129 45.5 -200.5t133.5 -71.5zM703 1083l-126 126l-147 -126q-20 -15 -36 -15q-4 0 -17 3l-94 21q-19 4 -19 15q0 9 10 20l169 188q31 36 55 36h182q24 0 51 -36l135 -188q9 -11 9 -19q0 -10 -24 -16l-97 -21q-15 -3 -18 -3q-18 0 -33 15z" />
    <glyph glyph-name="otilde" unicode="&#xf5;" horiz-adv-x="1018" 
d="M65 432q0 118 28.5 215t85 171t149.5 115t215 41q124 0 221 -55q59 -33 98 -80q44 -51 70 -134.5t26 -187.5q0 -123 -28.5 -221t-86 -170t-150 -111t-213.5 -39q-205 0 -310 122t-105 334zM478 154q136 0 193 115q51 102 51 246q0 279 -181 279q-242 0 -242 -368
q0 -129 45.5 -200.5t133.5 -71.5zM477 1337q45 0 95 -36q52 -35 79 -35q42 0 103 58q8 6 13 6q9 0 16 -9l61 -67q8 -11 8 -16q0 -4 -7 -15q-78 -132 -199 -132q-28 -1 -62.5 17.5t-64.5 36.5t-46 17q-21 0 -50.5 -16t-52.5 -42q-6 -6 -12 -6q-8 0 -16 9l-61 67q-7 7 -7 15
q0 4 5 16q35 63 86.5 97.5t111.5 34.5z" />
    <glyph glyph-name="odieresis" unicode="&#xf6;" horiz-adv-x="1018" 
d="M65 432q0 118 28.5 215t85 171t149.5 115t215 41q124 0 221 -55q59 -33 98 -80q44 -51 70 -134.5t26 -187.5q0 -123 -28.5 -221t-86 -170t-150 -111t-213.5 -39q-205 0 -310 122t-105 334zM478 154q136 0 193 115q51 102 51 246q0 279 -181 279q-242 0 -242 -368
q0 -129 45.5 -200.5t133.5 -71.5zM254 1195q0 51 29 78t83 27q53 0 82.5 -27.5t29.5 -77.5q0 -49 -30 -77.5t-82 -28.5q-54 0 -83 28t-29 78zM629 1195q0 50 29 77.5t84 27.5q53 0 82 -27.5t29 -77.5q0 -49 -29.5 -77.5t-81.5 -28.5q-54 0 -83.5 28.5t-29.5 77.5z" />
    <glyph glyph-name="divide" unicode="&#xf7;" horiz-adv-x="961" 
d="M831 455h-698q-16 0 -21 4t-5 18v155q0 21 24 21h698q15 0 20 -4.5t5 -14.5v-159q0 -13 -4.5 -16.5t-18.5 -3.5zM478 103q-60 0 -97 36t-37 96q0 57 38 97q39 40 96 40t96 -40q39 -39 39 -97q0 -60 -37.5 -96t-97.5 -36zM478 734q-60 0 -97 36t-37 96q0 57 38 97
q39 40 96 40t96 -40q39 -39 39 -97q0 -60 -37.5 -96t-97.5 -36z" />
    <glyph glyph-name="oslash" unicode="&#xf8;" horiz-adv-x="1026" 
d="M65 432q0 118 28.5 215t85 171t149.5 115t215 41q115 0 206 -46l73 112q8 12 23 12h109q12 0 12 -9q0 -3 -6 -14l-113 -173q111 -118 111 -339q0 -123 -28.5 -221t-86 -170t-150 -111t-213.5 -39q-106 0 -187 34l-72 -110q-12 -19 -31 -19h-101q-14 0 -14 12q0 5 6 15
l110 168q-126 119 -126 356zM299 426q0 -92 22 -152l319 489q-40 31 -99 31q-242 0 -242 -368zM478 154q136 0 193 115q51 102 51 246q0 74 -14 130l-309 -472q34 -19 79 -19z" />
    <glyph glyph-name="ugrave" unicode="&#xf9;" horiz-adv-x="1070" 
d="M150 254l49 525l-101 25q-16 4 -16 21l8 92q2 24 28 26l293 20q12 0 19.5 -9.5t7.5 -23.5l-53 -603q-2 -32 -2 -35q0 -136 107 -136q109 0 215 112l57 651q1 31 26 31h179q21 0 21 -31l-68 -781l88 -22q13 -4 13 -22l-6 -71q-2 -22 -26 -23l-251 -13q-11 0 -15 4
q-6 6 -7 18l-14 113q-164 -150 -326 -150q-107 0 -167.5 67t-60.5 179q0 4 2 36zM551 1107l-176 179q-33 34 -33 49q0 16 29 16h189q17 0 28 -7t25 -28l128 -189q10 -13 10 -21q0 -14 -26 -14h-140q-21 0 -34 15z" />
    <glyph glyph-name="uacute" unicode="&#xfa;" horiz-adv-x="1070" 
d="M150 254l49 525l-101 25q-16 4 -16 21l8 92q2 24 28 26l293 20q12 0 19.5 -9.5t7.5 -23.5l-53 -603q-2 -32 -2 -35q0 -136 107 -136q109 0 215 112l57 651q1 31 26 31h179q21 0 21 -31l-68 -781l88 -22q13 -4 13 -22l-6 -71q-2 -22 -26 -23l-251 -13q-11 0 -15 4
q-6 6 -7 18l-14 113q-164 -150 -326 -150q-107 0 -167.5 67t-60.5 179q0 4 2 36zM913 1308l-233 -201q-18 -15 -38 -15h-140q-19 0 -19 14q0 8 10 21l162 189q19 22 30.5 28.5t29.5 6.5h187q28 0 28 -12q0 -16 -17 -31z" />
    <glyph glyph-name="ucircumflex" unicode="&#xfb;" horiz-adv-x="1070" 
d="M150 254l49 525l-101 25q-16 4 -16 21l8 92q2 24 28 26l293 20q12 0 19.5 -9.5t7.5 -23.5l-53 -603q-2 -32 -2 -35q0 -136 107 -136q109 0 215 112l57 651q1 31 26 31h179q21 0 21 -31l-68 -781l88 -22q13 -4 13 -22l-6 -71q-2 -22 -26 -23l-251 -13q-11 0 -15 4
q-6 6 -7 18l-14 113q-164 -150 -326 -150q-107 0 -167.5 67t-60.5 179q0 4 2 36zM737 1083l-126 126l-147 -126q-20 -15 -36 -15q-4 0 -17 3l-94 21q-19 4 -19 15q0 9 10 20l169 188q31 36 55 36h182q24 0 51 -36l135 -188q9 -11 9 -19q0 -10 -24 -16l-97 -21q-15 -3 -18 -3
q-18 0 -33 15z" />
    <glyph glyph-name="udieresis" unicode="&#xfc;" horiz-adv-x="1070" 
d="M150 254l49 525l-101 25q-16 4 -16 21l8 92q2 24 28 26l293 20q12 0 19.5 -9.5t7.5 -23.5l-53 -603q-2 -32 -2 -35q0 -136 107 -136q109 0 215 112l57 651q1 31 26 31h179q21 0 21 -31l-68 -781l88 -22q13 -4 13 -22l-6 -71q-2 -22 -26 -23l-251 -13q-11 0 -15 4
q-6 6 -7 18l-14 113q-164 -150 -326 -150q-107 0 -167.5 67t-60.5 179q0 4 2 36zM318 1195q0 51 29 78t83 27q53 0 82.5 -27.5t29.5 -77.5q0 -49 -30 -77.5t-82 -28.5q-54 0 -83 28t-29 78zM693 1195q0 50 29 77.5t84 27.5q53 0 82 -27.5t29 -77.5q0 -49 -29.5 -77.5
t-81.5 -28.5q-54 0 -83.5 28.5t-29.5 77.5z" />
    <glyph glyph-name="yacute" unicode="&#xfd;" horiz-adv-x="1071" 
d="M390 921l23 -209q23 -207 82 -479q4 -19 21 -31.5t40 -13.5q54 106 135 324q81 219 132 417q5 21 29 21h202q23 0 23 -20q0 -6 -3 -13q-113 -316 -291 -699q-93 -202 -187 -360q-95 -162 -164 -221q-101 -86 -247 -86q-66 0 -124 8q-18 5 -18 22l25 149q3 18 22 18h58
q68 0 102.5 8t58.5 29q55 48 147 215q-56 4 -90 31t-58 83q-37 91 -61 210q-33 160 -82 446l-114 27q-16 3 -16 21l8 88q2 23 29 26l287 29q27 0 31 -40zM913 1306l-233 -201q-18 -15 -38 -15h-140q-19 0 -19 14q0 8 10 21l162 189q19 22 30.5 28.5t29.5 6.5h187
q28 0 28 -12q0 -16 -17 -31z" />
    <glyph glyph-name="thorn" unicode="&#xfe;" horiz-adv-x="1090" 
d="M537 162q71 0 126 33t87 88.5t48.5 121.5t16.5 138q0 50 -9.5 94t-30.5 82.5t-59 60.5t-90 22q-118 0 -193 -31l-51 -588q55 -21 155 -21zM434 924q135 52 274 52q179 0 260 -122q73 -109 73 -284q0 -271 -140 -435q-139 -163 -359 -163q-90 0 -181 21q0 -42 -8 -138
l-22 -249q-3 -30 -28 -30h-178q-21 0 -21 24l141 1617l-102 24q-16 3 -16 22l8 88q2 23 29 25l283 17q33 0 33 -26l-31 -345q-4 -57 -15 -98z" />
    <glyph glyph-name="ydieresis" unicode="&#xff;" horiz-adv-x="1071" 
d="M390 921l23 -209q23 -207 82 -479q4 -19 21 -31.5t40 -13.5q54 106 135 324q81 219 132 417q5 21 29 21h202q23 0 23 -20q0 -6 -3 -13q-113 -316 -291 -699q-93 -202 -187 -360q-95 -162 -164 -221q-101 -86 -247 -86q-66 0 -124 8q-18 5 -18 22l25 149q3 18 22 18h58
q68 0 102.5 8t58.5 29q55 48 147 215q-56 4 -90 31t-58 83q-37 91 -61 210q-33 160 -82 446l-114 27q-16 3 -16 21l8 88q2 23 29 26l287 29q27 0 31 -40zM329 1195q0 51 29 78t83 27q53 0 82.5 -27.5t29.5 -77.5q0 -49 -30 -77.5t-82 -28.5q-54 0 -83 28t-29 78zM704 1195
q0 50 29 77.5t84 27.5q53 0 82 -27.5t29 -77.5q0 -49 -29.5 -77.5t-81.5 -28.5q-54 0 -83.5 28.5t-29.5 77.5z" />
    <glyph glyph-name="Amacron" unicode="&#x100;" horiz-adv-x="1156" 
d="M630 1027l-166 -451l-25 -69h320l-5 33q-15 92 -86 487q-7 41 -9 69l-1 12h-4q-9 -38 -24 -81zM450 1098l-106 37q-18 7 -18 26l9 104q2 20 26 20h453q17 0 20 -14l262 -1249q1 -3 1 -9q0 -13 -14 -13h-207q-21 0 -24 19l-58 294h-423l-111 -294q-7 -19 -25 -19h-207
q-14 0 -14 13q0 3 3 9zM407 1439l10 117q3 26 29 26h364q27 0 27 -24l-10 -116q-3 -26 -29 -26h-364q-27 0 -27 23z" />
    <glyph glyph-name="amacron" unicode="&#x101;" horiz-adv-x="1023" 
d="M566 776q-95 0 -160.5 -49t-93.5 -130q-26 -78 -26 -177q0 -101 38 -180q21 -43 60 -67.5t92 -24.5q39 0 89.5 25t96.5 65l46 517q-74 21 -142 21zM674 10l-5 106q-68 -70 -143 -105t-140 -35q-177 0 -255 127q-71 116 -71 292q0 261 133 419q133 160 361 160
q168 0 356 -60q25 -8 25 -21l-65 -753l93 -23q11 -3 11 -21l-6 -69q-1 -23 -25 -25l-245 -12q-8 0 -14 2q-10 4 -10 18zM382 1115l10 117q3 26 29 26h364q27 0 27 -24l-10 -116q-3 -26 -29 -26h-364q-27 0 -27 23z" />
    <glyph glyph-name="Abreve" unicode="&#x102;" horiz-adv-x="1156" 
d="M630 1027l-166 -451l-25 -69h320l-5 33q-15 92 -86 487q-7 41 -9 69l-1 12h-4q-9 -38 -24 -81zM450 1098l-106 37q-18 7 -18 26l9 104q2 20 26 20h453q17 0 20 -14l262 -1249q1 -3 1 -9q0 -13 -14 -13h-207q-21 0 -24 19l-58 294h-423l-111 -294q-7 -19 -25 -19h-207
q-14 0 -14 13q0 3 3 9zM609 1380q-95 0 -159 49q-62 49 -85 120q-9 29 -9 49q0 11 14 16l102 29q11 3 16 3q10 0 14 -15q7 -33 37 -69q30 -33 76 -33q42 0 74 28.5t52 70.5q7 16 13 16q4 0 7 -1l107 -32q10 -3 10 -9q0 -7 -4 -19q-24 -95 -91 -149t-174 -54z" />
    <glyph glyph-name="abreve" unicode="&#x103;" horiz-adv-x="1023" 
d="M566 776q-95 0 -160.5 -49t-93.5 -130q-26 -78 -26 -177q0 -101 38 -180q21 -43 60 -67.5t92 -24.5q39 0 89.5 25t96.5 65l46 517q-74 21 -142 21zM674 10l-5 106q-68 -70 -143 -105t-140 -35q-177 0 -255 127q-71 116 -71 292q0 261 133 419q133 160 361 160
q168 0 356 -60q25 -8 25 -21l-65 -753l93 -23q11 -3 11 -21l-6 -69q-1 -23 -25 -25l-245 -12q-8 0 -14 2q-10 4 -10 18zM561 1080q-95 0 -159 49q-62 49 -85 120q-9 29 -9 49q0 11 14 16l102 29q10 3 16 3q10 0 14 -15q7 -33 37 -69q30 -33 76 -33q42 0 74 28.5t52 70.5
q7 16 13 16q4 0 7 -1l107 -32q10 -3 10 -9q0 -7 -4 -19q-24 -95 -91 -149t-174 -54z" />
    <glyph glyph-name="Aogonek" unicode="&#x104;" horiz-adv-x="1156" 
d="M1067 -366q-112 -62 -225 -62q-82 0 -137 39t-55 117q0 79 47 149.5t142 152.5l9 8l-54 275h-424l-110 -294q-7 -19 -25 -19h-207q-12 0 -12 17q0 4 1 5l430 1076l-106 37q-18 6 -18 21l9 109q2 20 26 20h453q17 0 20 -14l265 -1249q1 -1 1 -5q-2 -17 -14 -17h-102l-6 -5
q-56 -47 -87 -102t-31 -99q0 -37 17.5 -58t50.5 -21q17 0 84 19q2 0 8.5 2t7.5 2q11 0 15 -9l35 -71q3 -6 3 -10q-1 -9 -11 -14zM628 1027l-165 -451l-25 -69h320l-5 33q-34 198 -88 487q-6 32 -8 73l-1 13h-4q-11 -50 -24 -86z" />
    <glyph glyph-name="aogonek" unicode="&#x105;" horiz-adv-x="1023" 
d="M669 116q-68 -70 -143 -105t-140 -35q-177 0 -255 127q-71 116 -71 292q0 261 133 419q133 160 361 160q168 0 356 -60q25 -8 25 -21l-65 -753l93 -23q11 -3 11 -21l-6 -69q-1 -23 -25 -25l-96 -4q-60 -47 -92 -102.5t-32 -108.5q0 -33 17.5 -52.5t50.5 -19.5q14 0 49 11
q36 11 51 11q11 0 16 -11l35 -71q2 -6 2 -8q-1 -8 -10 -13q-112 -62 -226 -62q-82 0 -137 39t-55 118q0 71 39.5 135t119.5 138v4zM566 776q-95 0 -160.5 -49t-93.5 -130q-26 -78 -26 -177q0 -101 38 -180q21 -43 60 -67.5t92 -24.5q39 0 89.5 25t96.5 65l46 517
q-74 21 -142 21z" />
    <glyph glyph-name="Cacute" unicode="&#x106;" horiz-adv-x="1069" 
d="M880 988l-22 114q-64 21 -121 21q-108 0 -193 -42.5t-137 -118.5q-103 -150 -103 -368q0 -198 87 -313t258 -115q50 0 104 10q64 11 92 20l34 10q16 4 20 4q14 0 18 -19l29 -118q1 -3 1 -11q-1 -15 -21 -26q-17 -9 -43 -19q-29 -11 -106 -27q-74 -16 -160 -16
q-266 0 -412 158q-145 158 -145 441q0 338 178 537q178 201 489 201q155 0 304 -58q22 -7 22 -27l-30 -235q-3 -21 -23 -21h-102q-9 0 -12.5 4t-5.5 14zM957 1627l-233 -201q-18 -15 -38 -15h-140q-19 0 -19 14q0 8 10 21l162 189q19 22 30.5 28.5t29.5 6.5h187q28 0 28 -12
q0 -16 -17 -31z" />
    <glyph glyph-name="cacute" unicode="&#x107;" horiz-adv-x="892" 
d="M696 667l-16 108q-46 13 -119 13q-132 0 -196 -94q-65 -95 -65 -238q0 -115 59 -206q59 -90 158 -90q102 0 228 39q17 5 21 5q13 0 15 -14l10 -142q0 -15 -14 -23q-6 -2 -40 -14q-27 -8 -98 -21q-75 -14 -139 -14q-208 0 -322 124q-113 125 -113 335q0 224 125 377
q63 76 161 118.5t218 42.5q137 0 256 -45q14 -6 14 -16l-1 -10l-30 -227q-2 -20 -22 -20h-69q-19 0 -21 12zM837 1308l-233 -201q-18 -15 -38 -15h-140q-19 0 -19 14q0 8 10 21l162 189q19 22 30.5 28.5t29.5 6.5h187q28 0 28 -12q0 -16 -17 -31z" />
    <glyph glyph-name="Ccircumflex" unicode="&#x108;" horiz-adv-x="1069" 
d="M880 988l-22 114q-64 21 -121 21q-108 0 -193 -42.5t-137 -118.5q-103 -150 -103 -368q0 -198 87 -313t258 -115q50 0 104 10q64 11 92 20l34 10q16 4 20 4q14 0 18 -19l29 -118q1 -3 1 -11q-1 -15 -21 -26q-17 -9 -43 -19q-29 -11 -106 -27q-74 -16 -160 -16
q-266 0 -412 158q-145 158 -145 441q0 338 178 537q178 201 489 201q155 0 304 -58q22 -7 22 -27l-30 -235q-3 -21 -23 -21h-102q-9 0 -12.5 4t-5.5 14zM773 1406l-126 126l-147 -126q-20 -15 -36 -15q-4 0 -17 3l-94 21q-19 4 -19 15q0 9 10 20l169 188q31 36 55 36h182
q24 0 51 -36l135 -188q9 -10 9 -19q0 -10 -24 -16l-97 -21q-15 -3 -18 -3q-18 0 -33 15z" />
    <glyph glyph-name="ccircumflex" unicode="&#x109;" horiz-adv-x="877" 
d="M696 667l-16 108q-46 13 -119 13q-132 0 -196 -94q-65 -95 -65 -238q0 -115 59 -206q59 -90 158 -90q102 0 228 39q17 5 21 5q13 0 15 -14l10 -142q0 -15 -14 -23q-6 -2 -40 -14q-27 -8 -98 -21q-75 -14 -139 -14q-208 0 -322 124q-113 125 -113 335q0 224 125 377
q63 76 161 118.5t218 42.5q137 0 256 -45q14 -6 14 -16l-1 -10l-30 -227q-2 -20 -22 -20h-69q-19 0 -21 12zM667 1083l-126 126l-147 -126q-20 -15 -36 -15q-4 0 -17 3l-94 21q-19 4 -19 15q0 9 10 20l169 188q31 36 55 36h182q24 0 51 -36l135 -188q9 -11 9 -19
q0 -10 -24 -16l-97 -21q-15 -3 -18 -3q-18 0 -33 15z" />
    <glyph glyph-name="Cdotaccent" unicode="&#x10a;" horiz-adv-x="1069" 
d="M880 988l-22 114q-64 21 -121 21q-108 0 -193 -42.5t-137 -118.5q-103 -150 -103 -368q0 -198 87 -313t258 -115q50 0 104 10q64 11 92 20l34 10q16 4 20 4q14 0 18 -19l29 -118q1 -3 1 -11q-1 -15 -21 -26q-17 -9 -43 -19q-29 -11 -106 -27q-74 -16 -160 -16
q-266 0 -412 158q-145 158 -145 441q0 338 178 537q178 201 489 201q155 0 304 -58q22 -7 22 -27l-30 -235q-3 -21 -23 -21h-102q-9 0 -12.5 4t-5.5 14zM694 1655q60 0 94 -32.5t34 -89.5t-34 -89.5t-94 -32.5t-93.5 32.5t-33.5 89.5t33.5 89.5t93.5 32.5z" />
    <glyph glyph-name="cdotaccent" unicode="&#x10b;" horiz-adv-x="877" 
d="M696 667l-16 108q-46 13 -119 13q-132 0 -196 -94q-65 -95 -65 -238q0 -115 59 -206q59 -90 158 -90q102 0 228 39q17 5 21 5q13 0 15 -14l10 -142q0 -15 -14 -23q-6 -2 -40 -14q-27 -8 -98 -21q-75 -14 -139 -14q-208 0 -322 124q-113 125 -113 335q0 224 125 377
q63 76 161 118.5t218 42.5q137 0 256 -45q14 -6 14 -16l-1 -10l-30 -227q-2 -20 -22 -20h-69q-19 0 -21 12zM576 1321q60 0 94 -32.5t34 -89.5t-34 -89.5t-94 -32.5t-93.5 32.5t-33.5 89.5t33.5 89.5t93.5 32.5z" />
    <glyph glyph-name="Ccaron" unicode="&#x10c;" horiz-adv-x="1069" 
d="M880 988l-22 114q-64 21 -121 21q-108 0 -193 -42.5t-137 -118.5q-103 -150 -103 -368q0 -198 87 -313t258 -115q50 0 104 10q64 11 92 20l34 10q16 4 20 4q14 0 18 -19l29 -118q1 -3 1 -11q-1 -15 -21 -26q-17 -9 -43 -19q-29 -11 -106 -27q-74 -16 -160 -16
q-266 0 -412 158q-145 158 -145 441q0 338 178 537q178 201 489 201q155 0 304 -58q22 -7 22 -27l-30 -235q-3 -21 -23 -21h-102q-9 0 -12.5 4t-5.5 14zM573 1679l116 -126l157 126q20 15 36 15q4 0 17 -3l94 -21q19 -4 19 -16q0 -8 -10 -19l-173 -193q-27 -31 -51 -31h-184
q-25 0 -49 36l-135 188q-6 7 -6 19q2 12 21 16l97 21q15 3 20 3q16 0 31 -15z" />
    <glyph glyph-name="ccaron" unicode="&#x10d;" horiz-adv-x="894" 
d="M696 667l-16 108q-46 13 -119 13q-132 0 -196 -94q-65 -95 -65 -238q0 -115 59 -206q59 -90 158 -90q102 0 228 39q17 5 21 5q13 0 15 -14l10 -142q0 -15 -14 -23q-6 -2 -40 -14q-27 -8 -98 -21q-75 -14 -139 -14q-208 0 -322 124q-113 125 -113 335q0 224 125 377
q63 76 161 118.5t218 42.5q137 0 256 -45q14 -6 14 -16l-1 -10l-30 -227q-2 -20 -22 -20h-69q-19 0 -21 12zM417 1359l116 -126l157 126q20 15 36 15q4 0 17 -3l94 -21q19 -4 19 -16q0 -8 -10 -19l-173 -193q-27 -31 -51 -31h-184q-25 0 -49 36l-135 188q-6 7 -6 19
q2 12 21 16l97 21q15 3 20 3q16 0 31 -15z" />
    <glyph glyph-name="Dcaron" unicode="&#x10e;" horiz-adv-x="1217" 
d="M437 1099l-81 -921q31 -4 96 -4q111 0 200 43.5t143 120.5q109 156 109 383q0 82 -19.5 148t-61 119t-114 82t-171.5 29h-101zM117 1285q97 0 173 1q154 2 155 2h72q213 0 330 -52q145 -63 222 -198.5t77 -327.5q0 -342 -180 -534q-178 -192 -500 -192q-184 0 -304 9
q-17 1 -26 3t-16.5 10.5t-7.5 23.5l94 1068l-107 37q-17 6 -17 26l9 104q2 20 26 20zM439 1679l116 -126l157 126q20 15 36 15q4 0 17 -3l94 -21q19 -4 19 -16q0 -8 -10 -19l-173 -193q-27 -31 -51 -31h-184q-25 0 -49 36l-135 188q-6 7 -6 19q2 12 21 16l97 21q15 3 20 3
q16 0 31 -15z" />
    <glyph glyph-name="dcaron" unicode="&#x10f;" horiz-adv-x="1336" 
d="M564 783q-281 0 -281 -367q0 -47 10.5 -92.5t31 -86t57.5 -65t84 -24.5q52 0 109 27.5t104 74.5l45 513q-63 20 -160 20zM746 1014l21 235l-102 25q-15 3 -15 21l7 88q2 24 28 26l296 20q25 0 25 -26l-111 -1267l83 -20q13 -4 13 -22l-6 -71q-2 -22 -26 -23l-251 -13
q-9 0 -13 2q-5 3 -8 20l-15 85q-139 -118 -295 -118q-67 0 -121 23.5t-90 63t-60.5 93.5t-35 112.5t-10.5 122.5q0 93 17 176t55.5 158.5t95.5 130t141.5 86.5t189.5 32q91 0 188 -17q0 3 -0.5 24.5t-0.5 32.5zM1356 1384l-141 -299q-9 -20 -25 -20h-113q-13 0 -13 12
l78 317q6 26 28 26h174q20 0 20 -8q0 -9 -8 -28z" />
    <glyph glyph-name="Dcroat" unicode="&#x110;" horiz-adv-x="1267" 
d="M167 1285q97 0 173 1q154 2 155 2h72q213 0 330 -52q145 -63 222 -198.5t77 -327.5q0 -342 -180 -534q-178 -192 -500 -192q-184 0 -304 9q-17 1 -26 3t-16.5 10.5t-7.5 23.5l47 541h-105q-22 0 -22 21l12 130q2 20 23 20h107l32 356l-107 37q-17 8 -17 26l9 104
q2 20 26 20zM487 1099l-32 -357h160q15 0 19 -3.5t4 -14.5l-12 -132q-1 -14 -5.5 -17.5t-18.5 -3.5h-162l-34 -393q31 -4 96 -4q111 0 200 43.5t143 120.5q109 156 109 383q0 82 -19.5 148t-61 119t-114 82t-171.5 29h-101z" />
    <glyph glyph-name="dslash" unicode="&#x111;" horiz-adv-x="1180" 
d="M590 1197h497q22 0 22 -10q0 -8 -1 -15l-10 -118q-1 -11 -5 -13.5t-18 -2.5h-503q-16 0 -16 12l11 130q2 17 23 17zM564 783q-281 0 -281 -367q0 -47 10.5 -92.5t31 -86t57.5 -65t84 -24.5q52 0 109 27.5t104 74.5l45 513q-63 20 -160 20zM746 1014l21 235l-102 25
q-15 3 -15 21l7 88q2 24 28 26l296 20q25 0 25 -26l-111 -1267l83 -20q13 -4 13 -22l-6 -71q-2 -22 -26 -23l-251 -13q-9 0 -13 2q-5 3 -8 20l-15 85q-139 -118 -295 -118q-67 0 -121 23.5t-90 63t-60.5 93.5t-35 112.5t-10.5 122.5q0 93 17 176t55.5 158.5t95.5 130
t141.5 86.5t189.5 32q91 0 188 -17q0 3 -0.5 24.5t-0.5 32.5z" />
    <glyph glyph-name="Emacron" unicode="&#x112;" horiz-adv-x="999" 
d="M747 595h-354l-35 -396h497q21 0 21 -16l-13 -153q-3 -30 -25 -30h-705q-21 0 -21 30l94 1068l-107 37q-17 5 -17 26l9 104q2 20 26 20h824q31 0 31 -28l-11 -139q-3 -32 -37 -32h-488l-26 -292h354q30 0 30 -35l-11 -130q-4 -34 -36 -34zM350 1439l10 117q3 26 29 26
h364q27 0 27 -24l-10 -116q-3 -26 -29 -26h-364q-27 0 -27 23z" />
    <glyph glyph-name="emacron" unicode="&#x113;" horiz-adv-x="889" 
d="M840 708q0 -143 -156 -245q-155 -101 -403 -119q16 -92 77.5 -137t176.5 -45q93 0 224 45l8 2q17 0 18 -24l6 -132q0 -14 -17 -22q-137 -55 -301 -55q-200 0 -309 112t-109 314q0 154 56 293q56 138 176 212q106 67 246 67q130 0 218 -70q89 -71 89 -196zM522 801
q-63 0 -116.5 -43t-85.5 -112q-29 -66 -40 -147q145 29 234 70q112 51 112 143q0 43 -28 66t-76 23zM325 1115l10 117q3 26 29 26h364q27 0 27 -24l-10 -116q-3 -26 -29 -26h-364q-27 0 -27 23z" />
    <glyph glyph-name="Ebreve" unicode="&#x114;" horiz-adv-x="999" 
d="M747 595h-354l-35 -396h497q21 0 21 -16l-13 -153q-3 -30 -25 -30h-705q-21 0 -21 30l94 1068l-107 37q-17 5 -17 26l9 104q2 20 26 20h824q31 0 31 -28l-11 -139q-3 -32 -37 -32h-488l-26 -292h354q30 0 30 -35l-11 -130q-4 -34 -36 -34zM562 1380q-95 0 -159 49
q-62 49 -85 120q-9 29 -9 49q0 11 14 16l102 29q10 3 16 3q9 0 14 -15q7 -33 37 -69q30 -33 76 -33q42 0 74 28.5t52 70.5q7 16 13 16q4 0 7 -1l107 -32q10 -3 10 -9q0 -7 -4 -19q-24 -95 -91 -149t-174 -54z" />
    <glyph glyph-name="ebreve" unicode="&#x115;" horiz-adv-x="889" 
d="M840 708q0 -143 -156 -245q-155 -101 -403 -119q16 -92 77.5 -137t176.5 -45q93 0 224 45l8 2q17 0 18 -24l6 -132q0 -14 -17 -22q-137 -55 -301 -55q-200 0 -309 112t-109 314q0 154 56 293q56 138 176 212q106 67 246 67q130 0 218 -70q89 -71 89 -196zM522 801
q-63 0 -116.5 -43t-85.5 -112q-29 -66 -40 -147q145 29 234 70q112 51 112 143q0 43 -28 66t-76 23zM531 1080q-95 0 -159 49q-62 49 -85 120q-9 29 -9 49q0 11 14 16l102 29q11 3 16 3q10 0 14 -15q7 -33 37 -69q30 -33 76 -33q42 0 74 28.5t52 70.5q7 16 13 16q4 0 7 -1
l107 -32q10 -3 10 -9q0 -7 -4 -19q-24 -95 -91 -149t-174 -54z" />
    <glyph glyph-name="Edotaccent" unicode="&#x116;" horiz-adv-x="999" 
d="M747 595h-354l-35 -396h497q21 0 21 -16l-13 -153q-3 -30 -25 -30h-705q-21 0 -21 30l94 1068l-107 37q-17 5 -17 26l9 104q2 20 26 20h824q31 0 31 -28l-11 -139q-3 -32 -37 -32h-488l-26 -292h354q30 0 30 -35l-11 -130q-4 -34 -36 -34zM572 1655q60 0 94 -32.5
t34 -89.5t-34 -89.5t-94 -32.5t-93.5 32.5t-33.5 89.5t33.5 89.5t93.5 32.5z" />
    <glyph glyph-name="edotaccent" unicode="&#x117;" horiz-adv-x="889" 
d="M840 708q0 -143 -156 -245q-155 -101 -403 -119q16 -92 77.5 -137t176.5 -45q93 0 224 45l8 2q17 0 18 -24l6 -132q0 -14 -17 -22q-137 -55 -301 -55q-200 0 -309 112t-109 314q0 154 56 293q56 138 176 212q106 67 246 67q130 0 218 -70q89 -71 89 -196zM522 801
q-63 0 -116.5 -43t-85.5 -112q-29 -66 -40 -147q145 29 234 70q112 51 112 143q0 43 -28 66t-76 23zM533 1321q60 0 94 -32.5t34 -89.5t-34 -89.5t-94 -32.5t-93.5 32.5t-33.5 89.5t33.5 89.5t93.5 32.5z" />
    <glyph glyph-name="Eogonek" unicode="&#x118;" horiz-adv-x="999" 
d="M747 595h-354l-35 -396h497q21 0 21 -16l-13 -153q-3 -30 -25 -30h-102l-6 -5q-56 -47 -87 -102t-31 -99q0 -37 17.5 -58t50.5 -21q17 0 84 19q2 0 8 2t8 2q10 0 15 -9l35 -71q3 -6 3 -10q-1 -9 -11 -14q-129 -62 -225 -62q-81 0 -137 39q-55 39 -55 117q0 71 38.5 134
t117.5 138h-428q-21 0 -21 30l94 1068l-107 37q-17 6 -17 27l9 103q2 20 26 20h824q31 0 31 -28l-11 -139q-3 -32 -37 -32h-488l-26 -292h354q30 0 30 -35l-11 -130q-4 -34 -36 -34z" />
    <glyph glyph-name="eogonek" unicode="&#x119;" horiz-adv-x="889" 
d="M840 708q0 -143 -156 -245q-155 -101 -403 -119q16 -92 77.5 -137t176.5 -45q93 0 224 45q8 2 9 2q16 0 17 -24l6 -132q0 -14 -17 -22q-61 -24 -120 -35q-59 -47 -90 -102t-31 -107q0 -33 17.5 -52.5t50.5 -19.5q16 0 54.5 12t43.5 13q11 0 14 -6l39 -79q2 -6 2 -9
q-2 -8 -10 -12q-112 -62 -226 -62q-82 0 -137 39t-55 118q0 118 132 248q-194 4 -298.5 115t-104.5 310q0 154 56 293q56 138 176 212q106 67 246 67q130 0 218 -70q89 -71 89 -196zM522 801q-63 0 -116.5 -43t-85.5 -112q-29 -66 -40 -147q145 29 234 70q112 51 112 143
q0 43 -28 66t-76 23z" />
    <glyph glyph-name="Ecaron" unicode="&#x11a;" horiz-adv-x="999" 
d="M747 595h-354l-35 -396h497q21 0 21 -16l-13 -153q-3 -30 -25 -30h-705q-21 0 -21 30l94 1068l-107 37q-17 5 -17 26l9 104q2 20 26 20h824q31 0 31 -28l-11 -139q-3 -32 -37 -32h-488l-26 -292h354q30 0 30 -35l-11 -130q-4 -34 -36 -34zM451 1678l116 -126l157 126
q20 15 36 15q4 0 17 -3l94 -21q19 -4 19 -16q0 -8 -10 -19l-173 -193q-27 -31 -51 -31h-184q-25 0 -49 36l-135 188q-6 8 -6 19q2 12 21 16l97 21q15 3 20 3q16 0 31 -15z" />
    <glyph glyph-name="ecaron" unicode="&#x11b;" horiz-adv-x="905" 
d="M840 708q0 -143 -156 -245q-155 -101 -403 -119q16 -92 77.5 -137t176.5 -45q93 0 224 45l8 2q17 0 18 -24l6 -132q0 -14 -17 -22q-137 -55 -301 -55q-200 0 -309 112t-109 314q0 154 56 293q56 138 176 212q106 67 246 67q130 0 218 -70q89 -71 89 -196zM522 801
q-63 0 -116.5 -43t-85.5 -112q-29 -66 -40 -147q145 29 234 70q112 51 112 143q0 43 -28 66t-76 23zM417 1359l116 -126l157 126q20 15 36 15q4 0 17 -3l94 -21q19 -4 19 -16q0 -8 -10 -19l-173 -193q-27 -31 -51 -31h-184q-25 0 -49 36l-135 188q-6 7 -6 19q2 12 21 16
l97 21q15 3 20 3q16 0 31 -15z" />
    <glyph glyph-name="Gcircumflex" unicode="&#x11c;" horiz-adv-x="1202" 
d="M681 656h368q16 0 16 -15l-49 -550q-1 -17 -10 -26.5t-31 -19.5q-5 -3 -49 -20q-34 -12 -129 -30q-92 -19 -193 -19q-257 0 -401 162q-143 163 -143 442q0 241 102.5 418.5t296.5 257.5q132 55 301 55q168 0 314 -58q23 -11 23 -32l-31 -230q-3 -21 -23 -21h-101
q-15 0 -19 18l-22 114q-72 23 -153 23q-110 0 -196 -41.5t-139 -114t-80.5 -166t-27.5 -202.5q0 -199 82 -317t248 -118q81 0 177 19l25 286h-172q-30 0 -30 31l9 119q1 15 11.5 25t25.5 10zM796 1405l-126 126l-147 -126q-19 -15 -36 -15q-3 0 -17 3l-94 21q-19 4 -19 15
q0 9 10 20l169 188q32 36 55 36h182q24 0 51 -36l135 -188q9 -11 9 -19q0 -10 -24 -16l-97 -21q-15 -3 -18 -3q-18 0 -33 15z" />
    <glyph glyph-name="gcircumflex" unicode="&#x11d;" horiz-adv-x="988" 
d="M560 776q-95 0 -160.5 -49t-93.5 -130q-26 -78 -26 -177q0 -101 38 -180q21 -43 60 -67.5t92 -24.5q98 0 186 90l46 517q-74 21 -142 21zM928 881l-68 -767q-13 -153 -42 -254q-33 -116 -103 -189q-109 -120 -354 -120q-175 0 -285 49q-13 7 -13 20l14 161q1 15 17 15
q2 0 8 -2q108 -48 233 -48q167 0 229 68q33 35 49.5 81t22.5 119l5 61q-71 -54 -131 -76.5t-130 -22.5q-177 0 -255 125q-70 115 -70 290q0 262 133 422q134 161 360 161q150 0 354 -59q26 -9 26 -34zM713 1083l-126 126l-147 -126q-20 -15 -36 -15q-4 0 -17 3l-94 21
q-19 4 -19 15q0 9 10 20l169 188q31 36 55 36h182q24 0 51 -36l135 -188q9 -11 9 -19q0 -10 -24 -16l-97 -21q-15 -3 -18 -3q-18 0 -33 15z" />
    <glyph glyph-name="Gbreve" unicode="&#x11e;" horiz-adv-x="1202" 
d="M681 656h368q16 0 16 -15l-49 -550q-1 -17 -10 -26.5t-31 -19.5q-5 -3 -49 -20q-34 -12 -129 -30q-92 -19 -193 -19q-257 0 -401 162q-143 163 -143 442q0 241 102.5 418.5t296.5 257.5q132 55 301 55q168 0 314 -58q23 -11 23 -32l-31 -230q-3 -21 -23 -21h-101
q-15 0 -19 18l-22 114q-72 23 -153 23q-110 0 -196 -41.5t-139 -114t-80.5 -166t-27.5 -202.5q0 -199 82 -317t248 -118q81 0 177 19l25 286h-172q-30 0 -30 31l9 119q1 15 11.5 25t25.5 10zM684 1381q-95 0 -159 49q-62 49 -85 120q-9 28 -9 49q0 13 14 16l102 29
q10 3 16 3q9 0 14 -15q7 -33 37 -69q30 -33 76 -33q42 0 74 28.5t52 70.5q7 16 13 16q4 0 7 -1l107 -32q10 -3 10 -9q0 -7 -4 -19q-24 -95 -91 -149t-174 -54z" />
    <glyph glyph-name="gbreve" unicode="&#x11f;" horiz-adv-x="988" 
d="M560 776q-95 0 -160.5 -49t-93.5 -130q-26 -78 -26 -177q0 -101 38 -180q21 -43 60 -67.5t92 -24.5q98 0 186 90l46 517q-74 21 -142 21zM928 881l-68 -767q-13 -153 -42 -254q-33 -116 -103 -189q-109 -120 -354 -120q-175 0 -285 49q-13 7 -13 20l14 161q1 15 17 15
q2 0 8 -2q108 -48 233 -48q167 0 229 68q33 35 49.5 81t22.5 119l5 61q-71 -54 -131 -76.5t-130 -22.5q-177 0 -255 125q-70 115 -70 290q0 262 133 422q134 161 360 161q150 0 354 -59q26 -9 26 -34zM591 1080q-95 0 -159 49q-62 49 -85 120q-9 29 -9 49q0 11 14 16l102 29
q11 3 16 3q10 0 14 -15q7 -33 37 -69q30 -33 76 -33q42 0 74 28.5t52 70.5q7 16 13 16q4 0 7 -1l107 -32q10 -3 10 -9q0 -7 -4 -19q-24 -95 -91 -149t-174 -54z" />
    <glyph glyph-name="Gdotaccent" unicode="&#x120;" horiz-adv-x="1202" 
d="M681 656h368q16 0 16 -15l-49 -550q-1 -17 -10 -26.5t-31 -19.5q-5 -3 -49 -20q-34 -12 -129 -30q-92 -19 -193 -19q-257 0 -401 162q-143 163 -143 442q0 241 102.5 418.5t296.5 257.5q132 55 301 55q168 0 314 -58q23 -11 23 -32l-31 -230q-3 -21 -23 -21h-101
q-15 0 -19 18l-22 114q-72 23 -153 23q-110 0 -196 -41.5t-139 -114t-80.5 -166t-27.5 -202.5q0 -199 82 -317t248 -118q81 0 177 19l25 286h-172q-30 0 -30 31l9 119q1 15 11.5 25t25.5 10zM742 1655q60 0 94 -32.5t34 -89.5t-34 -89.5t-94 -32.5t-93.5 32.5t-33.5 89.5
t33.5 89.5t93.5 32.5z" />
    <glyph glyph-name="gdotaccent" unicode="&#x121;" horiz-adv-x="988" 
d="M560 776q-95 0 -160.5 -49t-93.5 -130q-26 -78 -26 -177q0 -101 38 -180q21 -43 60 -67.5t92 -24.5q98 0 186 90l46 517q-74 21 -142 21zM928 881l-68 -767q-13 -153 -42 -254q-33 -116 -103 -189q-109 -120 -354 -120q-175 0 -285 49q-13 7 -13 20l14 161q1 15 17 15
q2 0 8 -2q108 -48 233 -48q167 0 229 68q33 35 49.5 81t22.5 119l5 61q-71 -54 -131 -76.5t-130 -22.5q-177 0 -255 125q-70 115 -70 290q0 262 133 422q134 161 360 161q150 0 354 -59q26 -9 26 -34zM589 1321q60 0 94 -32.5t34 -89.5t-34 -89.5t-94 -32.5t-93.5 32.5
t-33.5 89.5t33.5 89.5t93.5 32.5z" />
    <glyph glyph-name="Gcommaaccent" unicode="&#x122;" horiz-adv-x="1202" 
d="M681 656h368q16 0 16 -15l-49 -550q-1 -17 -10 -26.5t-31 -19.5q-5 -3 -49 -20q-34 -12 -129 -30q-92 -19 -193 -19q-257 0 -401 162q-143 163 -143 442q0 241 102.5 418.5t296.5 257.5q132 55 301 55q168 0 314 -58q23 -11 23 -32l-31 -230q-3 -21 -23 -21h-101
q-15 0 -19 18l-22 114q-72 23 -153 23q-110 0 -196 -41.5t-139 -114t-80.5 -166t-27.5 -202.5q0 -199 82 -317t248 -118q81 0 177 19l25 286h-172q-30 0 -30 31l9 119q1 15 11.5 25t25.5 10zM713 -128l-141 -299q-9 -20 -25 -20h-113q-13 0 -13 12l78 317q6 26 28 26h174
q20 0 20 -8q0 -9 -8 -28z" />
    <glyph glyph-name="gcommaaccent" unicode="&#x123;" horiz-adv-x="988" 
d="M560 776q-95 0 -160.5 -49t-93.5 -130q-26 -78 -26 -177q0 -101 38 -180q21 -43 60 -67.5t92 -24.5q98 0 186 90l46 517q-74 21 -142 21zM928 881l-68 -767q-13 -153 -42 -254q-33 -116 -103 -189q-109 -120 -354 -120q-175 0 -285 49q-13 7 -13 20l14 161q1 15 17 15
q2 0 8 -2q108 -48 233 -48q167 0 229 68q33 35 49.5 81t22.5 119l5 61q-71 -54 -131 -76.5t-130 -22.5q-177 0 -255 125q-70 115 -70 290q0 262 133 422q134 161 360 161q150 0 354 -59q26 -9 26 -34zM475 1129l141 299q9 20 25 20h113q13 0 13 -12l-78 -317q-6 -26 -28 -26
h-174q-20 0 -20 8q0 9 8 28z" />
    <glyph glyph-name="Hcircumflex" unicode="&#x124;" horiz-adv-x="1244" 
d="M206 1098l-107 37q-17 5 -17 26l9 104q2 20 26 20h302q31 0 31 -35l-46 -527h467l47 532q2 30 27 30h185q21 0 21 -30l-107 -1225q-3 -30 -26 -30h-185q-22 0 -22 30l42 494h-467l-43 -494q-3 -30 -25 -30h-185q-21 0 -21 30zM844 1405l-126 126l-147 -126
q-19 -15 -36 -15q-3 0 -17 3l-94 21q-19 4 -19 15q0 9 10 20l169 188q32 36 55 36h182q24 0 51 -36l135 -188q9 -11 9 -19q0 -10 -24 -16l-97 -21q-15 -3 -18 -3q-18 0 -33 15z" />
    <glyph glyph-name="hcircumflex" unicode="&#x125;" horiz-adv-x="1155" 
d="M1094 3l-289 -12q-23 0 -23 26l52 596q1 7 1 32q0 138 -112 138q-55 0 -113.5 -30t-104.5 -85l-56 -638q-3 -30 -27 -30h-178q-22 0 -22 30l107 1219l-102 25q-16 3 -16 21l7 88q2 25 30 26l293 20q12 0 20 -9.5t8 -22.5l-43 -490q-3 -29 -15 -79q155 146 326 146
q111 0 172 -64t61 -179q0 -9 -2 -39l-48 -548l93 -25q13 -6 13 -22l-6 -71q-2 -22 -26 -23zM549 1522l-126 126l-147 -126q-20 -15 -36 -15q-4 0 -17 3l-94 21q-19 4 -19 15q0 9 10 20l169 188q31 36 55 36h182q24 0 51 -36l135 -188q9 -10 9 -19q0 -10 -24 -16l-97 -21
q-15 -3 -18 -3q-18 0 -33 15z" />
    <glyph glyph-name="Hbar" unicode="&#x126;" horiz-adv-x="1264" 
d="M276 1098l-107 37q-17 5 -17 26l9 104q2 20 26 20h302q31 0 31 -35l-18 -207h467l19 212q2 30 27 30h185q21 0 21 -30l-19 -212h107q23 0 23 -18l-12 -132q-1 -12 -6 -16t-18 -4h-109l-73 -843q-3 -30 -26 -30h-185q-22 0 -22 30l42 494h-467l-43 -494q-3 -30 -25 -30
h-185q-21 0 -21 30l74 843h-107q-22 0 -22 22l13 128q2 20 24 20h107zM474 723h467l13 150h-467z" />
    <glyph glyph-name="hbar" unicode="&#x127;" horiz-adv-x="1072" 
d="M1011 3l-289 -12q-23 0 -23 26l52 596q1 7 1 32q0 138 -112 138q-55 0 -113.5 -30t-104.5 -85l-56 -638q-3 -30 -27 -30h-178q-22 0 -22 30l86 978h-106q-15 0 -20 3.5t-5 12.5l13 126q2 17 23 17h109l7 82l-102 25q-16 3 -16 21l7 88q2 25 30 26l293 20q12 0 20 -9.5
t8 -22.5l-20 -230h163q21 0 21 -19l-12 -124q-1 -11 -5 -13.5t-18 -2.5h-163l-9 -101q-3 -29 -15 -79q155 146 326 146q111 0 172 -64t61 -179q0 -9 -2 -39l-48 -548l93 -25q13 -6 13 -22l-6 -71q-2 -22 -26 -23z" />
    <glyph glyph-name="Itilde" unicode="&#x128;" horiz-adv-x="752" 
d="M478 187l126 -37q17 -5 17 -26l-9 -104q-2 -20 -26 -20h-481q-23 0 -23 20l9 104q2 20 22 26l132 37l80 911l-126 37q-17 5 -17 26l9 104q2 20 26 20h481q23 0 23 -20l-9 -104q-2 -20 -22 -26l-132 -37zM403 1656q45 0 95 -36q52 -35 79 -35q42 0 103 58q8 6 13 6
q9 0 16 -9l61 -67q8 -11 8 -16q0 -4 -7 -15q-78 -132 -199 -132q-28 -1 -62.5 17.5t-64.5 36.5t-46 17q-21 0 -50.5 -16t-52.5 -42q-6 -6 -12 -6q-8 0 -16 9l-61 67q-7 7 -7 15q0 4 5 16q35 63 86.5 97.5t111.5 34.5z" />
    <glyph glyph-name="itilde" unicode="&#x129;" horiz-adv-x="594" 
d="M407 159l113 -24q14 -3 14 -21l-7 -89q-3 -24 -28 -25l-304 -24q-12 0 -20 9t-8 23l68 774l-102 25q-15 3 -15 21l8 88q2 24 28 26l293 20q28 0 28 -33zM258 1337q46 0 95 -36q52 -35 79 -35q42 0 103 58q7 6 13 6q8 0 16 -9l61 -67q8 -11 8 -16q0 -4 -7 -15
q-78 -132 -199 -132q-40 0 -95 35q-54 36 -78 36q-21 0 -50.5 -16t-52.5 -42q-6 -6 -12 -6q-9 0 -16 9l-61 67q-7 7 -7 15q0 4 5 16q35 63 86.5 97.5t111.5 34.5z" />
    <glyph glyph-name="Imacron" unicode="&#x12a;" horiz-adv-x="792" 
d="M478 187l126 -37q17 -5 17 -26l-9 -104q-2 -20 -26 -20h-481q-23 0 -23 20l9 104q2 20 22 26l132 37l80 911l-126 37q-17 5 -17 26l9 104q2 20 26 20h481q23 0 23 -20l-9 -104q-2 -20 -22 -26l-132 -37zM267 1439l10 117q3 26 29 26h364q27 0 27 -24l-10 -116
q-3 -26 -29 -26h-364q-27 0 -27 23z" />
    <glyph glyph-name="imacron" unicode="&#x12b;" horiz-adv-x="551" 
d="M396 159l113 -24q14 -3 14 -21l-7 -89q-3 -24 -28 -25l-304 -24q-12 0 -20 9t-8 23l68 774l-102 25q-15 3 -15 21l8 88q2 24 28 26l293 20q28 0 28 -33zM104 1115l10 117q3 26 29 26h364q27 0 27 -24l-10 -116q-3 -26 -29 -26h-364q-27 0 -27 23z" />
    <glyph glyph-name="Ibreve" unicode="&#x12c;" horiz-adv-x="801" 
d="M478 187l126 -37q17 -5 17 -26l-9 -104q-2 -20 -26 -20h-481q-23 0 -23 20l9 104q2 20 22 26l132 37l80 911l-126 37q-17 5 -17 26l9 104q2 20 26 20h481q23 0 23 -20l-9 -104q-2 -20 -22 -26l-132 -37zM462 1380q-95 0 -159 49q-62 49 -85 120q-9 29 -9 49q0 11 14 16
l102 29q11 3 16 3q10 0 14 -15q7 -33 37 -69q30 -33 76 -33q42 0 74 28.5t52 70.5q7 16 13 16q4 0 7 -1l107 -32q10 -3 10 -9q0 -7 -4 -19q-24 -95 -91 -149t-174 -54z" />
    <glyph glyph-name="ibreve" unicode="&#x12d;" horiz-adv-x="569" 
d="M413 159l113 -24q14 -3 14 -21l-7 -89q-3 -24 -28 -25l-304 -24q-12 0 -20 9t-8 23l68 774l-102 25q-15 3 -15 21l8 88q2 24 28 26l293 20q28 0 28 -33zM339 1082q-95 0 -159 49q-62 49 -85 120q-9 29 -9 49q0 11 14 16l102 29q11 3 16 3q10 0 14 -15q7 -33 37 -69
q30 -33 76 -33q42 0 74 28.5t52 70.5q7 16 13 16q4 0 7 -1l107 -32q10 -3 10 -9q0 -7 -4 -19q-24 -95 -91 -149t-174 -54z" />
    <glyph glyph-name="Iogonek" unicode="&#x12e;" horiz-adv-x="792" 
d="M479 187l126 -37q17 -5 17 -26l-9 -104q-2 -20 -26 -20h-130l-6 -5q-56 -47 -87 -102t-31 -99q0 -37 17.5 -58t50.5 -21q17 0 84 19q1 0 8 2t8 2q11 0 15 -9l35 -71q3 -6 3 -10q-1 -9 -11 -14q-112 -62 -225 -62q-82 0 -137 39t-55 117q0 71 38.5 134t117.5 138h-176
q-23 0 -23 20l9 104q2 20 22 26l132 37l80 911l-126 37q-17 5 -17 26l9 104q2 20 26 20h481q23 0 23 -20l-9 -104q-2 -20 -22 -26l-132 -37z" />
    <glyph glyph-name="iogonek" unicode="&#x12f;" horiz-adv-x="565" 
d="M381 165l113 -24q14 -3 14 -21l-8 -89q-2 -23 -28 -25l-164 -11q-121 -97 -121 -208q0 -33 17.5 -52.5t50.5 -19.5q14 0 50 10t41 11q3 1 10 1q10 0 15 -11l35 -71q2 -6 2 -8q-1 -8 -10 -13q-112 -62 -226 -62q-82 0 -137 39t-55 118q0 71 40 135t122 141q-1 2 -1 12
l67 765l-102 25q-15 3 -15 21l8 88q2 24 28 26l293 20q28 0 28 -33zM338 1321q60 0 94 -32.5t34 -89.5t-34 -89.5t-94 -32.5t-93.5 32.5t-33.5 89.5t33.5 89.5t93.5 32.5z" />
    <glyph glyph-name="Idot" unicode="&#x130;" horiz-adv-x="792" 
d="M478 187l126 -37q17 -5 17 -26l-9 -104q-2 -20 -26 -20h-481q-23 0 -23 20l9 104q2 20 22 26l132 37l80 911l-126 37q-17 5 -17 26l9 104q2 20 26 20h481q23 0 23 -20l-9 -104q-2 -20 -22 -26l-132 -37zM461 1655q60 0 94 -32.5t34 -89.5t-34 -89.5t-94 -32.5t-93.5 32.5
t-33.5 89.5t33.5 89.5t93.5 32.5z" />
    <glyph glyph-name="dotlessi" unicode="&#x131;" horiz-adv-x="553" 
d="M398 159l113 -24q14 -3 14 -21l-7 -89q-3 -24 -28 -25l-304 -24q-12 0 -20 9t-8 23l68 774l-102 25q-15 3 -15 21l8 88q2 24 28 26l293 20q28 0 28 -33z" />
    <glyph glyph-name="IJ" unicode="&#x132;" horiz-adv-x="1375" 
d="M478 187l126 -37q17 -5 17 -26l-9 -104q-2 -20 -26 -20h-481q-23 0 -23 20l9 104q2 20 22 26l132 37l80 911l-126 37q-17 5 -17 26l9 104q2 20 26 20h481q23 0 23 -20l-9 -104q-2 -20 -22 -26l-132 -37zM1102 1088h-269q-32 0 -32 35l11 127q5 35 38 35h476q22 0 22 -30
l-105 -1207q-30 -341 -327 -341q-62 0 -116 9q-51 7 -68 14q-12 4 -12 15q0 6 1 8l40 150q3 14 19 14q69 -11 110 -11q48 0 81 29t38 88z" />
    <glyph glyph-name="ij" unicode="&#x133;" horiz-adv-x="1036" 
d="M383 165l113 -24q14 -3 14 -21l-8 -89q-2 -23 -28 -25l-303 -21q-28 0 -28 32l67 765l-102 25q-15 3 -15 21l8 88q2 24 28 26l293 20q28 0 28 -33zM340 1321q60 0 94 -32.5t34 -89.5t-34 -89.5t-94 -32.5t-93.5 32.5t-33.5 89.5t33.5 89.5t93.5 32.5zM718 782l-101 25
q-16 4 -16 21l8 88q2 24 28 26l293 20q28 0 28 -33l-87 -992q-12 -146 -58 -232q-30 -55 -71 -85q-95 -73 -281 -73h-4q-36 0 -36 23l12 144q1 21 19 23q74 4 120 28q60 29 67 117zM842 1321q60 0 94 -32.5t34 -89.5t-34 -89.5t-94 -32.5t-93.5 32.5t-33.5 89.5t33.5 89.5
t93.5 32.5z" />
    <glyph glyph-name="Jcircumflex" unicode="&#x134;" horiz-adv-x="800" 
d="M408 1088h-269q-32 0 -32 35l11 127q5 35 38 35h476q22 0 22 -30l-105 -1207q-30 -341 -327 -341q-62 0 -116 9q-51 7 -68 14q-12 4 -12 15q0 6 1 8l40 150q3 14 19 14q69 -11 110 -11q48 0 81 29t38 88zM537 1405l-126 126l-147 -126q-20 -15 -36 -15q-4 0 -17 3l-94 21
q-19 4 -19 15q0 9 10 20l169 188q31 36 55 36h182q24 0 51 -36l135 -188q9 -11 9 -19q0 -10 -24 -16l-97 -21q-15 -3 -18 -3q-18 0 -33 15z" />
    <glyph glyph-name="jcircumflex" unicode="&#x135;" horiz-adv-x="621" 
d="M246 764l-102 25q-16 3 -16 21l8 88q2 24 28 26l294 20q11 0 19 -8t8 -21v-4l-85 -974q-12 -146 -58 -232q-29 -54 -72 -85q-95 -73 -281 -73q-13 0 -19.5 1t-13 6t-6.5 16l12 144q3 20 18 23q94 3 142 41q41 34 47 104zM478 1083l-126 126l-147 -126q-19 -15 -36 -15
q-3 0 -17 3l-94 21q-19 4 -19 15q0 9 10 20l169 188q31 36 55 36h182q24 0 51 -36l135 -188q9 -11 9 -19q0 -10 -24 -16l-97 -21q-15 -3 -18 -3q-18 0 -33 15z" />
    <glyph glyph-name="Kcommaaccent" unicode="&#x136;" horiz-adv-x="1161" 
d="M407 753h33q80 0 119 54q27 36 59 108q34 73 60 135q27 63 73 124q47 62 102 87q66 30 226 30q19 0 25 -3t6 -11l-1 -7q-3 -31 -13 -151q-1 -17 -8.5 -22t-29.5 -5q-56 0 -90 -15q-16 -7 -31.5 -22t-26.5 -29t-26 -42.5t-21.5 -43t-22.5 -50.5t-21 -47
q-53 -117 -130 -155q108 -60 156 -286q9 -44 15 -66q4 -15 20 -56q15 -33 32 -50q45 -43 118 -43q28 0 28 -31l-12 -141q-2 -27 -68 -27q-126 0 -214 63q-96 74 -127 253q-17 94 -37 152q-12 38 -28 58q-34 50 -93 50h-89l-47 -534q-3 -30 -25 -30h-185q-21 0 -21 30
l94 1068l-107 37q-17 6 -17 26l9 104q2 20 26 20h302q14 0 22.5 -9.5t8.5 -25.5zM665 -128l-141 -299q-9 -20 -25 -20h-113q-13 0 -13 12l78 317q6 26 28 26h174q20 0 20 -8q0 -9 -8 -28z" />
    <glyph glyph-name="kcommaaccent" unicode="&#x137;" horiz-adv-x="1009" 
d="M385 609h52q43 6 78 53q4 6 8.5 12t8 11.5t5.5 7.5q1 1 22 35q10 17 19 32q32 50 36 56q23 30 35 45q21 26 43 40q85 56 210 51h49q20 0 20 -21l-13 -153q-1 -19 -28 -19h-28q-47 0 -91 -23.5t-70 -62.5q-5 -6 -32 -49q-2 -3 -15 -20q-27 -34 -62 -53l-13 -7
q47 -32 71 -72q24 -39 58 -129q11 -31 18 -49q1 -3 5 -10.5t7.5 -14.5l7.5 -15q14 -25 27 -35q38 -30 86 -35q17 -2 17 -29l-12 -142q-1 -15 -12.5 -20.5t-41.5 -5.5q-113 0 -177 49t-98 149q-10 30 -18 52q-1 2 -7 18t-10 28q-16 42 -35 78q-11 25 -40 52q-19 19 -49 19
h-39l-35 -402q-3 -30 -27 -30h-178q-22 0 -22 30l107 1219l-102 25q-16 4 -16 21l7 90q1 23 30 24l293 20q12 0 20 -9t8 -23l-62 -711q-2 -28 -15 -77zM601 -159l-141 -299q-9 -20 -25 -20h-113q-13 0 -13 12l78 317q6 26 28 26h174q20 0 20 -8q0 -9 -8 -28z" />
    <glyph glyph-name="kgreenlandic" unicode="&#x138;" horiz-adv-x="1055" 
d="M462 930l-30 -343h36q28 0 51 22q30 28 46 52q22 33 39 62q3 5 17 28q25 43 42 66q14 20 46 54q29 31 60 46q72 38 179 38h54q15 0 15 -16l-15 -163q-1 -16 -19 -16h-34q-43 0 -71 -14.5t-53 -46.5q-3 -4 -9 -11.5t-16.5 -21.5t-18.5 -25q-20 -28 -55 -72
q-29 -37 -66 -59q50 -34 78 -78t63 -132q21 -56 48 -82q29 -24 88 -33q20 -2 20 -19l-12 -159q-1 -12 -11 -15.5t-42 -3.5q-114 0 -178.5 45.5t-97.5 141.5q-42 121 -74 167q-35 50 -87 50h-40l-32 -362q-3 -30 -27 -30h-178q-22 0 -22 25l66 758l-102 24q-16 3 -16 21l8 88
q2 24 29 26l293 20q12 0 20 -9t8 -23z" />
    <glyph glyph-name="Lacute" unicode="&#x139;" horiz-adv-x="899" 
d="M441 1255l-89 -1015q0 -23 12 -32t40 -9h248l50 114q9 20 28 20h103q17 0 17 -25l-24 -283q-3 -25 -22 -25h-545q-75 0 -112 25.5t-37 86.5q0 14 1 18l98 1125q1 30 27 30h185q20 0 20 -30zM683 1627l-233 -201q-17 -15 -38 -15h-140q-19 0 -19 14q0 8 10 21l162 189
q19 22 30.5 28.5t29.5 6.5h187q28 0 28 -12q0 -16 -17 -31z" />
    <glyph glyph-name="lacute" unicode="&#x13a;" horiz-adv-x="737" 
d="M451 1397l-95 -1083q-1 -6 -1 -30q0 -117 146 -117h34q14 0 14 -16l-10 -142q-1 -21 -18 -24q-47 -6 -158 -6q-132 0 -185 66q-53 68 -53 190q0 35 3 73l83 941l-102 25q-16 3 -16 21l7 88q2 25 30 26l293 20q12 0 20 -9t8 -23zM682 1751l-233 -201q-16 -15 -38 -15h-140
q-19 0 -19 14q0 8 10 21l162 189q19 22 30.5 28.5t29.5 6.5h187q28 0 28 -12q0 -16 -17 -31z" />
    <glyph glyph-name="Lcommaaccent" unicode="&#x13b;" horiz-adv-x="899" 
d="M441 1255l-89 -1015q0 -23 12 -32t40 -9h248l50 114q9 20 28 20h103q17 0 17 -25l-24 -283q-3 -25 -22 -25h-545q-75 0 -112 25.5t-37 86.5q0 14 1 18l98 1125q1 30 27 30h185q20 0 20 -30zM571 -128l-141 -299q-9 -20 -25 -20h-113q-13 0 -13 12l78 317q6 26 28 26h174
q20 0 20 -8q0 -9 -8 -28z" />
    <glyph glyph-name="lcommaaccent" unicode="&#x13c;" horiz-adv-x="587" 
d="M451 1397l-95 -1083q-1 -6 -1 -30q0 -117 146 -117h34q14 0 14 -16l-10 -142q-1 -21 -18 -24q-47 -6 -158 -6q-132 0 -185 66q-53 68 -53 190q0 35 3 73l83 941l-102 25q-16 3 -16 21l7 88q2 25 30 26l293 20q12 0 20 -9t8 -23zM434 -159l-141 -299q-9 -20 -25 -20h-113
q-13 0 -13 12l78 317q6 26 28 26h174q20 0 20 -8q0 -9 -8 -28z" />
    <glyph glyph-name="Lcaron" unicode="&#x13d;" horiz-adv-x="902" 
d="M441 1255l-89 -1015q0 -23 12 -32t40 -9h248l50 114q9 20 28 20h103q17 0 17 -25l-24 -283q-3 -25 -22 -25h-545q-75 0 -112 25.5t-37 86.5q0 14 1 18l98 1125q1 30 27 30h185q20 0 20 -30zM845 1249l-141 -299q-9 -20 -25 -20h-113q-13 0 -13 12l78 317q6 26 28 26h174
q20 0 20 -8q0 -9 -8 -28z" />
    <glyph glyph-name="lcaron" unicode="&#x13e;" horiz-adv-x="835" 
d="M508 1397l-95 -1083q-1 -6 -1 -30q0 -117 146 -117h34q14 0 14 -16l-10 -142q-2 -21 -18 -24q-46 -6 -158 -6q-132 0 -185 66q-53 68 -53 190q0 35 3 73l83 941l-102 25q-16 3 -16 21l7 88q2 25 30 26l293 20q12 0 20 -9t8 -23zM866 1384l-141 -299q-9 -20 -25 -20h-113
q-13 0 -13 12l78 317q6 26 28 26h174q20 0 20 -8q0 -9 -8 -28z" />
    <glyph glyph-name="Ldot" unicode="&#x13f;" horiz-adv-x="899" 
d="M441 1255l-89 -1015q0 -23 12 -32t40 -9h248l50 114q9 20 28 20h103q17 0 17 -25l-24 -283q-3 -25 -22 -25h-545q-75 0 -112 25.5t-37 86.5q0 14 1 18l98 1125q1 30 27 30h185q20 0 20 -30zM637 814q60 0 94 -32.5t34 -89.5t-34 -89.5t-94 -32.5t-93.5 32.5t-33.5 89.5
t33.5 89.5t93.5 32.5z" />
    <glyph glyph-name="ldot" unicode="&#x140;" horiz-adv-x="785" 
d="M451 1397l-95 -1083q-1 -6 -1 -30q0 -117 146 -117h34q14 0 14 -16l-10 -142q-1 -21 -18 -24q-47 -6 -158 -6q-132 0 -185 66q-53 68 -53 190q0 35 3 73l83 941l-102 25q-16 3 -16 21l7 88q2 25 30 26l293 20q12 0 20 -9t8 -23zM619 853q60 0 94 -32.5t34 -89.5
t-34 -89.5t-94 -32.5t-93.5 32.5t-33.5 89.5t33.5 89.5t93.5 32.5z" />
    <glyph glyph-name="Lslash" unicode="&#x141;" horiz-adv-x="861" 
d="M458 1255l-43 -494l214 91q9 4 16 4q11 0 11 -13l-13 -142q-1 -25 -31 -37l-214 -90l-29 -334q0 -23 12.5 -32t39.5 -9h248l50 114q9 20 28 20h103q17 0 17 -25l-24 -283q-3 -25 -22 -25h-545q-75 0 -112 25.5t-37 86.5q0 14 1 18l30 342l-84 -35q-8 -4 -16 -4
q-11 0 -11 16l12 140q1 23 31 37l84 35l52 594q2 30 27 30h185q20 0 20 -30z" />
    <glyph glyph-name="lslash" unicode="&#x142;" horiz-adv-x="740" 
d="M535 1397l-55 -628l195 83q9 4 16 4q11 0 11 -13l-13 -142q-2 -12 -7 -18.5t-13.5 -11.5t-10.5 -7l-195 -82l-23 -268q-1 -6 -1 -30q0 -117 146 -117h34q14 0 14 -16l-10 -142q-1 -23 -18 -24q-47 -6 -158 -6q-133 0 -185 66q-53 68 -53 190q0 35 3 73l15 174l-107 -45
q-8 -4 -16 -4q-11 0 -11 16l12 140q1 23 31 37l108 45l51 578l-102 25q-16 3 -16 21l7 88q2 25 30 26l293 20q12 0 20 -9t8 -23z" />
    <glyph glyph-name="Nacute" unicode="&#x143;" horiz-adv-x="1281" 
d="M877 0q-37 0 -57 42q-2 3 -86 181q-98 206 -145 307q-59 127 -110 249q-36 85 -51 159h-5l-80 -908q-3 -30 -25 -30h-185q-21 0 -21 30l94 1068l-107 37q-17 5 -17 26l9 104q2 20 26 20h315q28 0 38 -21l354 -765q34 -72 44 -128l5 -20h4l79 902q1 13 9 22.5t20 9.5h182
q21 0 21 -30l-106 -1215q-3 -40 -43 -40h-162zM1035 1627l-233 -201q-16 -15 -38 -15h-140q-19 0 -19 14q0 8 10 21l162 189q19 22 30.5 28.5t29.5 6.5h187q28 0 28 -12q0 -16 -17 -31z" />
    <glyph glyph-name="nacute" unicode="&#x144;" horiz-adv-x="1093" 
d="M986 692l-48 -548l93 -25q13 -6 13 -22l-6 -71q-2 -22 -26 -23l-288 -12q-10 0 -17 7t-7 19l53 602q2 32 2 35q0 136 -109 136q-54 0 -112 -32t-106 -88l-56 -640q-3 -30 -27 -30h-178q-22 0 -22 30l66 750l-102 25q-16 4 -16 21l8 93q2 24 29 26l267 17q25 0 27 -33
l7 -112q167 157 328 157q110 0 169.5 -63t59.5 -175q0 -3 -0.5 -8.5t-1 -16t-0.5 -19.5zM917 1308l-233 -201q-18 -15 -38 -15h-140q-19 0 -19 14q0 8 10 21l162 189q19 22 30.5 28.5t29.5 6.5h187q28 0 28 -12q0 -16 -17 -31z" />
    <glyph glyph-name="Ncommaaccent" unicode="&#x145;" horiz-adv-x="1281" 
d="M877 0q-37 0 -57 42q-2 3 -86 181q-98 206 -145 307q-59 127 -110 249q-36 85 -51 159h-5l-80 -908q-3 -30 -25 -30h-185q-21 0 -21 30l94 1068l-107 37q-17 5 -17 26l9 104q2 20 26 20h315q28 0 38 -21l354 -765q34 -72 44 -128l5 -20h4l79 902q1 13 9 22.5t20 9.5h182
q21 0 21 -30l-106 -1215q-3 -40 -43 -40h-162zM701 -128l-141 -299q-9 -20 -25 -20h-113q-13 0 -13 12l78 317q6 26 28 26h174q20 0 20 -8q0 -9 -8 -28z" />
    <glyph glyph-name="ncommaaccent" unicode="&#x146;" horiz-adv-x="1093" 
d="M986 692l-48 -548l93 -25q13 -6 13 -22l-6 -71q-2 -22 -26 -23l-288 -12q-10 0 -17 7t-7 19l53 602q2 32 2 35q0 136 -109 136q-54 0 -112 -32t-106 -88l-56 -640q-3 -30 -27 -30h-178q-22 0 -22 30l66 750l-102 25q-16 4 -16 21l8 93q2 24 29 26l267 17q25 0 27 -33
l7 -112q167 157 328 157q110 0 169.5 -63t59.5 -175q0 -3 -0.5 -8.5t-1 -16t-0.5 -19.5zM655 -93l-165 -330q-4 -12 -15 -12h-99q-11 0 -11 7q0 3 2 9l94 328q0 4 4.5 7.5t10.5 3.5h167q13 0 13 -8q0 -3 -1 -5z" />
    <glyph glyph-name="Ncaron" unicode="&#x147;" horiz-adv-x="1281" 
d="M877 0q-37 0 -57 42q-2 3 -86 181q-98 206 -145 307q-59 127 -110 249q-36 85 -51 159h-5l-80 -908q-3 -30 -25 -30h-185q-21 0 -21 30l94 1068l-107 37q-17 5 -17 26l9 104q2 20 26 20h315q28 0 38 -21l354 -765q34 -72 44 -128l5 -20h4l79 902q1 13 9 22.5t20 9.5h182
q21 0 21 -30l-106 -1215q-3 -40 -43 -40h-162zM604 1680l116 -126l157 126q19 15 36 15q3 0 17 -3l94 -21q19 -4 19 -16q0 -8 -10 -19l-173 -193q-27 -31 -51 -31h-184q-25 0 -49 36l-135 188q-6 8 -6 19q2 12 21 16l97 21q15 3 20 3q16 0 31 -15z" />
    <glyph glyph-name="ncaron" unicode="&#x148;" horiz-adv-x="1093" 
d="M986 692l-48 -548l93 -25q13 -6 13 -22l-6 -71q-2 -22 -26 -23l-288 -12q-10 0 -17 7t-7 19l53 602q2 32 2 35q0 136 -109 136q-54 0 -112 -32t-106 -88l-56 -640q-3 -30 -27 -30h-178q-22 0 -22 30l66 750l-102 25q-16 4 -16 21l8 93q2 24 29 26l267 17q25 0 27 -33
l7 -112q167 157 328 157q110 0 169.5 -63t59.5 -175q0 -3 -0.5 -8.5t-1 -16t-0.5 -19.5zM480 1359l116 -126l157 126q20 15 36 15q4 0 17 -3l94 -21q19 -4 19 -16q0 -8 -10 -19l-173 -193q-27 -31 -51 -31h-184q-25 0 -49 36l-135 188q-6 7 -6 19q2 12 21 16l97 21
q15 3 20 3q16 0 31 -15z" />
    <glyph glyph-name="napostrophe" unicode="&#x149;" horiz-adv-x="1309" 
d="M385 1248l-141 -297q-10 -22 -26 -22h-112q-13 0 -13 12q0 3 8 35l71 282q8 26 31 26h171q18 0 18 -12q0 -6 -7 -24zM1202 692l-48 -548l93 -25q13 -6 13 -22l-6 -71q-2 -22 -26 -23l-288 -12q-10 0 -17 7t-7 19l53 602q2 32 2 35q0 136 -109 136q-54 0 -112 -32
t-106 -88l-56 -640q-3 -30 -27 -30h-178q-22 0 -22 30l66 750l-102 25q-16 4 -16 21l8 93q2 24 29 26l267 17q25 0 27 -33l7 -112q167 157 328 157q110 0 169.5 -63t59.5 -175q0 -3 -0.5 -8.5t-1 -16t-0.5 -19.5z" />
    <glyph glyph-name="Eng" unicode="&#x14a;" horiz-adv-x="1281" 
d="M662 -255q171 84 171 227q0 44 -23 88q-17 37 -24 52q-242 512 -307 667q-36 85 -51 159h-5l-80 -908q-3 -30 -25 -30h-185q-21 0 -21 25l94 1073l-107 37q-17 6 -17 21l9 109q2 20 26 20h315q28 0 38 -21l354 -765q34 -72 44 -128l5 -20h4l79 902q3 32 29 32h179
q24 0 24 -30l-107 -1227q-17 -179 -120 -306q-50 -59 -100 -97q-106 -81 -194 -81q-16 0 -21 20l-30 141q0 12 18 27q4 2 28 13z" />
    <glyph glyph-name="eng" unicode="&#x14b;" horiz-adv-x="1048" 
d="M926 3q-22 -186 -132 -284t-274 -98h-4q-42 0 -44 24l-16 151q0 18 23 20q89 7 151 60q63 53 70 144l53 599q2 32 2 35q0 136 -109 136q-54 0 -112 -32t-106 -88l-56 -640q-3 -30 -27 -30h-178q-22 0 -22 25l66 755l-102 25q-16 3 -16 21l8 93q2 24 29 26l267 17
q25 0 27 -33l7 -112q167 157 328 157q110 0 169.5 -63t59.5 -175q0 -5 -2 -39z" />
    <glyph glyph-name="Omacron" unicode="&#x14c;" horiz-adv-x="1208" 
d="M639 1114q-326 0 -326 -572q0 -371 243 -371q142 0 234 147q92 148 92 441q0 355 -243 355zM539 -24q-148 0 -261 71q-62 41 -107 104q-100 142 -100 404q0 361 144 558q144 196 441 196q241 0 359 -162q111 -152 111 -402q0 -257 -69 -424q-61 -155 -172 -238
q-141 -107 -346 -107zM471 1439l10 117q3 26 29 26h364q27 0 27 -24l-10 -116q-3 -26 -29 -26h-364q-27 0 -27 23z" />
    <glyph glyph-name="omacron" unicode="&#x14d;" horiz-adv-x="1018" 
d="M65 432q0 118 28.5 215t85 171t149.5 115t215 41q124 0 221 -55q59 -33 98 -80q44 -51 70 -134.5t26 -187.5q0 -123 -28.5 -221t-86 -170t-150 -111t-213.5 -39q-205 0 -310 122t-105 334zM478 154q136 0 193 115q51 102 51 246q0 279 -181 279q-242 0 -242 -368
q0 -129 45.5 -200.5t133.5 -71.5zM342 1115l10 117q3 26 29 26h364q27 0 27 -24l-10 -116q-3 -26 -29 -26h-364q-27 0 -27 23z" />
    <glyph glyph-name="Obreve" unicode="&#x14e;" horiz-adv-x="1208" 
d="M639 1114q-326 0 -326 -572q0 -371 243 -371q142 0 234 147q92 148 92 441q0 355 -243 355zM539 -24q-148 0 -261 71q-62 41 -107 104q-100 142 -100 404q0 361 144 558q144 196 441 196q241 0 359 -162q111 -152 111 -402q0 -257 -69 -424q-61 -155 -172 -238
q-141 -107 -346 -107zM614 1380q-95 0 -159 49q-62 49 -85 120q-9 29 -9 49q0 11 14 16l102 29q10 3 16 3q9 0 14 -15q7 -33 37 -69q30 -33 76 -33q42 0 74 28.5t52 70.5q7 16 13 16q4 0 7 -1l107 -32q10 -3 10 -9q0 -7 -4 -19q-24 -95 -91 -149t-174 -54z" />
    <glyph glyph-name="obreve" unicode="&#x14f;" horiz-adv-x="1018" 
d="M65 432q0 118 28.5 215t85 171t149.5 115t215 41q124 0 221 -55q59 -33 98 -80q44 -51 70 -134.5t26 -187.5q0 -123 -28.5 -221t-86 -170t-150 -111t-213.5 -39q-205 0 -310 122t-105 334zM478 154q136 0 193 115q51 102 51 246q0 279 -181 279q-242 0 -242 -368
q0 -129 45.5 -200.5t133.5 -71.5zM511 1080q-95 0 -159 49q-62 49 -85 120q-9 29 -9 49q0 11 14 16l102 29q11 3 16 3q10 0 14 -15q7 -33 37 -69q30 -33 76 -33q42 0 74 28.5t52 70.5q7 16 13 16q4 0 7 -1l107 -32q10 -3 10 -9q0 -7 -4 -19q-24 -95 -91 -149t-174 -54z" />
    <glyph glyph-name="Ohungarumlaut" unicode="&#x150;" horiz-adv-x="1208" 
d="M639 1114q-326 0 -326 -572q0 -371 243 -371q142 0 234 147q92 148 92 441q0 355 -243 355zM539 -24q-148 0 -261 71q-62 41 -107 104q-100 142 -100 404q0 361 144 558q144 196 441 196q241 0 359 -162q111 -152 111 -402q0 -257 -69 -424q-61 -155 -172 -238
q-141 -107 -346 -107zM739 1605l-178 -179q-15 -15 -37 -15h-135q-19 0 -19 15q0 7 10 20l140 189q26 35 59 35h174q26 0 26 -13q0 -12 -40 -52zM1079 1605l-178 -179q-15 -15 -37 -15h-135q-19 0 -19 15q0 7 10 20l140 189q26 35 59 35h174q26 0 26 -13q0 -12 -40 -52z" />
    <glyph glyph-name="ohungarumlaut" unicode="&#x151;" horiz-adv-x="1068" 
d="M65 432q0 118 28.5 215t85 171t149.5 115t215 41q124 0 221 -55q59 -33 98 -80q44 -51 70 -134.5t26 -187.5q0 -123 -28.5 -221t-86 -170t-150 -111t-213.5 -39q-205 0 -310 122t-105 334zM478 154q136 0 193 115q51 102 51 246q0 279 -181 279q-242 0 -242 -368
q0 -129 45.5 -200.5t133.5 -71.5zM628 1286l-178 -179q-15 -15 -37 -15h-135q-19 0 -19 15q0 7 10 20l140 189q26 35 59 35h174q26 0 26 -13q0 -12 -40 -52zM968 1286l-178 -179q-15 -15 -37 -15h-135q-19 0 -19 15q0 7 10 20l140 189q26 35 59 35h174q26 0 26 -13
q0 -12 -40 -52z" />
    <glyph glyph-name="OE" unicode="&#x152;" horiz-adv-x="1640" 
d="M1336 595h-357l-35 -396h492q21 0 21 -31l-12 -138q-3 -31 -27 -31h-757q-270 0 -431 155q-159 154 -159 417q0 328 185 521q186 193 516 193h757q29 0 29 -30l-11 -134q-5 -35 -35 -35h-490l-26 -292h357q27 0 27 -35l-11 -130q-4 -34 -33 -34zM711 198l78 888h-60
q-105 0 -187 -39.5t-131.5 -108.5t-74.5 -156.5t-25 -189.5q0 -150 81 -268q41 -58 109.5 -92t152.5 -34h57z" />
    <glyph glyph-name="oe" unicode="&#x153;" horiz-adv-x="1575" 
d="M65 432q0 117 28.5 214.5t86 171.5t150.5 115t215 41q218 0 320 -158q132 158 351 158q132 0 220 -70q90 -71 90 -196q0 -143 -158 -245q-159 -101 -407 -119q17 -92 79.5 -137t177.5 -45q92 0 226 45l8 2q16 0 18 -24l6 -132q0 -14 -17 -22q-138 -55 -304 -55
q-234 0 -344 149q-125 -149 -335 -149q-205 0 -308 121t-103 335zM350 213q42 -58 130 -58q63 0 112 31q67 42 97 130t30 199q0 279 -178 279q-243 0 -243 -368q0 -145 52 -213zM1205 801q-98 0 -163 -89q-66 -90 -82 -213q147 29 237 70q113 52 113 143q0 43 -28 66t-77 23
z" />
    <glyph glyph-name="Racute" unicode="&#x154;" horiz-adv-x="1115" 
d="M550 1105l-113 -3l-35 -404h98q111 -2 185 54.5t75 170.5q0 95 -59 139q-58 43 -151 43zM386 522l-43 -492q-1 -30 -25 -30h-185q-21 0 -21 30l94 1068l-107 37q-17 5 -17 26l9 104q1 18 26 23h474q207 0 312.5 -86.5t105.5 -248.5q0 -264 -271 -379q66 -50 92 -138
q55 -198 113 -235q29 -17 72 -17q40 0 40 -26l-17 -135q-2 -13 -5 -19.5t-15 -12t-34 -5.5q-157 0 -236 87q-66 77 -100 205q-26 98 -54 147q-19 33 -43 52q-52 45 -139 45h-26zM847 1627l-233 -201q-18 -15 -38 -15h-140q-19 0 -19 14q0 8 10 21l162 189q19 22 30.5 28.5
t29.5 6.5h187q28 0 28 -12q0 -16 -17 -31z" />
    <glyph glyph-name="racute" unicode="&#x155;" horiz-adv-x="738" 
d="M412 930l8 -114q48 82 106 120t133 38q35 0 82 -9q14 -3 14 -16l-43 -190q-3 -11 -12 -11q-4 0 -13 3q-40 13 -87 13q-64 0 -107.5 -36t-75.5 -119l-51 -579q-3 -30 -26 -30h-178q-23 0 -23 30l66 748l-107 26q-16 3 -16 21l8 93q2 24 29 26l266 18q22 0 27 -32z
M738 1308l-233 -201q-17 -15 -38 -15h-140q-19 0 -19 14q0 8 10 21l162 189q19 22 30.5 28.5t29.5 6.5h187q28 0 28 -12q0 -16 -17 -31z" />
    <glyph glyph-name="Rcommaaccent" unicode="&#x156;" horiz-adv-x="1115" 
d="M550 1105l-113 -3l-35 -404h98q111 -2 185 54.5t75 170.5q0 95 -59 139q-58 43 -151 43zM386 522l-43 -492q-1 -30 -25 -30h-185q-21 0 -21 30l94 1068l-107 37q-17 5 -17 26l9 104q1 18 26 23h474q207 0 312.5 -86.5t105.5 -248.5q0 -264 -271 -379q66 -50 92 -138
q55 -198 113 -235q29 -17 72 -17q40 0 40 -26l-17 -135q-2 -13 -5 -19.5t-15 -12t-34 -5.5q-157 0 -236 87q-66 77 -100 205q-26 98 -54 147q-19 33 -43 52q-52 45 -139 45h-26zM683 -127l-141 -299q-9 -20 -25 -20h-113q-13 0 -13 12l78 317q6 26 28 26h174q20 0 20 -8
q0 -9 -8 -28z" />
    <glyph glyph-name="rcommaaccent" unicode="&#x157;" horiz-adv-x="781" 
d="M455 930l8 -114q48 82 106 120t133 38q36 0 82 -9q14 -3 14 -16l-43 -190q-3 -11 -12 -11q-4 0 -13 3q-40 13 -87 13q-64 0 -107.5 -36t-75.5 -119l-51 -579q-3 -30 -26 -30h-178q-23 0 -23 30l66 748l-107 26q-16 3 -16 21l8 93q2 24 29 26l266 18q22 0 27 -32z
M374 -159l-141 -299q-9 -20 -25 -20h-113q-13 0 -13 12l78 317q6 26 28 26h174q20 0 20 -8q0 -9 -8 -28z" />
    <glyph glyph-name="Rcaron" unicode="&#x158;" horiz-adv-x="1115" 
d="M550 1105l-113 -3l-35 -404h98q111 -2 185 54.5t75 170.5q0 95 -59 139q-58 43 -151 43zM386 522l-43 -492q-1 -30 -25 -30h-185q-21 0 -21 30l94 1068l-107 37q-17 5 -17 26l9 104q1 18 26 23h474q207 0 312.5 -86.5t105.5 -248.5q0 -264 -271 -379q66 -50 92 -138
q55 -198 113 -235q29 -17 72 -17q40 0 40 -26l-17 -135q-2 -13 -5 -19.5t-15 -12t-34 -5.5q-157 0 -236 87q-66 77 -100 205q-26 98 -54 147q-19 33 -43 52q-52 45 -139 45h-26zM431 1679l116 -126l157 126q20 15 36 15q3 0 17 -3l94 -21q19 -4 19 -16q0 -8 -10 -19
l-173 -193q-27 -31 -51 -31h-184q-25 0 -49 36l-135 188q-6 7 -6 19q2 12 21 16l97 21q15 3 20 3q16 0 31 -15z" />
    <glyph glyph-name="rcaron" unicode="&#x159;" horiz-adv-x="738" 
d="M412 930l8 -114q48 82 106 120t133 38q35 0 82 -9q14 -3 14 -16l-43 -190q-3 -11 -12 -11q-4 0 -13 3q-40 13 -87 13q-64 0 -107.5 -36t-75.5 -119l-51 -579q-3 -30 -26 -30h-178q-23 0 -23 30l66 748l-107 26q-16 3 -16 21l8 93q2 24 29 26l266 18q22 0 27 -32z
M293 1359l116 -126l157 126q20 15 36 15q4 0 17 -3l94 -21q19 -4 19 -16q0 -8 -10 -19l-173 -193q-27 -31 -51 -31h-184q-25 0 -49 36l-135 188q-6 7 -6 19q2 12 21 16l97 21q15 3 20 3q16 0 31 -15z" />
    <glyph glyph-name="Sacute" unicode="&#x15a;" horiz-adv-x="1022" 
d="M235 293l20 -105q105 -20 175 -20q109 0 183 31q93 39 93 157q0 74 -56.5 124t-168.5 92q-346 129 -346 370q0 369 459 369q198 0 335 -46q22 -7 22 -32l-31 -230q-3 -20 -21 -20h-102q-9 0 -13 3.5t-6 13.5l-22 114q-54 9 -114 9q-80 0 -135 -14q-37 -9 -62 -26
q-59 -39 -59 -122q0 -55 50 -96t152 -78q164 -59 254 -144q104 -95 104 -260q0 -186 -135 -295q-134 -110 -351 -110q-108 0 -199 13q-99 14 -137 26l-43 13q-21 8 -21 30l31 230q3 21 23 21h101q11 0 14.5 -3.5t5.5 -14.5zM890 1627l-233 -201q-17 -15 -38 -15h-140
q-19 0 -19 14q0 8 10 21l162 189q19 22 30.5 28.5t29.5 6.5h187q28 0 28 -12q0 -16 -17 -31z" />
    <glyph glyph-name="sacute" unicode="&#x15b;" horiz-adv-x="855" 
d="M199 283l11 -106l4 -1q20 -14 141 -23q107 -4 158 19q56 26 56 91q0 23 -18 40q-17 17 -48 32q-27 13 -69 30q-11 5 -39 16q-122 52 -194 113q-78 70 -78 179q0 150 101 225q100 75 270 75q191 0 299 -49q18 -8 18 -28l-30 -201q-3 -18 -20 -18h-72q-16 0 -18 14l-14 98
l-1 1q-3 0 -22 4t-49.5 7.5t-59.5 3.5q-58 0 -118 -18q-33 -10 -52 -34t-19 -57q-1 -23 16.5 -43t51 -38t67 -32.5t81.5 -34.5t79 -35q66 -31 114 -88q47 -56 47 -129q0 -82 -31.5 -146t-88.5 -101q-110 -72 -266 -72q-75 0 -154 13q-73 11 -128 23q-44 10 -52 14
q-18 7 -18 24q0 7 1 11l31 213q3 19 23 19h75q15 0 15 -11zM811 1308l-233 -201q-18 -15 -38 -15h-140q-19 0 -19 14q0 8 10 21l162 189q19 22 30.5 28.5t29.5 6.5h187q28 0 28 -12q0 -16 -17 -31z" />
    <glyph glyph-name="Scircumflex" unicode="&#x15c;" horiz-adv-x="1022" 
d="M235 293l20 -105q105 -20 175 -20q109 0 183 31q93 39 93 157q0 74 -56.5 124t-168.5 92q-346 129 -346 370q0 369 459 369q198 0 335 -46q22 -7 22 -32l-31 -230q-3 -20 -21 -20h-102q-9 0 -13 3.5t-6 13.5l-22 114q-54 9 -114 9q-80 0 -135 -14q-37 -9 -62 -26
q-59 -39 -59 -122q0 -55 50 -96t152 -78q164 -59 254 -144q104 -95 104 -260q0 -186 -135 -295q-134 -110 -351 -110q-108 0 -199 13q-99 14 -137 26l-43 13q-21 8 -21 30l31 230q3 21 23 21h101q11 0 14.5 -3.5t5.5 -14.5zM702 1399l-126 126l-147 -126q-19 -15 -36 -15
q-3 0 -17 3l-94 21q-19 4 -19 15q0 9 10 20l169 188q32 36 55 36h182q24 0 51 -36l135 -188q9 -10 9 -19q0 -10 -24 -16l-97 -21q-15 -3 -18 -3q-18 0 -33 15z" />
    <glyph glyph-name="scircumflex" unicode="&#x15d;" horiz-adv-x="838" 
d="M199 283l11 -106l4 -1q20 -14 141 -23q107 -4 158 19q56 26 56 91q0 23 -18 40q-17 17 -48 32q-27 13 -69 30q-11 5 -39 16q-122 52 -194 113q-78 70 -78 179q0 150 101 225q100 75 270 75q191 0 299 -49q18 -8 18 -28l-30 -201q-3 -18 -20 -18h-72q-16 0 -18 14l-14 98
l-1 1q-3 0 -22 4t-49.5 7.5t-59.5 3.5q-58 0 -118 -18q-33 -10 -52 -34t-19 -57q-1 -23 16.5 -43t51 -38t67 -32.5t81.5 -34.5t79 -35q66 -31 114 -88q47 -56 47 -129q0 -82 -31.5 -146t-88.5 -101q-110 -72 -266 -72q-75 0 -154 13q-73 11 -128 23q-44 10 -52 14
q-18 7 -18 24q0 7 1 11l31 213q3 19 23 19h75q15 0 15 -11zM639 1083l-126 126l-147 -126q-19 -15 -36 -15q-3 0 -17 3l-94 21q-19 4 -19 15q0 9 10 20l169 188q32 36 55 36h182q24 0 51 -36l135 -188q9 -11 9 -19q0 -10 -24 -16l-97 -21q-15 -3 -18 -3q-18 0 -33 15z" />
    <glyph glyph-name="Scedilla" unicode="&#x15e;" horiz-adv-x="1022" 
d="M235 293l20 -105q105 -20 175 -20q109 0 183 31q93 39 93 157q0 74 -56.5 124t-168.5 92q-346 129 -346 370q0 369 459 369q198 0 335 -46q22 -7 22 -32l-31 -230q-3 -20 -21 -20h-102q-9 0 -13 3.5t-6 13.5l-22 114q-54 9 -114 9q-80 0 -135 -14q-37 -9 -62 -26
q-59 -39 -59 -122q0 -55 50 -96t152 -78q164 -59 254 -144q104 -95 104 -260q0 -163 -106 -269q-105 -105 -282 -129l-25 -71q63 -19 93.5 -49.5t30.5 -83.5q0 -100 -74 -154q-73 -54 -187 -54q-83 0 -122 13q-9 2 -9 10l2 8l39 94q4 10 14 10q50 -9 73 -9q37 0 61 16t24 49
q0 23 -20 38t-59 15q-17 0 -26 -1q-14 0 -14 11l52 152q-95 3 -174 16q-80 13 -119 24l-37 11q-21 8 -21 30l31 230q3 21 23 21h101q19 0 20 -18z" />
    <glyph glyph-name="scedilla" unicode="&#x15f;" horiz-adv-x="838" 
d="M199 283l11 -106l4 -1q20 -14 141 -23q107 -4 158 19q56 26 56 91q0 23 -18 40q-17 17 -48 32q-27 13 -69 30q-11 5 -39 16q-122 52 -194 113q-78 70 -78 179q0 150 101 225q100 75 270 75q162 0 299 -49q11 -6 14.5 -11.5t3.5 -16.5l-30 -201q-3 -18 -20 -18h-72
q-16 0 -18 14l-14 98l-1 1q-3 0 -22 4t-49.5 7.5t-59.5 3.5q-58 0 -118 -18q-33 -10 -52 -34t-19 -57q-1 -23 16.5 -43t51 -38t67 -32.5t81.5 -34.5t79 -35q66 -31 114 -88q47 -56 47 -129q0 -141 -85 -219q-86 -79 -221 -95l-24 -68q63 -19 93.5 -49.5t30.5 -83.5
q0 -100 -74 -154t-187 -54q-83 0 -122 13q-9 2 -9 10l2 8l39 91q7 13 12 13h2q50 -9 73 -9q37 0 61 16t24 49q0 23 -20 38t-59 15q-17 0 -26 -1q-14 0 -14 11l3 10l49 143q-139 10 -256 45l-12 4q-17 3 -17 33l31 213q3 19 23 19h75q15 0 15 -11z" />
    <glyph glyph-name="Scaron" unicode="&#x160;" horiz-adv-x="1022" 
d="M235 293l20 -105q105 -20 175 -20q109 0 183 31q93 39 93 157q0 74 -56.5 124t-168.5 92q-346 129 -346 370q0 369 459 369q198 0 335 -46q22 -7 22 -32l-31 -230q-3 -20 -21 -20h-102q-9 0 -13 3.5t-6 13.5l-22 114q-54 9 -114 9q-80 0 -135 -14q-37 -9 -62 -26
q-59 -39 -59 -122q0 -55 50 -96t152 -78q164 -59 254 -144q104 -95 104 -260q0 -186 -135 -295q-134 -110 -351 -110q-108 0 -199 13q-99 14 -137 26l-43 13q-21 8 -21 30l31 230q3 21 23 21h101q11 0 14.5 -3.5t5.5 -14.5zM469 1679l116 -126l157 126q20 15 36 15
q4 0 17 -3l94 -21q19 -4 19 -16q0 -8 -10 -19l-173 -193q-27 -31 -51 -31h-184q-25 0 -49 36l-135 188q-6 7 -6 19q2 12 21 16l97 21q15 3 20 3q16 0 31 -15z" />
    <glyph glyph-name="scaron" unicode="&#x161;" horiz-adv-x="838" 
d="M199 283l11 -106l4 -1q20 -14 141 -23q107 -4 158 19q56 26 56 91q0 23 -18 40q-17 17 -48 32q-27 13 -69 30q-11 5 -39 16q-122 52 -194 113q-78 70 -78 179q0 150 101 225q100 75 270 75q191 0 299 -49q18 -8 18 -28l-30 -201q-3 -18 -20 -18h-72q-16 0 -18 14l-14 98
l-1 1q-3 0 -22 4t-49.5 7.5t-59.5 3.5q-58 0 -118 -18q-33 -10 -52 -34t-19 -57q-1 -23 16.5 -43t51 -38t67 -32.5t81.5 -34.5t79 -35q66 -31 114 -88q47 -56 47 -129q0 -82 -31.5 -146t-88.5 -101q-110 -72 -266 -72q-75 0 -154 13q-73 11 -128 23q-44 10 -52 14
q-18 7 -18 24q0 7 1 11l31 213q3 19 23 19h75q15 0 15 -11zM370 1359l116 -126l157 126q20 15 36 15q4 0 17 -3l94 -21q19 -4 19 -16q0 -8 -10 -19l-173 -193q-27 -31 -51 -31h-184q-25 0 -49 36l-135 188q-6 7 -6 19q2 12 21 16l97 21q15 3 20 3q16 0 31 -15z" />
    <glyph glyph-name="Tcommaaccent" unicode="&#x162;" horiz-adv-x="1073" 
d="M875 1086h-200l-79 -899l133 -37q17 -5 17 -26l-9 -104q-2 -20 -26 -20h-488q-23 0 -23 20l9 104q2 20 23 26l132 37l79 899h-199l-41 -115q-6 -17 -23 -17h-101q-19 0 -19 20l25 287q1 24 30 24h923q25 0 25 -24l-25 -287q-2 -20 -23 -20h-100q-18 0 -21 17zM569 -128
l-141 -299q-9 -20 -25 -20h-113q-13 0 -13 12l78 317q6 26 28 26h174q20 0 20 -8q0 -9 -8 -28z" />
    <glyph glyph-name="tcommaaccent" unicode="&#x163;" horiz-adv-x="681" 
d="M627 776h-203l-44 -506q0 -53 26 -77.5t84 -24.5q50 0 105 7q22 0 22 -21l-10 -148q-1 -16 -16 -18q-86 -14 -168 -14q-271 0 -271 250q0 4 1 22t1 24l44 506h-121q-28 0 -28 24l12 126q1 24 32 24h121l16 183q2 30 25 30h179q22 0 22 -30l-16 -183h203q28 0 28 -24
l-12 -126q-1 -24 -32 -24zM438 -159l-141 -299q-9 -20 -25 -20h-113q-13 0 -13 12l78 317q6 26 28 26h174q20 0 20 -8q0 -9 -8 -28z" />
    <glyph glyph-name="Tcaron" unicode="&#x164;" horiz-adv-x="1073" 
d="M875 1086h-200l-79 -899l133 -37q17 -5 17 -26l-9 -104q-2 -20 -26 -20h-488q-23 0 -23 20l9 104q2 20 23 26l132 37l79 899h-199l-41 -115q-6 -17 -23 -17h-101q-19 0 -19 20l25 287q1 24 30 24h923q25 0 25 -24l-25 -287q-2 -20 -23 -20h-100q-18 0 -21 17zM485 1679
l116 -126l157 126q20 15 36 15q4 0 17 -3l94 -21q19 -4 19 -16q0 -8 -10 -19l-173 -193q-27 -31 -51 -31h-184q-25 0 -49 36l-135 188q-6 7 -6 19q2 12 21 16l97 21q15 3 20 3q16 0 31 -15z" />
    <glyph glyph-name="tcaron" unicode="&#x165;" horiz-adv-x="700" 
d="M660 776h-203l-44 -506q0 -53 26 -77.5t84 -24.5q50 0 105 7q22 0 22 -21l-10 -148q-1 -16 -16 -18q-86 -14 -168 -14q-271 0 -271 250q0 4 1 22t1 24l44 506h-121q-28 0 -28 24l12 126q2 24 32 24h121l16 183q1 30 25 30h179q22 0 22 -30l-16 -183h203q28 0 28 -24
l-12 -126q-2 -24 -32 -24zM847 1384l-141 -299q-9 -20 -25 -20h-113q-13 0 -13 12l78 317q6 26 28 26h174q20 0 20 -8q0 -9 -8 -28z" />
    <glyph glyph-name="Tbar" unicode="&#x166;" horiz-adv-x="1073" 
d="M875 1086h-200l-31 -344h137q22 0 22 -13l-12 -137q-1 -14 -5.5 -17.5t-17.5 -3.5h-139l-33 -384l133 -37q17 -5 17 -26l-9 -104q-2 -20 -26 -20h-488q-23 0 -23 20l9 104q2 20 23 26l132 37l33 384h-128q-22 0 -22 16l12 135q2 20 24 20h129l31 344h-199l-41 -115
q-6 -17 -23 -17h-101q-19 0 -19 20l25 287q1 24 30 24h923q25 0 25 -24l-25 -287q-2 -20 -23 -20h-100q-18 0 -21 17z" />
    <glyph glyph-name="tbar" unicode="&#x167;" horiz-adv-x="711" 
d="M657 776h-203l-14 -164h123q21 0 21 -19v-6l-11 -114q-2 -20 -26 -20h-121l-16 -183q0 -2 -0.5 -7.5t-0.5 -6.5q0 -88 111 -88q50 0 105 7q22 0 22 -21l-10 -148q-1 -16 -16 -18q-86 -14 -168 -14q-271 0 -271 250q0 4 0.5 9.5t1 16.5t0.5 20l16 183h-94q-27 0 -27 21
l12 121q2 17 23 17h100l14 164h-121q-28 0 -28 24l12 126q1 24 32 24h121l16 183q2 30 25 30h179q22 0 22 -30l-16 -183h203q28 0 28 -24l-12 -126q-1 -24 -32 -24z" />
    <glyph glyph-name="Utilde" unicode="&#x168;" horiz-adv-x="1258" 
d="M385 503q-3 -31 -3 -59q0 -126 59.5 -197.5t162.5 -71.5q111 0 181 86.5t83 241.5l65 752q1 30 27 30h182q23 0 23 -30l-64 -770q-21 -245 -162 -377t-365 -132q-202 0 -312 120t-110 343q0 4 2 38t2 40l50 581l-107 37q-17 5 -17 26l9 104q2 20 26 20h304q29 0 29 -35z
M634 1657q46 0 95 -36q52 -35 79 -35q42 0 103 58q7 6 13 6q8 0 16 -9l61 -67q8 -11 8 -16q0 -4 -7 -15q-78 -132 -199 -132q-40 0 -95 35q-54 36 -78 36q-21 0 -50.5 -16t-52.5 -42q-6 -6 -12 -6q-9 0 -16 9l-61 67q-7 7 -7 15q0 4 5 16q35 63 86.5 97.5t111.5 34.5z" />
    <glyph glyph-name="utilde" unicode="&#x169;" horiz-adv-x="1070" 
d="M150 254l49 525l-101 25q-16 4 -16 21l8 92q2 24 28 26l293 20q12 0 19.5 -9.5t7.5 -23.5l-53 -603q-2 -32 -2 -35q0 -136 107 -136q109 0 215 112l57 651q1 31 26 31h179q21 0 21 -31l-68 -781l88 -22q13 -4 13 -22l-6 -71q-2 -22 -26 -23l-251 -13q-11 0 -15 4
q-6 6 -7 18l-14 113q-164 -150 -326 -150q-107 0 -167.5 67t-60.5 179q0 4 2 36zM535 1337q45 0 95 -36q52 -35 79 -35q42 0 103 58q8 6 13 6q9 0 16 -9l61 -67q8 -11 8 -16q0 -4 -7 -15q-78 -132 -199 -132q-28 -1 -62.5 17.5t-64.5 36.5t-46 17q-21 0 -50.5 -16t-52.5 -42
q-6 -6 -12 -6q-8 0 -16 9l-61 67q-7 7 -7 15q0 4 5 16q35 63 86.5 97.5t111.5 34.5z" />
    <glyph glyph-name="Umacron" unicode="&#x16a;" horiz-adv-x="1258" 
d="M385 503q-3 -31 -3 -59q0 -126 59.5 -197.5t162.5 -71.5q111 0 181 86.5t83 241.5l65 752q1 30 27 30h182q23 0 23 -30l-64 -770q-21 -245 -162 -377t-365 -132q-202 0 -312 120t-110 343q0 4 2 38t2 40l50 581l-107 37q-17 5 -17 26l9 104q2 20 26 20h304q29 0 29 -35z
M481 1433l10 117q3 26 29 26h364q27 0 27 -24l-10 -116q-3 -26 -29 -26h-364q-27 0 -27 23z" />
    <glyph glyph-name="umacron" unicode="&#x16b;" horiz-adv-x="1070" 
d="M150 254l49 525l-101 25q-16 4 -16 21l8 92q2 24 28 26l293 20q12 0 19.5 -9.5t7.5 -23.5l-53 -603q-2 -32 -2 -35q0 -136 107 -136q109 0 215 112l57 651q1 31 26 31h179q21 0 21 -31l-68 -781l88 -22q13 -4 13 -22l-6 -71q-2 -22 -26 -23l-251 -13q-11 0 -15 4
q-6 6 -7 18l-14 113q-164 -150 -326 -150q-107 0 -167.5 67t-60.5 179q0 4 2 36zM400 1115l10 117q3 26 29 26h364q27 0 27 -24l-10 -116q-3 -26 -29 -26h-364q-27 0 -27 23z" />
    <glyph glyph-name="Ubreve" unicode="&#x16c;" horiz-adv-x="1258" 
d="M385 503q-3 -31 -3 -59q0 -126 59.5 -197.5t162.5 -71.5q111 0 181 86.5t83 241.5l65 752q1 30 27 30h182q23 0 23 -30l-64 -770q-21 -245 -162 -377t-365 -132q-202 0 -312 120t-110 343q0 4 2 38t2 40l50 581l-107 37q-17 5 -17 26l9 104q2 20 26 20h304q29 0 29 -35z
M695 1380q-95 0 -159 49q-62 49 -85 120q-9 29 -9 49q0 11 14 16l102 29q10 3 16 3q9 0 14 -15q7 -33 37 -69q30 -33 76 -33q42 0 74 28.5t52 70.5q7 16 13 16q4 0 7 -1l107 -32q10 -3 10 -9q0 -7 -4 -19q-24 -95 -91 -149t-174 -54z" />
    <glyph glyph-name="ubreve" unicode="&#x16d;" horiz-adv-x="1070" 
d="M150 254l49 525l-101 25q-16 4 -16 21l8 92q2 24 28 26l293 20q12 0 19.5 -9.5t7.5 -23.5l-53 -603q-2 -32 -2 -35q0 -136 107 -136q109 0 215 112l57 651q1 31 26 31h179q21 0 21 -31l-68 -781l88 -22q13 -4 13 -22l-6 -71q-2 -22 -26 -23l-251 -13q-11 0 -15 4
q-6 6 -7 18l-14 113q-164 -150 -326 -150q-107 0 -167.5 67t-60.5 179q0 4 2 36zM611 1080q-95 0 -159 49q-62 49 -85 120q-9 29 -9 49q0 11 14 16l102 29q10 3 16 3q10 0 14 -15q7 -33 37 -69q30 -33 76 -33q42 0 74 28.5t52 70.5q7 16 13 16q4 0 7 -1l107 -32q10 -3 10 -9
q0 -7 -4 -19q-24 -95 -91 -149t-174 -54z" />
    <glyph glyph-name="Uring" unicode="&#x16e;" horiz-adv-x="1258" 
d="M385 503q-3 -31 -3 -59q0 -126 59.5 -197.5t162.5 -71.5q111 0 181 86.5t83 241.5l65 752q1 30 27 30h182q23 0 23 -30l-64 -770q-21 -245 -162 -377t-365 -132q-202 0 -312 120t-110 343q0 4 2 38t2 40l50 581l-107 37q-17 5 -17 26l9 104q2 20 26 20h304q29 0 29 -35z
M712 1642q-29 0 -45.5 -18t-16.5 -48q0 -26 17 -45t43 -19q29 0 46.5 18.5t17.5 46.5t-17.5 46.5t-44.5 18.5zM521 1575q0 78 53 128t142 50q87 0 138 -48.5t51 -127.5q0 -74 -54 -124q-52 -48 -137 -48q-86 0 -140 48q-53 50 -53 122z" />
    <glyph glyph-name="uring" unicode="&#x16f;" horiz-adv-x="1070" 
d="M150 254l49 525l-101 25q-16 4 -16 21l8 92q2 24 28 26l293 20q12 0 19.5 -9.5t7.5 -23.5l-53 -603q-2 -32 -2 -35q0 -136 107 -136q109 0 215 112l57 651q1 31 26 31h179q21 0 21 -31l-68 -781l88 -22q13 -4 13 -22l-6 -71q-2 -22 -26 -23l-251 -13q-11 0 -15 4
q-6 6 -7 18l-14 113q-164 -150 -326 -150q-107 0 -167.5 67t-60.5 179q0 4 2 36zM627 1313q-29 0 -45.5 -18t-16.5 -48q0 -26 17 -45t43 -19q29 0 46.5 18.5t17.5 46.5t-17.5 46.5t-44.5 18.5zM436 1246q0 78 53 128t142 50q87 0 138 -48.5t51 -127.5q0 -74 -54 -124
q-52 -48 -137 -48q-86 0 -140 48q-53 50 -53 122z" />
    <glyph glyph-name="Uhungarumlaut" unicode="&#x170;" horiz-adv-x="1260" 
d="M385 503q-3 -31 -3 -59q0 -126 59.5 -197.5t162.5 -71.5q111 0 181 86.5t83 241.5l65 752q1 30 27 30h182q23 0 23 -30l-64 -770q-21 -245 -162 -377t-365 -132q-202 0 -312 120t-110 343q0 4 2 38t2 40l50 581l-107 37q-17 5 -17 26l9 104q2 20 26 20h304q29 0 29 -35z
M787 1604l-178 -179q-15 -15 -37 -15h-135q-19 0 -19 15q0 7 10 20l140 189q26 35 59 35h174q26 0 26 -13q0 -12 -40 -52zM1127 1604l-178 -179q-15 -15 -37 -15h-135q-19 0 -19 15q0 7 10 20l140 189q26 35 59 35h174q26 0 26 -13q0 -12 -40 -52z" />
    <glyph glyph-name="uhungarumlaut" unicode="&#x171;" horiz-adv-x="1122" 
d="M150 254l49 525l-101 25q-16 4 -16 21l8 92q2 24 28 26l293 20q12 0 19.5 -9.5t7.5 -23.5l-53 -603q-2 -32 -2 -35q0 -136 107 -136q109 0 215 112l57 651q1 31 26 31h179q21 0 21 -31l-68 -781l88 -22q13 -4 13 -22l-6 -71q-2 -22 -26 -23l-251 -13q-11 0 -15 4
q-6 6 -7 18l-14 113q-164 -150 -326 -150q-107 0 -167.5 67t-60.5 179q0 4 2 36zM693 1286l-178 -179q-15 -15 -37 -15h-135q-19 0 -19 15q0 7 10 20l140 189q26 35 59 35h174q26 0 26 -13q0 -12 -40 -52zM1033 1286l-178 -179q-15 -15 -37 -15h-135q-19 0 -19 15q0 7 10 20
l140 189q26 35 59 35h174q26 0 26 -13q0 -12 -40 -52z" />
    <glyph glyph-name="Uogonek" unicode="&#x172;" horiz-adv-x="1258" 
d="M385 503q-3 -31 -3 -59q0 -126 59.5 -197.5t162.5 -71.5q111 0 181 86.5t83 241.5l65 752q1 30 27 30h182q23 0 23 -30l-64 -770q-15 -172 -90.5 -290.5t-203.5 -173.5q-134 -136 -134 -227q0 -37 17.5 -58t50.5 -21q17 0 84 19q1 0 8 2t8 2q11 0 15 -9l35 -71
q3 -6 3 -10q-1 -9 -11 -14q-112 -62 -225 -62q-82 0 -137 39t-55 117q0 121 127 249q-2 0 -9.5 -0.5t-9.5 -0.5q-202 0 -312 120t-110 343q0 4 2 38t2 40l50 581l-107 37q-17 5 -17 26l9 104q2 20 26 20h304q29 0 29 -35z" />
    <glyph glyph-name="uogonek" unicode="&#x173;" horiz-adv-x="1070" 
d="M150 254l49 525l-101 25q-16 4 -16 21l8 92q2 24 28 26l293 20q12 0 19.5 -9.5t7.5 -23.5l-53 -603q-2 -32 -2 -35q0 -136 107 -136q109 0 215 112l57 651q1 31 26 31h179q21 0 21 -31l-68 -781l88 -22q13 -4 13 -22l-6 -71q-2 -22 -26 -23l-99 -5q-59 -47 -90 -102
t-31 -106q0 -33 17.5 -52.5t50.5 -19.5q14 0 49 11q36 11 51 11q11 0 16 -11l35 -71q2 -6 2 -8q-1 -8 -10 -13q-112 -62 -226 -62q-82 0 -137 39t-55 118q0 70 39 133.5t118 137.5q-1 2 -3 9l-14 113q-164 -150 -326 -150q-107 0 -167.5 67t-60.5 179q0 4 2 36z" />
    <glyph glyph-name="Wcircumflex" unicode="&#x174;" horiz-adv-x="1781" 
d="M1047 1260l114 -961q4 -32 4 -64v-8q62 151 113 292q65 180 88 250q71 216 85 260q18 57 71 220q6 17 21 26.5t29 9.5h186q12 0 20.5 -8.5t8.5 -20.5q0 -6 -3 -14q-113 -334 -249 -674q-137 -341 -248 -536q-20 -32 -50 -32h-190q-38 0 -43 35l-87 641q-1 -3 -6 -17
t-14.5 -42t-20.5 -58q-13 -36 -32.5 -90.5t-26.5 -74.5q-49 -133 -55 -150q-64 -173 -86 -212q-21 -32 -48 -32h-193q-35 0 -43 35l-220 1063l-105 37q-18 7 -18 26l9 104q2 20 27 20h277q14 0 27 -9.5t16 -26.5l139 -914q8 -50 8 -91l1 -15q29 70 141 379q107 294 169 482
l-19 160q-1 3 -1 18q1 11 8 14t28 3h128q34 0 40 -25zM1101 1406l-126 126l-147 -126q-19 -15 -36 -15q-3 0 -17 3l-94 21q-19 4 -19 15q0 9 10 20l169 188q32 36 55 36h182q24 0 51 -36l135 -188q9 -11 9 -19q0 -10 -24 -16l-97 -21q-15 -3 -18 -3q-18 0 -33 15z" />
    <glyph glyph-name="wcircumflex" unicode="&#x175;" horiz-adv-x="1455" 
d="M666 786l-18 149q2 15 32 15h167q28 0 30 -25l65 -647q3 -31 3 -64q0 -4 -0.5 -18.5t-0.5 -17.5q201 464 251 741q6 31 27 31h201q24 0 24 -19q0 -2 -2 -12q-37 -165 -153 -430q-113 -256 -235 -459q-17 -30 -53 -30h-161q-33 0 -37 25q-66 435 -72 478
q-101 -318 -173 -473q-13 -30 -54 -30h-157q-32 0 -36 25l-168 749l-115 27q-15 3 -15 21l8 86q2 23 28 26l288 29q22 0 28 -32q35 -201 88 -673l3 -80q150 377 207 608zM900 1083l-126 126l-147 -126q-19 -15 -36 -15q-3 0 -17 3l-94 21q-19 4 -19 15q0 9 10 20l169 188
q32 36 55 36h182q24 0 51 -36l135 -188q9 -11 9 -19q0 -10 -24 -16l-97 -21q-15 -3 -18 -3q-18 0 -33 15z" />
    <glyph glyph-name="Ycircumflex" unicode="&#x176;" horiz-adv-x="1101" 
d="M259 560q-24 77 -54 326q-17 138 -28 210l-111 39q-17 5 -17 26l9 104q2 20 26 20h281q31 0 33 -30l9 -113q11 -142 22 -252q13 -140 24 -192q16 -91 100 -91q70 0 112 2l186 648q7 28 36 28h190q31 0 31 -20q0 -3 -1 -5q-181 -578 -360 -1021q-59 -145 -147 -201
q-89 -56 -247 -56q-89 0 -151 14q-25 5 -30 7q-12 3 -12 15q0 5 37 156q5 15 19 15l4 -1h4q54 -8 104 -8q61 0 94.5 6.5t65.5 26.5q58 37 107 182l8 25h-137q-88 0 -136.5 34t-70.5 106zM772 1406l-126 126l-147 -126q-19 -15 -36 -15q-3 0 -17 3l-94 21q-19 4 -19 15
q0 9 10 20l169 188q32 36 55 36h182q24 0 51 -36l135 -188q9 -10 9 -19q0 -10 -24 -16l-97 -21q-15 -3 -18 -3q-18 0 -33 15z" />
    <glyph glyph-name="ycircumflex" unicode="&#x177;" horiz-adv-x="1071" 
d="M390 921l23 -209q23 -207 82 -479q4 -19 21 -31.5t40 -13.5q54 106 135 324q81 219 132 417q5 21 29 21h202q23 0 23 -20q0 -6 -3 -13q-113 -316 -291 -699q-93 -202 -187 -360q-95 -162 -164 -221q-101 -86 -247 -86q-66 0 -124 8q-18 5 -18 22l25 149q3 18 22 18h58
q68 0 102.5 8t58.5 29q55 48 147 215q-56 4 -90 31t-58 83q-37 91 -61 210q-33 160 -82 446l-114 27q-16 3 -16 21l8 88q2 23 29 26l287 29q27 0 31 -40zM750 1083l-126 126l-147 -126q-19 -15 -36 -15q-3 0 -17 3l-94 21q-19 4 -19 15q0 9 10 20l169 188q32 36 55 36h182
q24 0 51 -36l135 -188q9 -11 9 -19q0 -10 -24 -16l-97 -21q-15 -3 -18 -3q-18 0 -33 15z" />
    <glyph glyph-name="Ydieresis" unicode="&#x178;" horiz-adv-x="1101" 
d="M259 560q-24 77 -54 326q-17 138 -28 210l-111 39q-17 5 -17 26l9 104q2 20 26 20h281q31 0 33 -30l9 -113q11 -142 22 -252q13 -140 24 -192q16 -91 100 -91q70 0 112 2l186 648q7 28 36 28h190q31 0 31 -20q0 -3 -1 -5q-181 -578 -360 -1021q-59 -145 -147 -201
q-89 -56 -247 -56q-89 0 -151 14q-25 5 -30 7q-12 3 -12 15q0 5 37 156q5 15 19 15l4 -1h4q54 -8 104 -8q61 0 94.5 6.5t65.5 26.5q58 37 107 182l8 25h-137q-88 0 -136.5 34t-70.5 106zM330 1510q0 51 29 78t83 27q53 0 82.5 -27.5t29.5 -77.5q0 -49 -30 -77.5t-82 -28.5
q-54 0 -83 28t-29 78zM705 1510q0 50 29 77.5t84 27.5q53 0 82 -27.5t29 -77.5q0 -49 -29.5 -77.5t-81.5 -28.5q-54 0 -83.5 28.5t-29.5 77.5z" />
    <glyph glyph-name="Zacute" unicode="&#x179;" horiz-adv-x="1094" 
d="M334 1086l-53 -115q-8 -17 -21 -17h-102q-19 0 -19 20l24 283q1 12 6 20q8 8 23 8h818q14 0 24.5 -10.5t10.5 -26.5l-12 -132q-2 -24 -15 -40l-678 -877h350q54 0 84.5 34.5t37.5 91.5q1 11 8.5 20.5t20.5 9.5h156q18 0 18 -25q-21 -188 -92 -259t-216 -71h-601
q-46 0 -46 37l11 125q1 26 16 40l672 884h-425zM915 1627l-233 -201q-18 -15 -38 -15h-140q-19 0 -19 14q0 8 10 21l162 189q19 22 30.5 28.5t29.5 6.5h187q28 0 28 -12q0 -16 -17 -31z" />
    <glyph glyph-name="zacute" unicode="&#x17a;" horiz-adv-x="871" 
d="M833 291q0 -167 -85 -232q-75 -59 -209 -59h-460q-13 0 -21.5 7t-8.5 19l12 141q2 24 17 44l5 7l484 540h-312l-46 -104q-6 -15 -20 -15h-73q-18 0 -18 19l14 267q1 25 27 25h664q26 0 26 -27l-13 -149q-2 -17 -12 -30l-4 -5l-488 -548h234q52 0 73.5 22.5t25.5 73.5
q1 31 27 31h139q22 0 22 -27zM811 1308l-233 -201q-18 -15 -38 -15h-140q-19 0 -19 14q0 8 10 21l162 189q19 22 30.5 28.5t29.5 6.5h187q28 0 28 -12q0 -16 -17 -31z" />
    <glyph glyph-name="Zdotaccent" unicode="&#x17b;" horiz-adv-x="1094" 
d="M334 1086l-53 -115q-8 -17 -21 -17h-102q-19 0 -19 20l24 283q1 12 6 20q8 8 23 8h818q14 0 24.5 -10.5t10.5 -26.5l-12 -132q-2 -24 -15 -40l-678 -877h350q54 0 84.5 34.5t37.5 91.5q1 11 8.5 20.5t20.5 9.5h156q18 0 18 -25q-21 -188 -92 -259t-216 -71h-601
q-46 0 -46 37l11 125q1 26 16 40l672 884h-425zM641 1655q60 0 94 -32.5t34 -89.5t-34 -89.5t-94 -32.5t-93.5 32.5t-33.5 89.5t33.5 89.5t93.5 32.5z" />
    <glyph glyph-name="zdotaccent" unicode="&#x17c;" horiz-adv-x="871" 
d="M833 291q0 -167 -85 -232q-75 -59 -209 -59h-460q-13 0 -21.5 7t-8.5 19l12 141q2 24 17 44l5 7l484 540h-312l-46 -104q-6 -15 -20 -15h-73q-18 0 -18 19l14 267q1 25 27 25h664q26 0 26 -27l-13 -149q-2 -17 -12 -30l-4 -5l-488 -548h234q52 0 73.5 22.5t25.5 73.5
q1 31 27 31h139q22 0 22 -27zM483 1322q60 0 94 -32.5t34 -89.5t-34 -89.5t-94 -32.5t-93.5 32.5t-33.5 89.5t33.5 89.5t93.5 32.5z" />
    <glyph glyph-name="Zcaron" unicode="&#x17d;" horiz-adv-x="1094" 
d="M334 1086l-53 -115q-8 -17 -21 -17h-102q-19 0 -19 20l24 283q1 12 6 20q8 8 23 8h818q14 0 24.5 -10.5t10.5 -26.5l-12 -132q-2 -24 -15 -40l-678 -877h350q54 0 84.5 34.5t37.5 91.5q1 11 8.5 20.5t20.5 9.5h156q18 0 18 -25q-21 -188 -92 -259t-216 -71h-601
q-46 0 -46 37l11 125q1 26 16 40l672 884h-425zM519 1679l116 -126l157 126q20 15 36 15q4 0 17 -3l94 -21q19 -4 19 -16q0 -8 -10 -19l-173 -193q-27 -31 -51 -31h-184q-25 0 -49 36l-135 188q-6 7 -6 19q2 12 21 16l97 21q15 3 20 3q16 0 31 -15z" />
    <glyph glyph-name="zcaron" unicode="&#x17e;" horiz-adv-x="871" 
d="M833 291q0 -167 -85 -232q-75 -59 -209 -59h-460q-13 0 -21.5 7t-8.5 19l12 141q2 24 17 44l5 7l484 540h-312l-46 -104q-6 -15 -20 -15h-73q-18 0 -18 19l14 267q1 25 27 25h664q26 0 26 -27l-13 -149q-2 -17 -12 -30l-4 -5l-488 -548h234q52 0 73.5 22.5t25.5 73.5
q1 31 27 31h139q22 0 22 -27zM348 1359l116 -126l157 126q19 15 36 15q3 0 17 -3l94 -21q19 -4 19 -16q0 -8 -10 -19l-173 -193q-27 -31 -51 -31h-184q-25 0 -49 36l-135 188q-6 7 -6 19q2 12 21 16l97 21q15 3 20 3q16 0 31 -15z" />
    <glyph glyph-name="longs" unicode="&#x17f;" horiz-adv-x="596" 
d="M222 764l-106 28q-16 3 -16 21l7 95q2 24 29 26h101l16 185q29 314 298 314q95 0 185 -31q15 -4 15 -24l-12 -138q-2 -17 -17 -17q-79 17 -121 17q-35 0 -55 -10q-29 -12 -45.5 -43t-22.5 -97l-93 -1060q-3 -30 -26 -30h-178q-23 0 -23 26z" />
    <glyph glyph-name="uni018F" unicode="&#x18f;" horiz-adv-x="1196" 
d="M535 178q111 0 191 80q81 82 115 216h-535q-1 -6 -1 -27q0 -155 96 -229q53 -40 134 -40zM100 673h770q0 13 0.5 26t1 19.5t0.5 9.5q0 191 -98 287t-288 96q-130 0 -300 -53q-9 -3 -13 -3q-10 0 -11 13l-10 144q1 13 19 19q195 77 370 77q270 0 421 -154
q152 -155 152 -424q0 -35 -4 -88q-33 -409 -287 -579q-129 -87 -303 -87q-222 0 -335.5 149.5t-113.5 429.5q0 22 5 97q2 21 24 21z" />
    <glyph glyph-name="florin" unicode="&#x192;" horiz-adv-x="737" 
d="M652 639h-205q-48 -434 -124 -690q-31 -107 -72 -193q-40 -85 -70 -125q-30 -41 -70 -82q-7 -10 -21 -10q-12 0 -22 10l-101 107q-9 9 0 25q12 20 16 26q73 117 112 245q37 122 61 245q28 135 38 217q16 129 26 225h-119q-21 0 -21 25l11 130q2 20 31 20h118
q17 126 27 181q57 314 303 314q48 0 94 -6q42 -5 68 -11q7 -1 12.5 -2.5t10 -3t5.5 -1.5q11 -5 11 -19l-29 -144q-3 -17 -17 -17q-1 0 -8 1.5t-18.5 3.5t-26 4t-33 3.5t-35.5 1.5q-34 0 -66 -18q-16 -9 -36 -59q-6 -13 -12 -47q-6 -29 -9 -55q-3 -22 -9 -69q-5 -48 -7 -57
h208q17 0 17 -17l-11 -136q-1 -22 -27 -22z" />
    <glyph glyph-name="Aringacute" unicode="&#x1fa;" horiz-adv-x="1136" 
d="M767 283h-384l-123 -264q-9 -19 -25 -19h-207q-13 0 -13 14q0 2 2 8l405 847l-87 26q-19 6 -19 21l10 115q2 20 26 20h442q17 0 20 -14l262 -1015q2 -8 2 -10q0 -12 -15 -12h-207q-12 0 -16.5 4t-7.5 15zM468 1291q0 78 53 128t142 50q87 0 138 -48.5t51 -127.5
q0 -75 -54 -124q-52 -48 -137 -48q-86 0 -140 48q-53 50 -53 122zM472 477h248q-68 280 -88 379v4l-1 1q-29 -93 -159 -384zM930 1671l-156 -131q-16 -15 -38 -15h-123q-18 0 -18 14q0 9 9 21l118 140q19 22 30.5 28.5t29.5 6.5h170q28 0 28 -12q0 -11 -12 -20
q-2 -2 -16.5 -13.5t-21.5 -18.5zM659 1358q-29 0 -45.5 -18t-16.5 -48q0 -26 17 -45t43 -19q29 0 46.5 18.5t17.5 46.5t-17.5 46.5t-44.5 18.5z" />
    <glyph glyph-name="aringacute" unicode="&#x1fb;" horiz-adv-x="1060" 
d="M566 776q-95 0 -160.5 -49t-93.5 -130q-26 -78 -26 -177q0 -101 38 -180q21 -43 60 -67.5t92 -24.5q39 0 89.5 25t96.5 65l46 517q-74 21 -142 21zM669 116q-68 -70 -143 -105t-140 -35q-177 0 -255 127q-71 116 -71 292q0 261 133 419q133 160 361 160q168 0 356 -60
q25 -8 25 -21l-65 -753l93 -23q11 -3 11 -21l-6 -69q-1 -23 -25 -25l-245 -12q-8 0 -14 2q-9 5 -10 18zM665 1283q-29 0 -45.5 -18t-16.5 -48q0 -26 17 -45t43 -19q29 0 46.5 18.5t17.5 46.5t-17.5 46.5t-44.5 18.5zM474 1216q0 78 53 128t142 50q87 0 138 -48.5t51 -127.5
q0 -74 -54 -124q-52 -48 -137 -48q-86 0 -140 48q-53 50 -53 122zM961 1606l-156 -131q-17 -15 -38 -15h-123q-18 0 -18 14q0 9 9 21l118 140q19 22 30.5 28.5t29.5 6.5h170q28 0 28 -12q0 -11 -12 -20q-2 -2 -16.5 -13.5t-21.5 -18.5z" />
    <glyph glyph-name="AEacute" unicode="&#x1fc;" horiz-adv-x="1617" 
d="M797 1077q-44 -89 -143 -274q-84 -159 -153 -296h293q1 76 1 285q0 50 0.5 147t1.5 138zM1459 0h-638q-6 0 -10 5t-4 11q-4 163 -8 296h-398l-150 -292q-11 -20 -26 -20h-207q-13 0 -13 14q0 2 2 8l588 1076l-105 37q-19 7 -19 21l9 109q2 20 28 20h1028q32 0 32 -35
l-11 -129q-5 -35 -38 -35h-525q1 -59 3 -145q0 -26 0.5 -75t1.5 -72h428q32 0 32 -35l-11 -130q-4 -34 -38 -34h-408q2 -73 6 -194q5 -122 6 -202h462q20 0 20 -31l-12 -138q-3 -30 -25 -30zM1258 1627l-233 -201q-17 -15 -38 -15h-140q-19 0 -19 14q0 8 10 21l162 189
q19 22 30.5 28.5t29.5 6.5h187q28 0 28 -12q0 -16 -17 -31z" />
    <glyph glyph-name="aeacute" unicode="&#x1fd;" horiz-adv-x="1450" 
d="M566 306l9 104h-31q-33 0 -73 -2q-31 -2 -71 -9q-38 -7 -66 -22q-27 -14 -46.5 -41.5t-22.5 -62.5q0 -2 -0.5 -7.5t-0.5 -6.5q0 -50 32 -78.5t82 -28.5q47 0 97 25q50 24 85 67zM1048 800q-86 0 -141 -64q-55 -62 -70 -149h356l1 11q2 32 2 35q0 167 -148 167zM1363 412
h-547v-11q0 -118 66 -180.5t194 -62.5q94 0 224 45l8 2q18 0 18 -24l7 -132q0 -14 -17 -22q-137 -55 -301 -55q-125 0 -214.5 48.5t-130.5 137.5q-69 -98 -158 -143q-32 -17 -80 -28q-38 -9 -71 -11q-34 -2 -65 -2q-103 0 -176 65q-72 66 -72 183q0 24 1 31q10 117 68 188
q50 62 140 93q73 24 179 30q54 2 93 2h60l4 47q1 7 1 28q0 76 -44 113.5t-139 37.5q-51 0 -234 -49q-4 -1 -9 -2h-3q-10 0 -10 11l19 145q2 12 17 18q141 59 268 59q101 0 170 -31q71 -32 129 -115q117 146 297 146q187 0 266 -97q80 -97 80 -300q0 -57 -7 -137
q-1 -28 -31 -28zM1123 1308l-233 -201q-18 -15 -38 -15h-140q-19 0 -19 14q0 8 10 21l162 189q19 22 30.5 28.5t29.5 6.5h187q28 0 28 -12q0 -16 -17 -31z" />
    <glyph glyph-name="Oslashacute" unicode="&#x1fe;" horiz-adv-x="1286" 
d="M74 -96l972 1479q19 28 40 28h107q11 0 11 -11q0 -4 -4 -11l-981 -1494q-11 -14 -30 -14h-105q-13 0 -13 12q0 5 3 11zM975 1626l-233 -201q-18 -15 -38 -15h-140q-19 0 -19 14q0 8 10 21l162 189q19 22 30.5 28.5t29.5 6.5h187q28 0 28 -12q0 -16 -17 -31zM659 1114
q-326 0 -326 -572q0 -371 243 -371q142 0 234 147q92 148 92 441q0 355 -243 355zM559 -24q-148 0 -261 71q-62 41 -107 104q-100 142 -100 404q0 361 144 558q144 196 441 196q241 0 359 -162q111 -152 111 -402q0 -257 -69 -424q-61 -155 -172 -238q-141 -107 -346 -107z
" />
    <glyph glyph-name="oslashacute" unicode="&#x1ff;" horiz-adv-x="1018" 
d="M108 -72l713 1083q7 12 22 12h90q12 -3 12 -14q0 -4 -4 -9l-707 -1080q-13 -19 -31 -19h-85q-15 0 -15 12q0 7 5 15zM65 432q0 118 28.5 215t85 171t149.5 115t215 41q124 0 221 -55q59 -33 98 -80q44 -51 70 -134.5t26 -187.5q0 -123 -28.5 -221t-86 -170t-150 -111
t-213.5 -39q-205 0 -310 122t-105 334zM478 154q136 0 193 115q51 102 51 246q0 279 -181 279q-242 0 -242 -368q0 -129 45.5 -200.5t133.5 -71.5zM859 1309l-233 -201q-18 -15 -38 -15h-140q-19 0 -19 14q0 8 10 21l162 189q19 22 30.5 28.5t29.5 6.5h187q28 0 28 -12
q0 -16 -17 -31z" />
    <glyph glyph-name="Scommaaccent" unicode="&#x218;" horiz-adv-x="1022" 
d="M235 293l20 -105q105 -20 175 -20q109 0 183 31q93 39 93 157q0 74 -56.5 124t-168.5 92q-346 129 -346 370q0 369 459 369q198 0 335 -46q22 -7 22 -32l-31 -230q-3 -20 -21 -20h-102q-9 0 -13 3.5t-6 13.5l-22 114q-54 9 -114 9q-80 0 -135 -14q-37 -9 -62 -26
q-59 -39 -59 -122q0 -55 50 -96t152 -78q164 -59 254 -144q104 -95 104 -260q0 -186 -135 -295q-134 -110 -351 -110q-108 0 -199 13q-99 14 -137 26l-43 13q-21 8 -21 30l31 230q3 21 23 21h101q11 0 14.5 -3.5t5.5 -14.5zM583 -127l-141 -299q-9 -20 -25 -20h-113
q-13 0 -13 12l78 317q6 26 28 26h174q20 0 20 -8q0 -9 -8 -28z" />
    <glyph glyph-name="scommaaccent" unicode="&#x219;" horiz-adv-x="838" 
d="M199 283l11 -106l4 -1q20 -14 141 -23q107 -4 158 19q56 26 56 91q0 23 -18 40q-17 17 -48 32q-27 13 -69 30q-11 5 -39 16q-122 52 -194 113q-78 70 -78 179q0 150 101 225q100 75 270 75q191 0 299 -49q18 -8 18 -28l-30 -201q-3 -18 -20 -18h-72q-16 0 -18 14l-14 98
l-1 1q-3 0 -22 4t-49.5 7.5t-59.5 3.5q-58 0 -118 -18q-33 -10 -52 -34t-19 -57q-1 -23 16.5 -43t51 -38t67 -32.5t81.5 -34.5t79 -35q66 -31 114 -88q47 -56 47 -129q0 -82 -31.5 -146t-88.5 -101q-110 -72 -266 -72q-75 0 -154 13q-73 11 -128 23q-44 10 -52 14
q-18 7 -18 24q0 7 1 11l31 213q3 19 23 19h75q15 0 15 -11zM490 -159l-141 -299q-9 -20 -25 -20h-113q-13 0 -13 12l78 317q6 26 28 26h174q20 0 20 -8q0 -9 -8 -28z" />
    <glyph glyph-name="uni021A" unicode="&#x21a;" horiz-adv-x="1073" 
d="M875 1086h-200l-79 -899l133 -37q17 -5 17 -26l-9 -104q-2 -20 -26 -20h-488q-23 0 -23 20l9 104q2 20 23 26l132 37l79 899h-199l-41 -115q-6 -17 -23 -17h-101q-19 0 -19 20l25 287q1 24 30 24h923q25 0 25 -24l-25 -287q-2 -20 -23 -20h-100q-18 0 -21 17zM555 -159
l-141 -299q-9 -20 -25 -20h-113q-13 0 -13 12l78 317q6 26 28 26h174q20 0 20 -8q0 -9 -8 -28z" />
    <glyph glyph-name="uni021B" unicode="&#x21b;" horiz-adv-x="681" 
d="M627 776h-203l-44 -506q0 -53 26 -77.5t84 -24.5q50 0 105 7q22 0 22 -21l-10 -148q-1 -16 -16 -18q-86 -14 -168 -14q-271 0 -271 250q0 4 1 22t1 24l44 506h-121q-28 0 -28 24l12 126q1 24 32 24h121l16 183q2 30 25 30h179q22 0 22 -30l-16 -183h203q28 0 28 -24
l-12 -126q-1 -24 -32 -24zM431 -159l-141 -299q-9 -20 -25 -20h-113q-13 0 -13 12l78 317q6 26 28 26h174q20 0 20 -8q0 -9 -8 -28z" />
    <glyph glyph-name="uni0259" unicode="&#x259;" horiz-adv-x="924" 
d="M60 494q2 29 31 29h550v27q0 125 -63.5 181t-199.5 56q-94 0 -224 -45l-8 -2q-18 0 -19 22l-5 134q0 14 16 21q141 56 302 56q197 0 305 -111t108 -309q0 -265 -111 -423q-110 -156 -323 -156q-179 0 -271.5 108.5t-92.5 312.5q0 41 5 99zM421 148q74 0 127 56
q52 57 69 144h-356v-11q0 -88 43.5 -138.5t116.5 -50.5z" />
    <glyph glyph-name="uni02BC" unicode="&#x2bc;" horiz-adv-x="467" 
d="M531 1404l-205 -463q-7 -16 -22 -16h-117q-14 0 -14 13l1 2q0 1 0.5 4t0.5 5l100 455q3 16 23 16h217q18 0 18 -7q0 -3 -2 -9z" />
    <glyph glyph-name="circumflex" unicode="&#x2c6;" horiz-adv-x="704" 
d="M498 1083l-126 126l-147 -126q-19 -15 -36 -15q-3 0 -17 3l-94 21q-19 4 -19 15q0 9 10 20l169 188q32 36 55 36h182q24 0 51 -36l135 -188q9 -11 9 -19q0 -10 -24 -16l-97 -21q-15 -3 -18 -3q-18 0 -33 15z" />
    <glyph glyph-name="caron" unicode="&#x2c7;" horiz-adv-x="724" 
d="M227 1359l116 -126l157 126q20 15 36 15q4 0 17 -3l94 -21q19 -4 19 -16q0 -8 -10 -19l-173 -193q-27 -31 -51 -31h-184q-25 0 -49 36l-135 188q-6 7 -6 19q2 12 21 16l97 21q15 3 20 3q16 0 31 -15z" />
    <glyph glyph-name="breve" unicode="&#x2d8;" horiz-adv-x="628" 
d="M302 1080q-95 0 -159 49q-62 49 -85 120q-9 29 -9 49q0 11 14 16l102 29q10 3 16 3q9 0 14 -15q7 -33 37 -69q30 -33 76 -33q42 0 74 28.5t52 70.5q7 16 13 16q4 0 7 -1l107 -32q10 -3 10 -9q0 -7 -4 -19q-24 -95 -91 -149t-174 -54z" />
    <glyph glyph-name="dotaccent" unicode="&#x2d9;" horiz-adv-x="371" 
d="M185 1332q60 0 94 -32.5t34 -89.5t-34 -89.5t-94 -32.5t-93.5 32.5t-33.5 89.5t33.5 89.5t93.5 32.5z" />
    <glyph glyph-name="ring" unicode="&#x2da;" horiz-adv-x="500" 
d="M249 1313q-29 0 -45.5 -18t-16.5 -48q0 -26 17 -45t43 -19q29 0 46.5 18.5t17.5 46.5t-17.5 46.5t-44.5 18.5zM58 1246q0 78 53 128t142 50q87 0 138 -48.5t51 -127.5q0 -74 -54 -124q-52 -48 -137 -48q-86 0 -140 48q-53 50 -53 122z" />
    <glyph glyph-name="ogonek" unicode="&#x2db;" horiz-adv-x="450" 
d="M431 -366q-115 -62 -225 -62q-82 0 -137 39t-55 117q0 89 61 168q19 24 58 68q31 31 70 66h177l-41 -35q-56 -47 -87 -102t-31 -99q0 -37 17.5 -58t50.5 -21q23 0 57 11q24 7 27 8q11 4 18 4q9 0 13 -9l35 -71q3 -4 3 -10q0 -8 -11 -14z" />
    <glyph glyph-name="tilde" unicode="&#x2dc;" horiz-adv-x="693" 
d="M261 1337q45 0 95 -36q52 -35 79 -35q42 0 103 58q8 6 13 6q9 0 16 -9l61 -67q8 -11 8 -16q0 -4 -7 -15q-78 -132 -199 -132q-28 -1 -62.5 17.5t-64.5 36.5t-46 17q-21 0 -50.5 -16t-52.5 -42q-6 -6 -12 -6q-8 0 -16 9l-61 67q-7 7 -7 15q0 4 5 16q35 63 86.5 97.5
t111.5 34.5z" />
    <glyph glyph-name="hungarumlaut" unicode="&#x2dd;" horiz-adv-x="865" 
d="M427 1286l-178 -179q-15 -15 -37 -15h-135q-19 0 -19 15q0 7 10 20l140 189q26 35 59 35h174q26 0 26 -13q0 -12 -40 -52zM767 1286l-178 -179q-15 -15 -37 -15h-135q-19 0 -19 15q0 7 10 20l140 189q26 35 59 35h174q26 0 26 -13q0 -12 -40 -52z" />
    <glyph glyph-name="uni037E" unicode="&#x37e;" horiz-adv-x="519" 
d="M405 245l-220 -472q-9 -17 -20 -17h-132q-15 0 -15 9q0 3 3 13l125 469q1 6 7 11t13 5h223q18 0 18 -11q0 -1 -2 -7zM324 621q-66 0 -106 40.5t-40 106.5t41 110q42 44 105 44q62 0 106 -45q44 -44 44 -109q0 -66 -42 -106.5t-108 -40.5z" />
    <glyph glyph-name="tonos" unicode="&#x384;" horiz-adv-x="365" 
d="M375 1345l-103 -242q-8 -21 -26 -21h-112q-13 0 -13 11l51 248q6 26 32 26h156q17 0 17 -14z" />
    <glyph glyph-name="dieresistonos" unicode="&#x385;" horiz-adv-x="743" 
d="M117 1189q0 48 27.5 74t78.5 26q50 0 77.5 -26t27.5 -74q0 -46 -27.5 -73t-77.5 -27t-78 27t-28 73zM627 1189q0 48 27.5 74t78.5 26q50 0 77.5 -26t27.5 -74q0 -46 -27.5 -73t-77.5 -27t-78 27t-28 73zM627 1345l-103 -242q-8 -21 -26 -21h-112q-13 0 -13 11l51 248
q6 26 32 26h156q17 0 17 -14z" />
    <glyph glyph-name="Alphatonos" unicode="&#x386;" horiz-adv-x="1189" 
d="M641 1027l-166 -451l-25 -69h320l-5 33q-15 92 -86 487q-7 41 -9 69l-1 12h-4q-9 -38 -24 -81zM461 1098l-106 37q-18 7 -18 26l9 104q2 20 26 20h453q17 0 20 -14l262 -1249q1 -3 1 -9q0 -13 -14 -13h-207q-21 0 -24 19l-58 294h-423l-111 -294q-7 -19 -25 -19h-207
q-14 0 -14 13q0 3 3 9zM308 1345l-103 -242q-7 -21 -26 -21h-112q-13 0 -13 11l51 248q6 26 32 26h156q17 0 17 -14z" />
    <glyph glyph-name="anoteleia" unicode="&#x387;" horiz-adv-x="528" 
d="M231 382q-66 0 -107 40t-41 106t43 109q44 45 106 45q64 0 107 -45q44 -44 44 -109t-42.5 -105.5t-109.5 -40.5z" />
    <glyph glyph-name="Epsilontonos" unicode="&#x388;" horiz-adv-x="1227" 
d="M975 595h-354l-35 -396h497q21 0 21 -16l-13 -153q-3 -30 -25 -30h-705q-21 0 -21 30l94 1068l-107 37q-17 5 -17 26l9 104q2 20 26 20h824q31 0 31 -28l-11 -139q-3 -32 -37 -32h-488l-26 -292h354q30 0 30 -35l-11 -130q-4 -34 -36 -34zM280 1345l-103 -242
q-8 -21 -26 -21h-112q-13 0 -13 11l51 248q6 26 32 26h156q17 0 17 -14z" />
    <glyph glyph-name="Etatonos" unicode="&#x389;" horiz-adv-x="1471" 
d="M433 1098l-107 37q-17 5 -17 26l9 104q2 20 26 20h302q31 0 31 -35l-46 -527h467l47 532q1 30 27 30h185q21 0 21 -30l-107 -1225q-3 -30 -26 -30h-185q-22 0 -22 30l42 494h-467l-43 -494q-3 -30 -25 -30h-185q-21 0 -21 30zM280 1345l-103 -242q-8 -21 -26 -21h-112
q-13 0 -13 11l51 248q6 26 32 26h156q17 0 17 -14z" />
    <glyph glyph-name="Iotatonos" unicode="&#x38a;" horiz-adv-x="919" 
d="M605 187l126 -37q17 -5 17 -26l-9 -104q-2 -20 -26 -20h-481q-23 0 -23 20l9 104q2 20 22 26l132 37l80 911l-126 37q-17 5 -17 26l9 104q2 20 26 20h481q23 0 23 -20l-9 -104q-2 -20 -22 -26l-132 -37zM280 1345l-103 -242q-8 -21 -26 -21h-112q-13 0 -13 11l51 248
q6 26 32 26h156q17 0 17 -14z" />
    <glyph glyph-name="Omicrontonos" unicode="&#x38c;" horiz-adv-x="1254" 
d="M685 1114q-326 0 -326 -572q0 -371 243 -371q142 0 234 147q92 148 92 441q0 355 -243 355zM585 -24q-148 0 -261 71q-62 41 -107 104q-100 142 -100 404q0 361 144 558q144 196 441 196q241 0 359 -162q111 -152 111 -402q0 -257 -69 -424q-61 -155 -172 -238
q-141 -107 -346 -107zM280 1345l-103 -242q-8 -21 -26 -21h-112q-13 0 -13 11l51 248q6 26 32 26h156q17 0 17 -14z" />
    <glyph glyph-name="Upsilontonos" unicode="&#x38e;" horiz-adv-x="1468" 
d="M903 0h-187q-21 0 -21 30l32 363q-104 300 -273 703l-125 39q-18 6 -18 22l9 105q2 23 27 23h275q18 0 33 -25q104 -249 197 -568l14 -48q4 12 19 44q164 349 296 572q15 25 38 25h214q30 0 30 -19q0 -7 -8 -21q-12 -20 -48.5 -80.5t-61.5 -102.5q-28 -47 -60 -100.5
t-36 -60.5q-30 -52 -72 -122q-15 -26 -38 -65t-30 -51q-12 -21 -51 -89q-12 -22 -31 -56t-22 -40q-12 -23 -45 -85l-32 -363q-2 -30 -25 -30zM280 1345l-103 -242q-8 -21 -26 -21h-112q-13 0 -13 11l51 248q6 26 32 26h156q17 0 17 -14z" />
    <glyph glyph-name="Omegatonos" unicode="&#x38f;" horiz-adv-x="1286" 
d="M694 1312q131 0 229.5 -39.5t159.5 -113t91 -173t30 -224.5q0 -164 -54 -312q-54 -149 -138 -263l155 -40q17 -6 17 -21l-9 -106q-2 -20 -26 -20h-401q-23 0 -23 20l9 104q2 15 14 27q209 194 209 601q0 363 -265 363q-178 0 -265 -183q-42 -86 -57 -234q-6 -57 -6 -117
q0 -131 38 -250q39 -116 98 -180q9 -9 9 -23l-9 -108q-2 -20 -25 -20h-391q-23 0 -23 20l9 104q2 20 22 26l162 40q-48 85 -88 213q-38 128 -38 241q0 108 20.5 205t65 182t109.5 147t160 98t211 36zM280 1345l-103 -242q-8 -21 -26 -21h-112q-13 0 -13 11l51 248
q6 26 32 26h156q17 0 17 -14z" />
    <glyph glyph-name="iotadieresistonos" unicode="&#x390;" horiz-adv-x="790" 
d="M662 162h29q13 0 13 -19v-134q0 -22 -24 -25q-70 -10 -160 -10q-133 0 -185 67q-53 68 -53 189q0 34 3 72l42 480l-101 25q-16 4 -16 21l8 88q2 24 28 26l293 20q12 0 20 -8t8 -21l-56 -637q-1 -5 -1 -21q0 -86 70 -105q32 -8 82 -8zM86 1189q0 48 27.5 74t78.5 26
q50 0 77.5 -26t27.5 -74q0 -46 -27.5 -73t-77.5 -27t-78 27t-28 73zM596 1189q0 48 27.5 74t78.5 26q50 0 77.5 -26t27.5 -74q0 -46 -27.5 -73t-77.5 -27t-78 27t-28 73zM596 1345l-103 -242q-7 -21 -26 -21h-112q-13 0 -13 11l51 248q6 26 32 26h156q17 0 17 -14z" />
    <glyph glyph-name="Alpha" unicode="&#x391;" horiz-adv-x="1156" 
d="M630 1027l-166 -451l-25 -69h320l-5 33q-15 92 -86 487q-7 41 -9 69l-1 12h-4q-9 -38 -24 -81zM450 1098l-106 37q-18 7 -18 26l9 104q2 20 26 20h453q17 0 20 -14l262 -1249q1 -3 1 -9q0 -13 -14 -13h-207q-21 0 -24 19l-58 294h-423l-111 -294q-7 -19 -25 -19h-207
q-14 0 -14 13q0 3 3 9z" />
    <glyph glyph-name="Beta" unicode="&#x392;" horiz-adv-x="1076" 
d="M585 1107q-34 0 -67.5 -0.5t-54.5 -1t-23 -0.5h-2l-29 -334h132q85 0 153 53q67 52 67 141q0 76 -45 109t-131 33zM511 587h-118l-36 -410q18 -6 131 -6q116 0 192 64t76 182q0 170 -245 170zM134 0q-22 0 -22 30l94 1068l-106 37q-18 5 -18 26l9 104q2 20 27 20
q303 6 439 6q111 0 190 -11q90 -11 154 -49q104 -60 104 -211q0 -228 -240 -326q109 -24 171.5 -102.5t62.5 -197.5q0 -85 -28 -155t-77.5 -117.5t-117.5 -79.5t-145.5 -47t-165.5 -15q-63 0 -155 5q-59 3 -129 10z" />
    <glyph glyph-name="Gamma" unicode="&#x393;" horiz-adv-x="950" 
d="M379 1285h537q26 0 26 -24l-25 -287q-2 -20 -22 -20h-102q-17 0 -20 17l-20 115h-260q-34 0 -47 -8.5t-15 -32.5l-89 -1015q-3 -30 -25 -30h-185q-22 0 -22 26l99 1129q6 70 44.5 100t125.5 30z" />
    <glyph glyph-name="uni0394" unicode="&#x394;" horiz-adv-x="1192" 
d="M19 41l504 1215q15 29 43 29h246q30 0 36 -29l283 -1219q1 -4 1 -12q-1 -11 -9.5 -18t-16.5 -7h-1067q-24 0 -24 23q0 9 4 18zM644 1027l-295 -789q-6 -18 -6 -26q0 -17 25 -17h451q28 0 28 23q0 8 -4 23l-162 786q-10 56 -10 59l-1 7h-4q-1 -4 -9 -26.5t-13 -39.5z" />
    <glyph glyph-name="Epsilon" unicode="&#x395;" horiz-adv-x="999" 
d="M747 595h-354l-35 -396h497q21 0 21 -16l-13 -153q-3 -30 -25 -30h-705q-21 0 -21 30l94 1068l-107 37q-17 5 -17 26l9 104q2 20 26 20h824q31 0 31 -28l-11 -139q-3 -32 -37 -32h-488l-26 -292h354q30 0 30 -35l-11 -130q-4 -34 -36 -34z" />
    <glyph glyph-name="Zeta" unicode="&#x396;" horiz-adv-x="1094" 
d="M334 1086l-53 -115q-8 -17 -21 -17h-102q-19 0 -19 20l24 283q1 12 6 20q8 8 23 8h818q14 0 24.5 -10.5t10.5 -26.5l-12 -132q-2 -24 -15 -40l-678 -877h350q54 0 84.5 34.5t37.5 91.5q1 11 8.5 20.5t20.5 9.5h156q18 0 18 -25q-21 -188 -92 -259t-216 -71h-601
q-46 0 -46 37l11 125q1 26 16 40l672 884h-425z" />
    <glyph glyph-name="Eta" unicode="&#x397;" horiz-adv-x="1244" 
d="M206 1098l-107 37q-17 5 -17 26l9 104q2 20 26 20h302q31 0 31 -35l-46 -527h467l47 532q2 30 27 30h185q21 0 21 -30l-107 -1225q-3 -30 -26 -30h-185q-22 0 -22 30l42 494h-467l-43 -494q-3 -30 -25 -30h-185q-21 0 -21 30z" />
    <glyph glyph-name="Theta" unicode="&#x398;" horiz-adv-x="1208" 
d="M762 560h-339q-19 0 -19 16l11 137q1 18 20 18h338q21 0 21 -13l-11 -139q-1 -12 -5 -15.5t-16 -3.5zM639 1114q-326 0 -326 -572q0 -371 243 -371q142 0 234 147q92 148 92 441q0 355 -243 355zM539 -24q-148 0 -261 71q-62 41 -107 104q-100 142 -100 404
q0 361 144 558q144 196 441 196q241 0 359 -162q111 -152 111 -402q0 -257 -69 -424q-61 -155 -172 -238q-141 -107 -346 -107z" />
    <glyph glyph-name="Iota" unicode="&#x399;" horiz-adv-x="792" 
d="M478 187l126 -37q17 -5 17 -26l-9 -104q-2 -20 -26 -20h-481q-23 0 -23 20l9 104q2 20 22 26l132 37l80 911l-126 37q-17 5 -17 26l9 104q2 20 26 20h481q23 0 23 -20l-9 -104q-2 -20 -22 -26l-132 -37z" />
    <glyph glyph-name="Kappa" unicode="&#x39a;" horiz-adv-x="1161" 
d="M407 753h33q80 0 119 54q27 36 59 108q34 73 60 135q27 63 73 124q47 62 102 87q66 30 226 30q19 0 25 -3t6 -11l-1 -7q-3 -31 -13 -151q-1 -17 -8.5 -22t-29.5 -5q-56 0 -90 -15q-16 -7 -31.5 -22t-26.5 -29t-26 -42.5t-21.5 -43t-22.5 -50.5t-21 -47
q-53 -117 -130 -155q108 -60 156 -286q9 -44 15 -66q4 -15 20 -56q15 -33 32 -50q45 -43 118 -43q28 0 28 -31l-12 -141q-2 -27 -68 -27q-126 0 -214 63q-96 74 -127 253q-17 94 -37 152q-12 38 -28 58q-34 50 -93 50h-89l-47 -534q-3 -30 -25 -30h-185q-21 0 -21 30
l94 1068l-107 37q-17 6 -17 26l9 104q2 20 26 20h302q14 0 22.5 -9.5t8.5 -25.5z" />
    <glyph glyph-name="Lambda" unicode="&#x39b;" horiz-adv-x="1226" 
d="M1153 0h-292q-14 0 -25 9.5t-12 26.5q-8 44 -27 174q-25 167 -31 204q-12 75 -33 192q-38 223 -95 448q-12 -53 -32 -108q-302 -869 -313 -894q-5 -13 -7 -16q-16 -36 -48 -36h-204q-20 0 -20 21q0 7 4 16l490 1213q14 35 48 35h211q14 0 25.5 -9.5t15.5 -22.5
q112 -292 252 -1067l111 -36q17 -5 17 -26l-9 -104q-2 -20 -26 -20z" />
    <glyph glyph-name="Mu" unicode="&#x39c;" horiz-adv-x="1445" 
d="M619 334l-162 515q-15 50 -26 109q-11 68 -11 87h-5l-101 -1015q-2 -30 -25 -30h-186q-21 0 -21 30l163 1214q6 41 40 41h226q16 0 28.5 -10t15.5 -21l3 -10l167 -590q9 -51 10 -68l1 -10q0 15 26 78l274 603q12 28 49 28h220q17 0 26.5 -12t9.5 -31l-64 -1212
q-1 -30 -27 -30h-184q-22 0 -22 30l29 331l60 684h-6q-28 -108 -73 -196l-252 -515q-1 -1 -3 -5l-2.5 -5t-2.5 -4t-3 -4t-2.5 -3.5t-3 -3t-3.5 -2t-4 -2l-4 -1t-5 -0.5h-120q-14 0 -19 6t-11 24z" />
    <glyph glyph-name="Nu" unicode="&#x39d;" horiz-adv-x="1281" 
d="M877 0q-37 0 -57 42q-2 3 -86 181q-98 206 -145 307q-59 127 -110 249q-36 85 -51 159h-5l-80 -908q-3 -30 -25 -30h-185q-21 0 -21 30l94 1068l-107 37q-17 5 -17 26l9 104q2 20 26 20h315q28 0 38 -21l354 -765q34 -72 44 -128l5 -20h4l79 902q1 13 9 22.5t20 9.5h182
q21 0 21 -30l-106 -1215q-3 -40 -43 -40h-162z" />
    <glyph glyph-name="Xi" unicode="&#x39e;" horiz-adv-x="1087" 
d="M233 1285h773q32 0 32 -28l-11 -156q-1 -15 -11 -25t-27 -10h-773q-31 0 -31 28l11 156q2 35 37 35zM274 768h595q32 0 32 -28l-11 -156q-1 -15 -11 -25t-27 -10h-595q-31 0 -31 28l11 156q2 35 37 35zM130 220h775q32 0 32 -28l-11 -156q-1 -15 -11 -25t-27 -10h-775
q-31 0 -31 28l11 156q2 35 37 35z" />
    <glyph glyph-name="Omicron" unicode="&#x39f;" horiz-adv-x="1208" 
d="M639 1114q-326 0 -326 -572q0 -371 243 -371q142 0 234 147q92 148 92 441q0 355 -243 355zM539 -24q-148 0 -261 71q-62 41 -107 104q-100 142 -100 404q0 361 144 558q144 196 441 196q241 0 359 -162q111 -152 111 -402q0 -257 -69 -424q-61 -155 -172 -238
q-141 -107 -346 -107z" />
    <glyph glyph-name="Pi" unicode="&#x3a0;" horiz-adv-x="1217" 
d="M802 26l79 904q4 32 4 68q0 73 -48 83q-25 7 -78 7h-323l-93 -1058q-3 -30 -25 -30h-185q-21 0 -21 25l94 1073l-107 37q-17 6 -17 21l9 109q2 20 26 20h721q72 0 130 -8q38 -4 62 -17q99 -44 94 -162q0 -52 -5 -110l-84 -958q-3 -30 -26 -30h-185q-22 0 -22 26z" />
    <glyph glyph-name="Rho" unicode="&#x3a1;" horiz-adv-x="1021" 
d="M437 1099l-40 -449h53q303 0 303 248q0 205 -228 205q-20 0 -40.5 -1t-33 -2t-13.5 -1h-1zM381 461l-38 -431q-1 -30 -25 -30h-185q-21 0 -21 30l94 1068l-107 37q-17 6 -17 26l9 104q1 25 26 25h423q222 0 338 -95.5t116 -273.5q0 -151 -69.5 -257t-193.5 -155
q-121 -48 -287 -48h-63z" />
    <glyph glyph-name="Sigma" unicode="&#x3a3;" horiz-adv-x="1055" 
d="M889 0h-850q-10 0 -16.5 8.5t-6.5 20.5l8 96q2 19 10 29l3 4l378 470q12 16 12 24q0 4 -9 19l-295 466l-1 4q-6 10 -6 24l7 91q1 12 9 20.5t20 8.5h839q26 0 26 -24l-25 -287q-2 -20 -23 -20h-101q-17 0 -20 17l-19 115h-413l263 -417q7 -13 7 -21q0 -9 -10 -22
l-350 -428h435l40 115q6 17 22 17h101q20 0 20 -20l-25 -286q-1 -24 -30 -24z" />
    <glyph glyph-name="Tau" unicode="&#x3a4;" horiz-adv-x="1073" 
d="M875 1086h-200l-79 -899l133 -37q17 -5 17 -26l-9 -104q-2 -20 -26 -20h-488q-23 0 -23 20l9 104q2 20 23 26l132 37l79 899h-199l-41 -115q-6 -17 -23 -17h-101q-19 0 -19 20l25 287q1 24 30 24h923q25 0 25 -24l-25 -287q-2 -20 -23 -20h-100q-18 0 -21 17z" />
    <glyph glyph-name="Upsilon" unicode="&#x3a5;" horiz-adv-x="1176" 
d="M611 0h-187q-21 0 -21 30l32 363q-104 300 -273 703l-125 39q-18 6 -18 22l9 105q2 23 27 23h275q18 0 33 -25q104 -249 197 -568l14 -48q4 12 19 44q164 349 296 572q15 25 38 25h214q30 0 30 -19q0 -7 -8 -21q-12 -20 -48.5 -80.5t-61.5 -102.5q-28 -47 -60 -100.5
t-36 -60.5q-30 -52 -72 -122q-15 -26 -38 -65t-30 -51q-12 -21 -51 -89q-12 -22 -31 -56t-22 -40q-12 -23 -45 -85l-32 -363q-2 -30 -25 -30z" />
    <glyph glyph-name="Phi" unicode="&#x3a6;" horiz-adv-x="1289" 
d="M813 1259l-17 -193q220 0 331 -117q112 -115 112 -312q0 -32 -3 -65q-19 -214 -151.5 -327.5t-371.5 -119.5l-8 -94q-3 -30 -26 -30h-169q-23 0 -23 26l9 99q-212 8 -324 123t-112 306q0 29 3 59q37 435 515 452l3 37l-112 36q-17 6 -17 22l9 108q1 21 26 21h293
q14 0 23.5 -8.5t9.5 -22.5zM1018 578q2 34 2 38q0 113 -62 193q-62 79 -177 87l-53 -601q130 5 204 78.5t86 204.5zM283 620q-2 -38 -2 -42q0 -116 58 -195q59 -79 171 -87l53 599q-127 -10 -198 -80.5t-82 -194.5z" />
    <glyph glyph-name="Chi" unicode="&#x3a7;" horiz-adv-x="1215" 
d="M828 24l-196 406q-13 -20 -55 -85q-44 -69 -67 -102q-29 -41 -64 -83q-44 -53 -90 -89q-45 -34 -109 -56q-63 -22 -147 -22h-9q-21 0 -32 6q-10 6 -10 23l26 155q3 16 24 17q50 5 111 49q53 39 115 116q58 75 187 256q-40 81 -132 256q-98 187 -116 222q-94 30 -124 42
q-18 5 -18 26l9 104q2 20 27 20h276q31 0 43 -29q126 -286 138 -314q10 -21 31 -68q20 -45 23 -50l272 434q17 27 48 27h206q26 0 26 -18q0 -9 -11 -26l-429 -604q38 -71 141 -247q113 -193 200 -353q6 -15 6 -16q0 -21 -32 -21h-224q-32 0 -44 24z" />
    <glyph glyph-name="Psi" unicode="&#x3a8;" horiz-adv-x="1473" 
d="M1322 1073l-16 -178q-26 -281 -161 -416q-137 -137 -351 -137l-27 -312q-1 -30 -25 -30h-183q-22 0 -22 26l27 316q-210 0 -322 102q-111 104 -111 336q0 86 20 318l-106 37q-18 6 -18 22l9 108q2 20 27 20h298q32 0 32 -30q-3 -32 -15 -164q-16 -178 -17 -188
q-5 -82 -5 -117q0 -258 224 -258l51 576q1 31 27 31h183q20 0 20 -26l-51 -581q233 0 263 343l33 379q5 35 37 35h302q23 0 23 -20l-9 -104q-1 -18 -22 -26l-112 -37z" />
    <glyph glyph-name="uni03A9" unicode="&#x3a9;" horiz-adv-x="1263" 
d="M671 1312q131 0 229.5 -39.5t159.5 -113t91 -173t30 -224.5q0 -164 -54 -312q-54 -149 -138 -263l155 -40q17 -6 17 -21l-9 -106q-2 -20 -26 -20h-401q-23 0 -23 20l9 104q2 15 14 27q209 194 209 601q0 363 -265 363q-178 0 -265 -183q-42 -86 -57 -234q-6 -57 -6 -117
q0 -131 38 -250q39 -116 98 -180q9 -9 9 -23l-9 -108q-2 -20 -25 -20h-391q-23 0 -23 20l9 104q2 20 22 26l162 40q-48 85 -88 213q-38 128 -38 241q0 108 20.5 205t65 182t109.5 147t160 98t211 36z" />
    <glyph glyph-name="Iotadieresis" unicode="&#x3aa;" horiz-adv-x="737" 
d="M478 187l126 -37q17 -5 17 -26l-9 -104q-2 -20 -26 -20h-481q-23 0 -23 20l9 104q2 20 22 26l132 37l80 911l-126 37q-17 5 -17 26l9 104q2 20 26 20h481q23 0 23 -20l-9 -104q-2 -20 -22 -26l-132 -37zM163 1516q0 51 29 78t83 27q53 0 82.5 -27.5t29.5 -77.5
q0 -49 -30 -77.5t-82 -28.5q-54 0 -83 28t-29 78zM538 1516q0 50 29 77.5t84 27.5q53 0 82 -27.5t29 -77.5q0 -49 -29.5 -77.5t-81.5 -28.5q-54 0 -83.5 28.5t-29.5 77.5z" />
    <glyph glyph-name="Upsilondieresis" unicode="&#x3ab;" horiz-adv-x="1176" 
d="M611 0h-187q-21 0 -21 30l32 363q-104 300 -273 703l-125 39q-18 6 -18 22l9 105q2 23 27 23h275q18 0 33 -25q104 -249 197 -568l14 -48q4 12 19 44q164 349 296 572q15 25 38 25h214q30 0 30 -19q0 -7 -8 -21q-12 -20 -48.5 -80.5t-61.5 -102.5q-28 -47 -60 -100.5
t-36 -60.5q-30 -52 -72 -122q-15 -26 -38 -65t-30 -51q-12 -21 -51 -89q-12 -22 -31 -56t-22 -40q-12 -23 -45 -85l-32 -363q-2 -30 -25 -30zM339 1517q0 51 29 78t83 27q53 0 82.5 -27.5t29.5 -77.5q0 -49 -30 -77.5t-82 -28.5q-54 0 -83 28t-29 78zM714 1517q0 50 29 77.5
t84 27.5q53 0 82 -27.5t29 -77.5q0 -49 -29.5 -77.5t-81.5 -28.5q-54 0 -83.5 28.5t-29.5 77.5z" />
    <glyph glyph-name="alphatonos" unicode="&#x3ac;" horiz-adv-x="1199" 
d="M715 436q-18 121 -37 180q-13 47 -32 79q-43 73 -111 73q-67 0 -120.5 -39t-83.5 -104q-58 -125 -58 -259q0 -97 30.5 -148.5t79.5 -51.5q80 0 169 74q91 77 163 196zM1026 959q0 5 5 10t11 5l170 -29q14 -3 14 -12q0 -5 -3 -12q-90 -183 -261 -479l-23 -40
q23 -141 45 -264l93 -23q11 -3 11 -14l-6 -76q-1 -20 -24 -22l-250 -16q-21 0 -24 20l-27 172q-99 -118 -197 -168q-97 -49 -216 -49q-124 0 -206 102q-83 104 -83 295q0 128 38 243t105 197q68 82 160 128.5t195 46.5q146 0 223 -83q71 -75 108 -215q106 204 142 283z
M714 1347l-103 -242q-7 -21 -26 -21h-112q-13 0 -13 11l51 248q6 26 32 26h156q17 0 17 -14z" />
    <glyph glyph-name="epsilontonos" unicode="&#x3ad;" horiz-adv-x="833" 
d="M772 918q34 -13 34 -32l-31 -228q-1 -21 -22 -21h-70q-19 0 -20 13l-17 116q-63 26 -155 26q-69 0 -102.5 -22.5t-37.5 -73.5q0 -124 155 -124h83q27 0 27 -21l-10 -147q-2 -20 -34 -20h-99q-170 0 -170 -114q0 -52 39 -82t104 -30q71 0 151 28l35 110q4 13 23 13h70
q19 0 19 -16l-9 -232q-2 -19 -19 -26q-56 -26 -139 -43q-80 -16 -145 -16q-175 0 -268 69.5t-93 201.5q0 87 55 154t135 91q-62 37 -97 89.5t-35 114.5q0 58 21.5 105.5t57 79t83 53t97.5 31t103 9.5q124 0 281 -56zM684 1346l-103 -242q-7 -21 -26 -21h-112q-13 0 -13 11
l51 248q6 26 32 26h156q17 0 17 -14z" />
    <glyph glyph-name="etatonos" unicode="&#x3ae;" horiz-adv-x="1073" 
d="M989 690l-60 -662q-19 -202 -19 -291q0 -75 9 -138q0 -21 -22 -21h-193q-28 0 -28 84q0 89 17 291l60 659q2 32 2 42q0 136 -109 136q-54 0 -112 -32t-106 -88l-56 -640q-3 -30 -27 -30h-178q-22 0 -22 25l66 755l-102 25q-16 4 -16 21l8 93q2 24 29 26l267 17
q25 0 27 -33l7 -112q167 157 328 157q110 0 171 -63t61 -175q0 -12 -2 -46zM785 1346l-103 -242q-8 -21 -26 -21h-112q-13 0 -13 11l51 248q6 26 32 26h156q17 0 17 -14z" />
    <glyph glyph-name="iotatonos" unicode="&#x3af;" horiz-adv-x="626" 
d="M558 162h29q13 0 13 -19v-134q0 -22 -24 -25q-70 -10 -160 -10q-133 0 -185 67q-53 68 -53 189q0 34 3 72l42 480l-101 25q-16 4 -16 21l8 88q2 24 28 26l293 20q12 0 20 -8t8 -21l-56 -637q-1 -5 -1 -21q0 -86 70 -105q32 -8 82 -8zM539 1346l-103 -242q-8 -21 -26 -21
h-112q-13 0 -13 11l51 248q6 26 32 26h156q17 0 17 -14z" />
    <glyph glyph-name="upsilondieresistonos" unicode="&#x3b0;" horiz-adv-x="1071" 
d="M767 769l-149 33q-15 3 -15 21l7 88q2 22 26 23l289 20q29 0 35 -37q29 -157 29 -294q0 -212 -65 -368q-36 -84 -92 -147q-57 -63 -145.5 -99.5t-197.5 -36.5q-161 0 -261 91q-101 92 -101 279q0 64 13 185q6 49 10 99q11 137 11 220q0 8 -2 78q0 26 27 26h180
q20 0 20 -26v-84q0 -69 -11 -188q-4 -46 -10 -91l-5 -50t-6 -59q-4 -43 -4 -87q0 -92 42.5 -139.5t114.5 -47.5q76 0 134 46.5t87 122.5q29 74 36 167q6 63 6 158q0 55 -3 97zM212 1189q0 48 27.5 74t78.5 26q50 0 77.5 -26t27.5 -74q0 -46 -27.5 -73t-77.5 -27t-78 27
t-28 73zM722 1189q0 48 27.5 74t78.5 26q50 0 77.5 -26t27.5 -74q0 -46 -27.5 -73t-77.5 -27t-78 27t-28 73zM722 1345l-103 -242q-7 -21 -26 -21h-112q-13 0 -13 11l51 248q6 26 32 26h156q17 0 17 -14z" />
    <glyph glyph-name="alpha" unicode="&#x3b1;" horiz-adv-x="1199" 
d="M715 436q-18 121 -37 180q-13 47 -32 79q-43 73 -111 73q-67 0 -120.5 -39t-83.5 -104q-58 -125 -58 -259q0 -97 30.5 -148.5t79.5 -51.5q80 0 169 74q91 77 163 196zM1026 959q0 5 5 10t11 5l170 -29q14 -3 14 -12q0 -5 -3 -12q-90 -183 -261 -479l-23 -40
q23 -141 45 -264l93 -23q11 -3 11 -14l-6 -76q-1 -20 -24 -22l-250 -16q-21 0 -24 20l-27 172q-99 -118 -197 -168q-97 -49 -216 -49q-124 0 -206 102q-83 104 -83 295q0 128 38 243t105 197q68 82 160 128.5t195 46.5q146 0 223 -83q71 -75 108 -215q106 204 142 283z" />
    <glyph glyph-name="beta" unicode="&#x3b2;" horiz-adv-x="1104" 
d="M396 81l74 161q3 8 12 8q5 0 11 -2q74 -38 163 -38q85 0 139 62q54 63 54 155q0 101 -72 167t-195 72q-17 0 -17 20l20 149q3 19 24 22q77 13 135 80q57 67 57 147q0 67 -43 113t-113 46q-121 0 -176 -72t-66 -195l-97 -1107q-5 -62 -5 -100q0 -7 8 -161q0 -12 -7 -21
t-19 -9h-175q-37 0 -37 135q0 68 9 170l102 1132q10 112 53.5 199t111.5 137q132 99 302 99q214 0 318 -152q54 -76 54 -182q0 -181 -208 -310q117 -44 185 -149q68 -104 68 -236q0 -183 -121 -304q-120 -120 -310 -120q-130 0 -227 55q-15 9 -15 17q0 5 3 12z" />
    <glyph glyph-name="gamma" unicode="&#x3b3;" horiz-adv-x="1302" 
d="M372 934l233 -674q111 227 196 388q95 181 121 228l34 58q17 32 40 32l278 -20q23 -2 23 -22l-8 -92q0 -2 -1.5 -6t-5.5 -9t-10 -6l-138 -32q-192 -310 -435 -776l-35 -396q-2 -30 -25 -30h-186q-21 0 -21 25l35 401q-54 155 -84 235q-22 60 -83 216q-53 135 -132 325
l-137 32q-15 3 -15 21l8 88q2 25 27 26l287 20q22 0 34 -32z" />
    <glyph glyph-name="delta" unicode="&#x3b4;" horiz-adv-x="990" 
d="M537 1449q228 0 431 -109q17 -9 17 -25l-29 -204q-3 -18 -21 -18h-72q-15 0 -17 14l-15 98q-145 69 -270 69q-31 0 -52.5 -15t-21.5 -43q0 -32 41 -79q22 -24 42 -45q28 -26 59 -57q50 -48 64 -62q127 -128 179 -252q53 -126 53 -263q0 -110 -38 -203.5t-105 -154.5
q-133 -124 -315 -124q-181 0 -296 111q-116 113 -116 298q0 206 123 332q114 118 308 179l-41 41q-47 47 -61 62q-14 16 -51 62q-57 76 -57 156q0 81 56 152q65 80 205 80zM266 423q0 -138 87 -210q49 -38 117 -38q98 0 173 83q76 82 76 226q0 135 -107 269
q-161 -32 -253 -119q-93 -88 -93 -211z" />
    <glyph glyph-name="epsilon" unicode="&#x3b5;" horiz-adv-x="833" 
d="M772 918q34 -13 34 -32l-31 -228q-1 -21 -22 -21h-70q-19 0 -20 13l-17 116q-63 26 -155 26q-69 0 -102.5 -22.5t-37.5 -73.5q0 -124 155 -124h83q27 0 27 -21l-10 -147q-2 -20 -34 -20h-99q-170 0 -170 -114q0 -52 39 -82t104 -30q71 0 151 28l35 110q4 13 23 13h70
q19 0 19 -16l-9 -232q-2 -19 -19 -26q-56 -26 -139 -43q-80 -16 -145 -16q-175 0 -268 69.5t-93 201.5q0 87 55 154t135 91q-62 37 -97 89.5t-35 114.5q0 58 21.5 105.5t57 79t83 53t97.5 31t103 9.5q124 0 281 -56z" />
    <glyph glyph-name="zeta" unicode="&#x3b6;" horiz-adv-x="801" 
d="M50 1004l21 256q1 25 27 25h669q21 0 26 -20l17 -91q0 -8 -11 -16l-33 -18q-76 -42 -164 -128q-84 -83 -160 -188q-71 -97 -121 -214q-48 -112 -48 -202q0 -29 9 -56t20.5 -47t36 -42.5t41.5 -36t52.5 -33.5t53.5 -29t59.5 -29t57.5 -28q101 -49 157.5 -105.5
t56.5 -140.5q-5 -210 -204 -265q-101 -30 -255 -30q-37 0 -37 24l13 154q1 6 7 10.5t12 4.5q104 2 152.5 9t65.5 22t18 47q6 48 -76 86l-51 21q-30 11 -50 20q-69 30 -110 51q-45 23 -97 58q-56 37 -86 73q-76 87 -76 202q0 178 106 377q106 198 271 386h-195l-63 -112
q-8 -15 -22 -15h-72q-18 0 -18 20z" />
    <glyph glyph-name="eta" unicode="&#x3b7;" horiz-adv-x="1073" 
d="M989 690l-60 -662q-19 -202 -19 -291q0 -75 9 -138q0 -21 -22 -21h-193q-28 0 -28 84q0 89 17 291l60 659q2 32 2 42q0 136 -109 136q-54 0 -112 -32t-106 -88l-56 -640q-3 -30 -27 -30h-178q-22 0 -22 25l66 755l-102 25q-16 4 -16 21l8 93q2 24 29 26l267 17
q25 0 27 -33l7 -112q167 157 328 157q110 0 171 -63t61 -175q0 -12 -2 -46z" />
    <glyph glyph-name="theta" unicode="&#x3b8;" horiz-adv-x="1026" 
d="M63 706q23 258 92 425q64 149 156 225q115 93 257 91q117 0 207 -71q54 -42 91 -105q41 -66 65 -176t24 -246q0 -65 -8 -169q-28 -332 -162 -520q-132 -186 -354 -186q-124 0 -210.5 74.5t-126.5 206.5q-38 132 -38 307q0 70 7 144zM456 189q101 0 175 125q73 124 96 324
h-457v-38q0 -242 80 -353q43 -58 106 -58zM543 1232q-77 0 -143 -83q-77 -95 -112 -340h450v10q0 225 -66 324q-57 89 -129 89z" />
    <glyph glyph-name="iota" unicode="&#x3b9;" horiz-adv-x="613" 
d="M545 162h29q13 0 13 -19v-134q0 -22 -24 -25q-70 -10 -160 -10q-133 0 -185 67q-53 68 -53 189q0 34 3 72l42 480l-101 25q-16 4 -16 21l8 88q2 24 28 26l293 20q12 0 20 -8t8 -21l-56 -637q-1 -5 -1 -21q0 -86 70 -105q32 -8 82 -8z" />
    <glyph glyph-name="kappa" unicode="&#x3ba;" horiz-adv-x="1055" 
d="M462 930l-30 -343h36q28 0 51 22q30 28 46 52q22 33 39 62q3 5 17 28q25 43 42 66q14 20 46 54q29 31 60 46q72 38 179 38h54q15 0 15 -16l-15 -163q-1 -16 -19 -16h-34q-43 0 -71 -14.5t-53 -46.5q-3 -4 -9 -11.5t-16.5 -21.5t-18.5 -25q-20 -28 -55 -72
q-29 -37 -66 -59q50 -34 78 -78t63 -132q21 -56 48 -82q29 -24 88 -33q20 -2 20 -19l-12 -159q-1 -12 -11 -15.5t-42 -3.5q-114 0 -178.5 45.5t-97.5 141.5q-42 121 -74 167q-35 50 -87 50h-40l-32 -362q-3 -30 -27 -30h-178q-22 0 -22 25l66 758l-102 24q-16 3 -16 21l8 88
q2 24 29 26l293 20q12 0 20 -9t8 -23z" />
    <glyph glyph-name="lambda" unicode="&#x3bb;" horiz-adv-x="1111" 
d="M86 -31q-18 0 -23 14l-47 163q0 13 20 22q85 31 103 66l200 389q67 137 134 259q36 65 111 92q-24 147 -76 202q-52 57 -156 57q-2 0 -5 -0.5t-9 -1t-13 -0.5h-29q-17 0 -17 16v152q0 7 5.5 13.5t16.5 7.5q43 6 101 6q124 0 210 -51q41 -23 90 -98q18 -27 35 -72
q18 -45 30 -84q12 -36 28 -103q17 -64 27 -117q14 -63 29 -136q107 -522 129 -617q104 -34 112 -36q12 -2 12 -16l-7 -74q-1 -20 -24 -22q-253 -12 -259 -12q-23 0 -29 23q-88 326 -145 725q-28 -13 -43 -45l-256 -540q-65 -137 -255 -182z" />
    <glyph glyph-name="uni03BC" unicode="&#x3bc;" horiz-adv-x="1147" 
d="M459 932l-50 -589q2 -59 41 -100q40 -42 117 -42q51 0 104 42q55 44 74 98l51 577q1 31 28 31h178q20 0 20 -25l-50 -586q0 -66 31.5 -107.5t81.5 -48.5q17 -5 17 -16q0 -6 -1 -9l-35 -168q-3 -17 -21 -17q-77 0 -139 42q-62 44 -83 120q-55 -82 -120.5 -120t-155.5 -38
q-94 0 -167 59q-21 -178 -21 -362q0 -15 1.5 -43t1.5 -30q0 -21 -22 -21h-190q-14 0 -19 15q-3 10 -3 50q0 90 18 290l74 844l-101 25q-5 1 -10 9t-5 12l8 92q2 24 28 26l292 20q26 0 27 -30z" />
    <glyph glyph-name="nu" unicode="&#x3bd;" horiz-adv-x="1001" 
d="M741 919q6 31 27 31h202q23 0 23 -17q0 -6 -2 -14q-36 -166 -154 -426q-120 -269 -238 -463q-19 -30 -54 -30h-196q-32 0 -36 25l-167 746l-116 27q-14 5 -14 21l8 88q2 23 28 26l288 29q22 0 28 -32q50 -293 96 -646l14 -116q198 456 263 751z" />
    <glyph glyph-name="xi" unicode="&#x3be;" horiz-adv-x="795" 
d="M701 834q23 0 23 -21l-18 -151q0 -2 -1 -6.5t-6 -10t-12 -5.5h-64q-83 0 -161.5 -26t-135.5 -78q-58 -54 -58 -125q0 -41 18 -66q26 -37 52 -56q28 -19 38 -27q15 -10 50 -29q15 -8 35.5 -19.5t21.5 -11.5q19 -10 69 -36q80 -43 102 -56q38 -21 75 -48t55 -52
q39 -54 39 -129q0 -82 -41 -145t-114 -99q-134 -66 -311 -71q-27 0 -27 24l12 140q2 24 31 24q96 3 163 29q67 25 67 78q0 30 -32 53q-34 23 -155 81q-71 34 -76 37q-34 18 -73 40q-68 38 -133 97q-90 84 -96 206q0 120 71 210t200 146q-156 73 -156 229q-2 101 47 171
t132 109q84 43 238 59q60 6 127 6q65 0 102 -10q15 -5 15 -25l-33 -226q-3 -20 -21 -20h-70q-18 0 -19 12l-12 75q-51 0 -95 -4q-56 -5 -107 -23q-86 -31 -86 -107t78 -109.5t252 -33.5z" />
    <glyph glyph-name="omicron" unicode="&#x3bf;" horiz-adv-x="1018" 
d="M65 432q0 118 28.5 215t85 171t149.5 115t215 41q124 0 221 -55q59 -33 98 -80q44 -51 70 -134.5t26 -187.5q0 -123 -28.5 -221t-86 -170t-150 -111t-213.5 -39q-205 0 -310 122t-105 334zM478 154q136 0 193 115q51 102 51 246q0 279 -181 279q-242 0 -242 -368
q0 -129 45.5 -200.5t133.5 -71.5z" />
    <glyph glyph-name="pi" unicode="&#x3c0;" horiz-adv-x="1184" 
d="M1050 -13q-200 -6 -284 69q-83 75 -65 259l38 430h-208q-16 -138 -64 -339q-47 -194 -120 -375q-12 -31 -31 -31h-181q-23 0 -23 20q0 2 2 10q69 164 117 355q48 192 69 354q-51 -8 -139 -53q-12 -5 -18 -5q-12 0 -16 13l-37 147q-1 3 -1 11t8 14q95 84 300 84h722
q27 0 27 -24l-14 -157q-2 -24 -31 -24h-142l-40 -445q0 -1 -0.5 -7t-0.5 -8q0 -73 71 -94q35 -9 97 -13q27 0 27 -19l-29 -151q-4 -21 -34 -21z" />
    <glyph glyph-name="rho" unicode="&#x3c1;" horiz-adv-x="1085" 
d="M533 157q120 0 184 93.5t64 268.5q0 65 -13 115t-33 78t-47.5 46t-51.5 23.5t-51 5.5q-103 2 -166 -84q-54 -82 -67 -240l-19 -216q89 -90 200 -90zM312 40q-23 -268 -23 -371q0 -13 2 -40t2 -29q0 -22 -21 -22h-191q-15 0 -19 14.5t-4 58.5q0 97 17 282l47 518
q48 521 487 521q122 0 215 -51q54 -28 96 -76q43 -47 68.5 -127.5t25.5 -180.5q0 -263 -119 -414q-119 -150 -345 -150q-52 0 -126 21q-73 21 -112 46z" />
    <glyph glyph-name="sigma1" unicode="&#x3c2;" horiz-adv-x="874" 
d="M558 791q-65 0 -115.5 -28.5t-80 -76t-44.5 -105t-15 -120.5q0 -91 43 -143.5t136 -83.5q11 -4 37.5 -12t41.5 -13q13 -4 35.5 -10.5t30.5 -9.5q69 -19 90 -33q46 -25 46 -73q0 -75 -40 -186q-40 -113 -75 -148q-12 -12 -21 -12q-6 0 -22 4l-112 29q-13 3 -13 16
q0 7 10 36q40 121 40 155q0 26 -27 44.5t-63.5 28t-93.5 28t-98 39.5q-57 30 -95.5 68.5t-62.5 99.5q-25 65 -25 153q0 242 136 390t364 148q123 0 246 -39q25 -7 25 -26l-33 -234q-3 -20 -21 -20h-70q-18 0 -20 12l-15 109h-3q-26 13 -116 13z" />
    <glyph glyph-name="sigma" unicode="&#x3c3;" horiz-adv-x="1150" 
d="M712 427q3 35 3 65q0 163 -65 236q-57 64 -117 64q-48 0 -84 -11q-49 -12 -91 -60q-70 -82 -70 -277q-2 -130 46.5 -211t147.5 -83q96 0 158 78q62 80 72 199zM1095 791l-227 26q74 -98 74 -325q0 -234 -127 -376q-126 -143 -349 -143q-107 0 -187 35t-128.5 98.5
t-72 147t-23.5 185.5q0 193 66 315q56 103 165 159q88 46 208 55q43 4 104 4h530q14 0 14 -19l-28 -145q-3 -17 -19 -17z" />
    <glyph glyph-name="tau" unicode="&#x3c4;" horiz-adv-x="750" 
d="M697 775h-234q-37 -422 -43 -491q0 -5 -0.5 -9t-0.5 -7v-5t-0.5 -3t-0.5 -2v-1q0 -89 112 -89q50 0 105 7q21 0 21 -21v-144q0 -15 -15 -18q-107 -18 -179 -18q-133 0 -202 65t-69 192q0 22 46 544h-193q-28 0 -28 25l12 126q2 24 32 24h653q27 0 27 -24l-12 -126
q-1 -25 -31 -25z" />
    <glyph glyph-name="upsilon" unicode="&#x3c5;" horiz-adv-x="1071" 
d="M767 769l-149 33q-15 3 -15 21l7 88q2 22 26 23l289 20q29 0 35 -37q29 -157 29 -294q0 -212 -65 -368q-36 -84 -92 -147q-57 -63 -145.5 -99.5t-197.5 -36.5q-161 0 -261 91q-101 92 -101 279q0 64 13 185q6 49 10 99q11 137 11 220q0 8 -2 78q0 26 27 26h180
q20 0 20 -26v-84q0 -69 -11 -188q-4 -46 -10 -91l-5 -50t-6 -59q-4 -43 -4 -87q0 -92 42.5 -139.5t114.5 -47.5q76 0 134 46.5t87 122.5q29 74 36 167q6 63 6 158q0 55 -3 97z" />
    <glyph glyph-name="phi" unicode="&#x3c6;" horiz-adv-x="1398" 
d="M266 437q0 -245 279 -301l73 813q1 17 17 26.5t36 10.5q24 2 51 2q142 0 268.5 -44t210.5 -130q59 -59 92.5 -144.5t33.5 -186.5q0 -133 -46 -236t-127 -167t-181.5 -99.5t-220.5 -44.5l-28 -327q-3 -30 -25 -30h-180q-21 0 -21 26l30 340q-193 30 -329 142
q-68 57 -106 142t-38 187q0 170 94 309q95 140 257 207q8 3 15 3q10 0 13 -11l46 -140q2 -10 2 -12q0 -12 -10 -16q-206 -101 -206 -319zM828 792l-59 -667q150 14 242 93q104 88 104 258q0 127 -82 215q-83 89 -205 101z" />
    <glyph glyph-name="chi" unicode="&#x3c7;" horiz-adv-x="1162" 
d="M212 770l-148 37q-15 3 -15 21l7 88q2 24 29 26l267 20q11 0 17.5 -8t16.5 -28l239 -487l16 26l278 456q18 29 45 29h207q19 0 19 -18q0 -7 -3 -13l-445 -674l206 -405q40 -79 80 -100q12 -6 71 -29q19 -6 19 -21l-14 -152q-2 -24 -26 -24q-96 0 -173 38t-118 115
q-83 154 -175 360l-9 19q-1 -3 -10 -18l-226 -332q-125 -183 -341 -183q-21 0 -21 22l14 150q3 24 11 29q4 3 10 4q6 2 27.5 6.5t30.5 8.5q52 27 83 67q15 18 24 32q15 21 28 41q8 11 18.5 26t13.5 19l224 327z" />
    <glyph glyph-name="psi" unicode="&#x3c8;" horiz-adv-x="1416" 
d="M514 -395l32 363q-204 23 -306 137.5t-102 306.5q0 63 28 365l-103 25q-14 5 -14 21l7 88q2 24 29 26l293 20q12 0 19.5 -9t7.5 -23q-12 -123 -21 -218q-7 -71 -13 -140q-7 -79 -7 -130q0 -99 35 -168q42 -81 164 -104l83 936q2 26 28 26h170q12 0 19.5 -8.5t7.5 -20.5
l-82 -928q114 26 169.5 101t65.5 197l37 447q2 32 32 32l291 -20q23 -2 23 -24l-7 -90q-2 -17 -18 -21l-107 -25l-26 -298q-40 -448 -478 -500l-31 -360q-3 -30 -25 -30h-179q-22 0 -22 26z" />
    <glyph glyph-name="omega" unicode="&#x3c9;" horiz-adv-x="1459" 
d="M252 962l274 -20q24 -2 24 -26l-8 -88q0 -5 -5.5 -12.5t-12.5 -8.5l-165 -33q-51 -142 -51 -327q0 -131 39.5 -202.5t102.5 -71.5q138 0 165 249l17 159q2 30 26 30h179q21 0 21 -25l-15 -149q-4 -43 -4 -72q0 -93 33.5 -143t94.5 -50q45 0 83.5 33.5t62.5 88.5
q43 100 57 197q11 83 11 146q0 78 -14 137l-158 33q-16 3 -16 21l8 88q2 24 28 26l275 20q22 0 36 -36q48 -130 48 -320q2 -180 -51.5 -324.5t-155.5 -227.5t-235 -82q-71 0 -140 30q-71 32 -107 83q-102 -113 -252 -113q-165 0 -260 123q-94 122 -94 327q0 122 31 253
q30 129 88 252q15 35 40 35z" />
    <glyph glyph-name="iotadieresis" unicode="&#x3ca;" horiz-adv-x="678" 
d="M610 162h29q13 0 13 -19v-134q0 -22 -24 -25q-70 -10 -160 -10q-133 0 -185 67q-53 68 -53 189q0 34 3 72l42 480l-101 25q-16 4 -16 21l8 88q2 24 28 26l293 20q12 0 20 -8t8 -21l-56 -637q-1 -5 -1 -21q0 -86 70 -105q32 -8 82 -8zM84 1195q0 51 29 78t83 27
q53 0 82.5 -27.5t29.5 -77.5q0 -49 -30 -77.5t-82 -28.5q-54 0 -83 28t-29 78zM459 1195q0 50 29 77.5t84 27.5q53 0 82 -27.5t29 -77.5q0 -49 -29.5 -77.5t-81.5 -28.5q-54 0 -83.5 28.5t-29.5 77.5z" />
    </font>
</defs>
</svg>
